<?xml version="1.0" encoding="utf-8" standalone="no"?>
<!DOCTYPE svg PUBLIC "-//W3C//DTD SVG 1.1//EN"
  "http://www.w3.org/Graphics/SVG/1.1/DTD/svg11.dtd">
<svg xmlns:xlink="http://www.w3.org/1999/xlink" width="408.10125pt" height="325.986375pt" viewBox="0 0 408.10125 325.986375" xmlns="http://www.w3.org/2000/svg" version="1.1">
 <metadata>
  <rdf:RDF xmlns:dc="http://purl.org/dc/elements/1.1/" xmlns:cc="http://creativecommons.org/ns#" xmlns:rdf="http://www.w3.org/1999/02/22-rdf-syntax-ns#">
   <cc:Work>
    <dc:type rdf:resource="http://purl.org/dc/dcmitype/StillImage"/>
    <dc:date>2026-03-17T15:43:37.026078</dc:date>
    <dc:format>image/svg+xml</dc:format>
    <dc:creator>
     <cc:Agent>
      <dc:title>Matplotlib v3.10.8, https://matplotlib.org/</dc:title>
     </cc:Agent>
    </dc:creator>
   </cc:Work>
  </rdf:RDF>
 </metadata>
 <defs>
  <style type="text/css">*{stroke-linejoin: round; stroke-linecap: butt}</style>
 </defs>
 <g id="figure_1">
  <g id="patch_1">
   <path d="M 0 325.986375 
L 408.10125 325.986375 
L 408.10125 0 
L 0 0 
z
" style="fill: #ffffff"/>
  </g>
  <g id="axes_1">
   <g id="patch_2">
    <path d="M 43.78125 288.430125 
L 400.90125 288.430125 
L 400.90125 22.318125 
L 43.78125 22.318125 
z
" style="fill: #ffffff"/>
   </g>
   <g id="patch_3">
    <path d="M 60.013977 288.430125 
L 66.507068 288.430125 
L 66.507068 34.990125 
L 60.013977 34.990125 
z
" clip-path="url(#p0b76865652)" style="fill: #1f77b4"/>
   </g>
   <g id="patch_4">
    <path d="M 66.507068 288.430125 
L 73.000159 288.430125 
L 73.000159 288.430125 
L 66.507068 288.430125 
z
" clip-path="url(#p0b76865652)" style="fill: #1f77b4"/>
   </g>
   <g id="patch_5">
    <path d="M 73.000159 288.430125 
L 79.49325 288.430125 
L 79.49325 288.430125 
L 73.000159 288.430125 
z
" clip-path="url(#p0b76865652)" style="fill: #1f77b4"/>
   </g>
   <g id="patch_6">
    <path d="M 79.49325 288.430125 
L 85.986341 288.430125 
L 85.986341 288.430125 
L 79.49325 288.430125 
z
" clip-path="url(#p0b76865652)" style="fill: #1f77b4"/>
   </g>
   <g id="patch_7">
    <path d="M 85.986341 288.430125 
L 92.479432 288.430125 
L 92.479432 288.430125 
L 85.986341 288.430125 
z
" clip-path="url(#p0b76865652)" style="fill: #1f77b4"/>
   </g>
   <g id="patch_8">
    <path d="M 92.479432 288.430125 
L 98.972523 288.430125 
L 98.972523 274.784292 
L 92.479432 274.784292 
z
" clip-path="url(#p0b76865652)" style="fill: #1f77b4"/>
   </g>
   <g id="patch_9">
    <path d="M 98.972523 288.430125 
L 105.465614 288.430125 
L 105.465614 288.430125 
L 98.972523 288.430125 
z
" clip-path="url(#p0b76865652)" style="fill: #1f77b4"/>
   </g>
   <g id="patch_10">
    <path d="M 105.465614 288.430125 
L 111.958705 288.430125 
L 111.958705 288.430125 
L 105.465614 288.430125 
z
" clip-path="url(#p0b76865652)" style="fill: #1f77b4"/>
   </g>
   <g id="patch_11">
    <path d="M 111.958705 288.430125 
L 118.451795 288.430125 
L 118.451795 288.430125 
L 111.958705 288.430125 
z
" clip-path="url(#p0b76865652)" style="fill: #1f77b4"/>
   </g>
   <g id="patch_12">
    <path d="M 118.451795 288.430125 
L 124.944886 288.430125 
L 124.944886 288.430125 
L 118.451795 288.430125 
z
" clip-path="url(#p0b76865652)" style="fill: #1f77b4"/>
   </g>
   <g id="patch_13">
    <path d="M 124.944886 288.430125 
L 131.437977 288.430125 
L 131.437977 280.654647 
L 124.944886 280.654647 
z
" clip-path="url(#p0b76865652)" style="fill: #1f77b4"/>
   </g>
   <g id="patch_14">
    <path d="M 131.437977 288.430125 
L 137.931068 288.430125 
L 137.931068 288.430125 
L 131.437977 288.430125 
z
" clip-path="url(#p0b76865652)" style="fill: #1f77b4"/>
   </g>
   <g id="patch_15">
    <path d="M 137.931068 288.430125 
L 144.424159 288.430125 
L 144.424159 288.430125 
L 137.931068 288.430125 
z
" clip-path="url(#p0b76865652)" style="fill: #1f77b4"/>
   </g>
   <g id="patch_16">
    <path d="M 144.424159 288.430125 
L 150.91725 288.430125 
L 150.91725 288.430125 
L 144.424159 288.430125 
z
" clip-path="url(#p0b76865652)" style="fill: #1f77b4"/>
   </g>
   <g id="patch_17">
    <path d="M 150.91725 288.430125 
L 157.410341 288.430125 
L 157.410341 288.430125 
L 150.91725 288.430125 
z
" clip-path="url(#p0b76865652)" style="fill: #1f77b4"/>
   </g>
   <g id="patch_18">
    <path d="M 157.410341 288.430125 
L 163.903432 288.430125 
L 163.903432 283.381676 
L 157.410341 283.381676 
z
" clip-path="url(#p0b76865652)" style="fill: #1f77b4"/>
   </g>
   <g id="patch_19">
    <path d="M 163.903432 288.430125 
L 170.396523 288.430125 
L 170.396523 288.430125 
L 163.903432 288.430125 
z
" clip-path="url(#p0b76865652)" style="fill: #1f77b4"/>
   </g>
   <g id="patch_20">
    <path d="M 170.396523 288.430125 
L 176.889614 288.430125 
L 176.889614 288.430125 
L 170.396523 288.430125 
z
" clip-path="url(#p0b76865652)" style="fill: #1f77b4"/>
   </g>
   <g id="patch_21">
    <path d="M 176.889614 288.430125 
L 183.382705 288.430125 
L 183.382705 288.430125 
L 176.889614 288.430125 
z
" clip-path="url(#p0b76865652)" style="fill: #1f77b4"/>
   </g>
   <g id="patch_22">
    <path d="M 183.382705 288.430125 
L 189.875795 288.430125 
L 189.875795 288.430125 
L 183.382705 288.430125 
z
" clip-path="url(#p0b76865652)" style="fill: #1f77b4"/>
   </g>
   <g id="patch_23">
    <path d="M 189.875795 288.430125 
L 196.368886 288.430125 
L 196.368886 284.882304 
L 189.875795 284.882304 
z
" clip-path="url(#p0b76865652)" style="fill: #1f77b4"/>
   </g>
   <g id="patch_24">
    <path d="M 196.368886 288.430125 
L 202.861977 288.430125 
L 202.861977 288.430125 
L 196.368886 288.430125 
z
" clip-path="url(#p0b76865652)" style="fill: #1f77b4"/>
   </g>
   <g id="patch_25">
    <path d="M 202.861977 288.430125 
L 209.355068 288.430125 
L 209.355068 288.430125 
L 202.861977 288.430125 
z
" clip-path="url(#p0b76865652)" style="fill: #1f77b4"/>
   </g>
   <g id="patch_26">
    <path d="M 209.355068 288.430125 
L 215.848159 288.430125 
L 215.848159 288.430125 
L 209.355068 288.430125 
z
" clip-path="url(#p0b76865652)" style="fill: #1f77b4"/>
   </g>
   <g id="patch_27">
    <path d="M 215.848159 288.430125 
L 222.34125 288.430125 
L 222.34125 288.430125 
L 215.848159 288.430125 
z
" clip-path="url(#p0b76865652)" style="fill: #1f77b4"/>
   </g>
   <g id="patch_28">
    <path d="M 222.34125 288.430125 
L 228.834341 288.430125 
L 228.834341 285.503576 
L 222.34125 285.503576 
z
" clip-path="url(#p0b76865652)" style="fill: #1f77b4"/>
   </g>
   <g id="patch_29">
    <path d="M 228.834341 288.430125 
L 235.327432 288.430125 
L 235.327432 288.430125 
L 228.834341 288.430125 
z
" clip-path="url(#p0b76865652)" style="fill: #1f77b4"/>
   </g>
   <g id="patch_30">
    <path d="M 235.327432 288.430125 
L 241.820523 288.430125 
L 241.820523 288.430125 
L 235.327432 288.430125 
z
" clip-path="url(#p0b76865652)" style="fill: #1f77b4"/>
   </g>
   <g id="patch_31">
    <path d="M 241.820523 288.430125 
L 248.313614 288.430125 
L 248.313614 288.430125 
L 241.820523 288.430125 
z
" clip-path="url(#p0b76865652)" style="fill: #1f77b4"/>
   </g>
   <g id="patch_32">
    <path d="M 248.313614 288.430125 
L 254.806705 288.430125 
L 254.806705 288.430125 
L 248.313614 288.430125 
z
" clip-path="url(#p0b76865652)" style="fill: #1f77b4"/>
   </g>
   <g id="patch_33">
    <path d="M 254.806705 288.430125 
L 261.299795 288.430125 
L 261.299795 286.041901 
L 254.806705 286.041901 
z
" clip-path="url(#p0b76865652)" style="fill: #1f77b4"/>
   </g>
   <g id="patch_34">
    <path d="M 261.299795 288.430125 
L 267.792886 288.430125 
L 267.792886 288.430125 
L 261.299795 288.430125 
z
" clip-path="url(#p0b76865652)" style="fill: #1f77b4"/>
   </g>
   <g id="patch_35">
    <path d="M 267.792886 288.430125 
L 274.285977 288.430125 
L 274.285977 288.430125 
L 267.792886 288.430125 
z
" clip-path="url(#p0b76865652)" style="fill: #1f77b4"/>
   </g>
   <g id="patch_36">
    <path d="M 274.285977 288.430125 
L 280.779068 288.430125 
L 280.779068 288.430125 
L 274.285977 288.430125 
z
" clip-path="url(#p0b76865652)" style="fill: #1f77b4"/>
   </g>
   <g id="patch_37">
    <path d="M 280.779068 288.430125 
L 287.272159 288.430125 
L 287.272159 288.430125 
L 280.779068 288.430125 
z
" clip-path="url(#p0b76865652)" style="fill: #1f77b4"/>
   </g>
   <g id="patch_38">
    <path d="M 287.272159 288.430125 
L 293.76525 288.430125 
L 293.76525 286.444058 
L 287.272159 286.444058 
z
" clip-path="url(#p0b76865652)" style="fill: #1f77b4"/>
   </g>
   <g id="patch_39">
    <path d="M 293.76525 288.430125 
L 300.258341 288.430125 
L 300.258341 288.430125 
L 293.76525 288.430125 
z
" clip-path="url(#p0b76865652)" style="fill: #1f77b4"/>
   </g>
   <g id="patch_40">
    <path d="M 300.258341 288.430125 
L 306.751432 288.430125 
L 306.751432 288.430125 
L 300.258341 288.430125 
z
" clip-path="url(#p0b76865652)" style="fill: #1f77b4"/>
   </g>
   <g id="patch_41">
    <path d="M 306.751432 288.430125 
L 313.244523 288.430125 
L 313.244523 288.430125 
L 306.751432 288.430125 
z
" clip-path="url(#p0b76865652)" style="fill: #1f77b4"/>
   </g>
   <g id="patch_42">
    <path d="M 313.244523 288.430125 
L 319.737614 288.430125 
L 319.737614 288.430125 
L 313.244523 288.430125 
z
" clip-path="url(#p0b76865652)" style="fill: #1f77b4"/>
   </g>
   <g id="patch_43">
    <path d="M 319.737614 288.430125 
L 326.230705 288.430125 
L 326.230705 286.660167 
L 319.737614 286.660167 
z
" clip-path="url(#p0b76865652)" style="fill: #1f77b4"/>
   </g>
   <g id="patch_44">
    <path d="M 326.230705 288.430125 
L 332.723795 288.430125 
L 332.723795 288.430125 
L 326.230705 288.430125 
z
" clip-path="url(#p0b76865652)" style="fill: #1f77b4"/>
   </g>
   <g id="patch_45">
    <path d="M 332.723795 288.430125 
L 339.216886 288.430125 
L 339.216886 288.430125 
L 332.723795 288.430125 
z
" clip-path="url(#p0b76865652)" style="fill: #1f77b4"/>
   </g>
   <g id="patch_46">
    <path d="M 339.216886 288.430125 
L 345.709977 288.430125 
L 345.709977 288.430125 
L 339.216886 288.430125 
z
" clip-path="url(#p0b76865652)" style="fill: #1f77b4"/>
   </g>
   <g id="patch_47">
    <path d="M 345.709977 288.430125 
L 352.203068 288.430125 
L 352.203068 288.430125 
L 345.709977 288.430125 
z
" clip-path="url(#p0b76865652)" style="fill: #1f77b4"/>
   </g>
   <g id="patch_48">
    <path d="M 352.203068 288.430125 
L 358.696159 288.430125 
L 358.696159 286.885183 
L 352.203068 286.885183 
z
" clip-path="url(#p0b76865652)" style="fill: #1f77b4"/>
   </g>
   <g id="patch_49">
    <path d="M 358.696159 288.430125 
L 365.18925 288.430125 
L 365.18925 288.430125 
L 358.696159 288.430125 
z
" clip-path="url(#p0b76865652)" style="fill: #1f77b4"/>
   </g>
   <g id="patch_50">
    <path d="M 365.18925 288.430125 
L 371.682341 288.430125 
L 371.682341 288.430125 
L 365.18925 288.430125 
z
" clip-path="url(#p0b76865652)" style="fill: #1f77b4"/>
   </g>
   <g id="patch_51">
    <path d="M 371.682341 288.430125 
L 378.175432 288.430125 
L 378.175432 288.430125 
L 371.682341 288.430125 
z
" clip-path="url(#p0b76865652)" style="fill: #1f77b4"/>
   </g>
   <g id="patch_52">
    <path d="M 378.175432 288.430125 
L 384.668523 288.430125 
L 384.668523 285.754757 
L 378.175432 285.754757 
z
" clip-path="url(#p0b76865652)" style="fill: #1f77b4"/>
   </g>
   <g id="matplotlib.axis_1">
    <g id="xtick_1">
     <g id="line2d_1">
      <path d="M 60.013977 288.430125 
L 60.013977 22.318125 
" clip-path="url(#p0b76865652)" style="fill: none; stroke: #b0b0b0; stroke-width: 0.8; stroke-linecap: square"/>
     </g>
     <g id="line2d_2">
      <defs>
       <path id="m43eb8c10b2" d="M 0 0 
L 0 3.5 
" style="stroke: #000000; stroke-width: 0.8"/>
      </defs>
      <g>
       <use xlink:href="#m43eb8c10b2" x="60.013977" y="288.430125" style="stroke: #000000; stroke-width: 0.8"/>
      </g>
     </g>
     <g id="text_1">
      <!-- 0 -->
      <g transform="translate(56.832727 303.028562) scale(0.1 -0.1)">
       <defs>
        <path id="DejaVuSans-30" d="M 2034 4250 
Q 1547 4250 1301 3770 
Q 1056 3291 1056 2328 
Q 1056 1369 1301 889 
Q 1547 409 2034 409 
Q 2525 409 2770 889 
Q 3016 1369 3016 2328 
Q 3016 3291 2770 3770 
Q 2525 4250 2034 4250 
z
M 2034 4750 
Q 2819 4750 3233 4129 
Q 3647 3509 3647 2328 
Q 3647 1150 3233 529 
Q 2819 -91 2034 -91 
Q 1250 -91 836 529 
Q 422 1150 422 2328 
Q 422 3509 836 4129 
Q 1250 4750 2034 4750 
z
" transform="scale(0.015625)"/>
       </defs>
       <use xlink:href="#DejaVuSans-30"/>
      </g>
     </g>
    </g>
    <g id="xtick_2">
     <g id="line2d_3">
      <path d="M 124.944886 288.430125 
L 124.944886 22.318125 
" clip-path="url(#p0b76865652)" style="fill: none; stroke: #b0b0b0; stroke-width: 0.8; stroke-linecap: square"/>
     </g>
     <g id="line2d_4">
      <g>
       <use xlink:href="#m43eb8c10b2" x="124.944886" y="288.430125" style="stroke: #000000; stroke-width: 0.8"/>
      </g>
     </g>
     <g id="text_2">
      <!-- 2 -->
      <g transform="translate(121.763636 303.028562) scale(0.1 -0.1)">
       <defs>
        <path id="DejaVuSans-32" d="M 1228 531 
L 3431 531 
L 3431 0 
L 469 0 
L 469 531 
Q 828 903 1448 1529 
Q 2069 2156 2228 2338 
Q 2531 2678 2651 2914 
Q 2772 3150 2772 3378 
Q 2772 3750 2511 3984 
Q 2250 4219 1831 4219 
Q 1534 4219 1204 4116 
Q 875 4013 500 3803 
L 500 4441 
Q 881 4594 1212 4672 
Q 1544 4750 1819 4750 
Q 2544 4750 2975 4387 
Q 3406 4025 3406 3419 
Q 3406 3131 3298 2873 
Q 3191 2616 2906 2266 
Q 2828 2175 2409 1742 
Q 1991 1309 1228 531 
z
" transform="scale(0.015625)"/>
       </defs>
       <use xlink:href="#DejaVuSans-32"/>
      </g>
     </g>
    </g>
    <g id="xtick_3">
     <g id="line2d_5">
      <path d="M 189.875795 288.430125 
L 189.875795 22.318125 
" clip-path="url(#p0b76865652)" style="fill: none; stroke: #b0b0b0; stroke-width: 0.8; stroke-linecap: square"/>
     </g>
     <g id="line2d_6">
      <g>
       <use xlink:href="#m43eb8c10b2" x="189.875795" y="288.430125" style="stroke: #000000; stroke-width: 0.8"/>
      </g>
     </g>
     <g id="text_3">
      <!-- 4 -->
      <g transform="translate(186.694545 303.028562) scale(0.1 -0.1)">
       <defs>
        <path id="DejaVuSans-34" d="M 2419 4116 
L 825 1625 
L 2419 1625 
L 2419 4116 
z
M 2253 4666 
L 3047 4666 
L 3047 1625 
L 3713 1625 
L 3713 1100 
L 3047 1100 
L 3047 0 
L 2419 0 
L 2419 1100 
L 313 1100 
L 313 1709 
L 2253 4666 
z
" transform="scale(0.015625)"/>
       </defs>
       <use xlink:href="#DejaVuSans-34"/>
      </g>
     </g>
    </g>
    <g id="xtick_4">
     <g id="line2d_7">
      <path d="M 254.806705 288.430125 
L 254.806705 22.318125 
" clip-path="url(#p0b76865652)" style="fill: none; stroke: #b0b0b0; stroke-width: 0.8; stroke-linecap: square"/>
     </g>
     <g id="line2d_8">
      <g>
       <use xlink:href="#m43eb8c10b2" x="254.806705" y="288.430125" style="stroke: #000000; stroke-width: 0.8"/>
      </g>
     </g>
     <g id="text_4">
      <!-- 6 -->
      <g transform="translate(251.625455 303.028562) scale(0.1 -0.1)">
       <defs>
        <path id="DejaVuSans-36" d="M 2113 2584 
Q 1688 2584 1439 2293 
Q 1191 2003 1191 1497 
Q 1191 994 1439 701 
Q 1688 409 2113 409 
Q 2538 409 2786 701 
Q 3034 994 3034 1497 
Q 3034 2003 2786 2293 
Q 2538 2584 2113 2584 
z
M 3366 4563 
L 3366 3988 
Q 3128 4100 2886 4159 
Q 2644 4219 2406 4219 
Q 1781 4219 1451 3797 
Q 1122 3375 1075 2522 
Q 1259 2794 1537 2939 
Q 1816 3084 2150 3084 
Q 2853 3084 3261 2657 
Q 3669 2231 3669 1497 
Q 3669 778 3244 343 
Q 2819 -91 2113 -91 
Q 1303 -91 875 529 
Q 447 1150 447 2328 
Q 447 3434 972 4092 
Q 1497 4750 2381 4750 
Q 2619 4750 2861 4703 
Q 3103 4656 3366 4563 
z
" transform="scale(0.015625)"/>
       </defs>
       <use xlink:href="#DejaVuSans-36"/>
      </g>
     </g>
    </g>
    <g id="xtick_5">
     <g id="line2d_9">
      <path d="M 319.737614 288.430125 
L 319.737614 22.318125 
" clip-path="url(#p0b76865652)" style="fill: none; stroke: #b0b0b0; stroke-width: 0.8; stroke-linecap: square"/>
     </g>
     <g id="line2d_10">
      <g>
       <use xlink:href="#m43eb8c10b2" x="319.737614" y="288.430125" style="stroke: #000000; stroke-width: 0.8"/>
      </g>
     </g>
     <g id="text_5">
      <!-- 8 -->
      <g transform="translate(316.556364 303.028562) scale(0.1 -0.1)">
       <defs>
        <path id="DejaVuSans-38" d="M 2034 2216 
Q 1584 2216 1326 1975 
Q 1069 1734 1069 1313 
Q 1069 891 1326 650 
Q 1584 409 2034 409 
Q 2484 409 2743 651 
Q 3003 894 3003 1313 
Q 3003 1734 2745 1975 
Q 2488 2216 2034 2216 
z
M 1403 2484 
Q 997 2584 770 2862 
Q 544 3141 544 3541 
Q 544 4100 942 4425 
Q 1341 4750 2034 4750 
Q 2731 4750 3128 4425 
Q 3525 4100 3525 3541 
Q 3525 3141 3298 2862 
Q 3072 2584 2669 2484 
Q 3125 2378 3379 2068 
Q 3634 1759 3634 1313 
Q 3634 634 3220 271 
Q 2806 -91 2034 -91 
Q 1263 -91 848 271 
Q 434 634 434 1313 
Q 434 1759 690 2068 
Q 947 2378 1403 2484 
z
M 1172 3481 
Q 1172 3119 1398 2916 
Q 1625 2713 2034 2713 
Q 2441 2713 2670 2916 
Q 2900 3119 2900 3481 
Q 2900 3844 2670 4047 
Q 2441 4250 2034 4250 
Q 1625 4250 1398 4047 
Q 1172 3844 1172 3481 
z
" transform="scale(0.015625)"/>
       </defs>
       <use xlink:href="#DejaVuSans-38"/>
      </g>
     </g>
    </g>
    <g id="xtick_6">
     <g id="line2d_11">
      <path d="M 384.668523 288.430125 
L 384.668523 22.318125 
" clip-path="url(#p0b76865652)" style="fill: none; stroke: #b0b0b0; stroke-width: 0.8; stroke-linecap: square"/>
     </g>
     <g id="line2d_12">
      <g>
       <use xlink:href="#m43eb8c10b2" x="384.668523" y="288.430125" style="stroke: #000000; stroke-width: 0.8"/>
      </g>
     </g>
     <g id="text_6">
      <!-- 10 -->
      <g transform="translate(378.306023 303.028562) scale(0.1 -0.1)">
       <defs>
        <path id="DejaVuSans-31" d="M 794 531 
L 1825 531 
L 1825 4091 
L 703 3866 
L 703 4441 
L 1819 4666 
L 2450 4666 
L 2450 531 
L 3481 531 
L 3481 0 
L 794 0 
L 794 531 
z
" transform="scale(0.015625)"/>
       </defs>
       <use xlink:href="#DejaVuSans-31"/>
       <use xlink:href="#DejaVuSans-30" transform="translate(63.623047 0)"/>
      </g>
     </g>
    </g>
    <g id="text_7">
     <!-- Derived allele count -->
     <g transform="translate(172.09125 316.706687) scale(0.1 -0.1)">
      <defs>
       <path id="DejaVuSans-44" d="M 1259 4147 
L 1259 519 
L 2022 519 
Q 2988 519 3436 956 
Q 3884 1394 3884 2338 
Q 3884 3275 3436 3711 
Q 2988 4147 2022 4147 
L 1259 4147 
z
M 628 4666 
L 1925 4666 
Q 3281 4666 3915 4102 
Q 4550 3538 4550 2338 
Q 4550 1131 3912 565 
Q 3275 0 1925 0 
L 628 0 
L 628 4666 
z
" transform="scale(0.015625)"/>
       <path id="DejaVuSans-65" d="M 3597 1894 
L 3597 1613 
L 953 1613 
Q 991 1019 1311 708 
Q 1631 397 2203 397 
Q 2534 397 2845 478 
Q 3156 559 3463 722 
L 3463 178 
Q 3153 47 2828 -22 
Q 2503 -91 2169 -91 
Q 1331 -91 842 396 
Q 353 884 353 1716 
Q 353 2575 817 3079 
Q 1281 3584 2069 3584 
Q 2775 3584 3186 3129 
Q 3597 2675 3597 1894 
z
M 3022 2063 
Q 3016 2534 2758 2815 
Q 2500 3097 2075 3097 
Q 1594 3097 1305 2825 
Q 1016 2553 972 2059 
L 3022 2063 
z
" transform="scale(0.015625)"/>
       <path id="DejaVuSans-72" d="M 2631 2963 
Q 2534 3019 2420 3045 
Q 2306 3072 2169 3072 
Q 1681 3072 1420 2755 
Q 1159 2438 1159 1844 
L 1159 0 
L 581 0 
L 581 3500 
L 1159 3500 
L 1159 2956 
Q 1341 3275 1631 3429 
Q 1922 3584 2338 3584 
Q 2397 3584 2469 3576 
Q 2541 3569 2628 3553 
L 2631 2963 
z
" transform="scale(0.015625)"/>
       <path id="DejaVuSans-69" d="M 603 3500 
L 1178 3500 
L 1178 0 
L 603 0 
L 603 3500 
z
M 603 4863 
L 1178 4863 
L 1178 4134 
L 603 4134 
L 603 4863 
z
" transform="scale(0.015625)"/>
       <path id="DejaVuSans-76" d="M 191 3500 
L 800 3500 
L 1894 563 
L 2988 3500 
L 3597 3500 
L 2284 0 
L 1503 0 
L 191 3500 
z
" transform="scale(0.015625)"/>
       <path id="DejaVuSans-64" d="M 2906 2969 
L 2906 4863 
L 3481 4863 
L 3481 0 
L 2906 0 
L 2906 525 
Q 2725 213 2448 61 
Q 2172 -91 1784 -91 
Q 1150 -91 751 415 
Q 353 922 353 1747 
Q 353 2572 751 3078 
Q 1150 3584 1784 3584 
Q 2172 3584 2448 3432 
Q 2725 3281 2906 2969 
z
M 947 1747 
Q 947 1113 1208 752 
Q 1469 391 1925 391 
Q 2381 391 2643 752 
Q 2906 1113 2906 1747 
Q 2906 2381 2643 2742 
Q 2381 3103 1925 3103 
Q 1469 3103 1208 2742 
Q 947 2381 947 1747 
z
" transform="scale(0.015625)"/>
       <path id="DejaVuSans-20" transform="scale(0.015625)"/>
       <path id="DejaVuSans-61" d="M 2194 1759 
Q 1497 1759 1228 1600 
Q 959 1441 959 1056 
Q 959 750 1161 570 
Q 1363 391 1709 391 
Q 2188 391 2477 730 
Q 2766 1069 2766 1631 
L 2766 1759 
L 2194 1759 
z
M 3341 1997 
L 3341 0 
L 2766 0 
L 2766 531 
Q 2569 213 2275 61 
Q 1981 -91 1556 -91 
Q 1019 -91 701 211 
Q 384 513 384 1019 
Q 384 1609 779 1909 
Q 1175 2209 1959 2209 
L 2766 2209 
L 2766 2266 
Q 2766 2663 2505 2880 
Q 2244 3097 1772 3097 
Q 1472 3097 1187 3025 
Q 903 2953 641 2809 
L 641 3341 
Q 956 3463 1253 3523 
Q 1550 3584 1831 3584 
Q 2591 3584 2966 3190 
Q 3341 2797 3341 1997 
z
" transform="scale(0.015625)"/>
       <path id="DejaVuSans-6c" d="M 603 4863 
L 1178 4863 
L 1178 0 
L 603 0 
L 603 4863 
z
" transform="scale(0.015625)"/>
       <path id="DejaVuSans-63" d="M 3122 3366 
L 3122 2828 
Q 2878 2963 2633 3030 
Q 2388 3097 2138 3097 
Q 1578 3097 1268 2742 
Q 959 2388 959 1747 
Q 959 1106 1268 751 
Q 1578 397 2138 397 
Q 2388 397 2633 464 
Q 2878 531 3122 666 
L 3122 134 
Q 2881 22 2623 -34 
Q 2366 -91 2075 -91 
Q 1284 -91 818 406 
Q 353 903 353 1747 
Q 353 2603 823 3093 
Q 1294 3584 2113 3584 
Q 2378 3584 2631 3529 
Q 2884 3475 3122 3366 
z
" transform="scale(0.015625)"/>
       <path id="DejaVuSans-6f" d="M 1959 3097 
Q 1497 3097 1228 2736 
Q 959 2375 959 1747 
Q 959 1119 1226 758 
Q 1494 397 1959 397 
Q 2419 397 2687 759 
Q 2956 1122 2956 1747 
Q 2956 2369 2687 2733 
Q 2419 3097 1959 3097 
z
M 1959 3584 
Q 2709 3584 3137 3096 
Q 3566 2609 3566 1747 
Q 3566 888 3137 398 
Q 2709 -91 1959 -91 
Q 1206 -91 779 398 
Q 353 888 353 1747 
Q 353 2609 779 3096 
Q 1206 3584 1959 3584 
z
" transform="scale(0.015625)"/>
       <path id="DejaVuSans-75" d="M 544 1381 
L 544 3500 
L 1119 3500 
L 1119 1403 
Q 1119 906 1312 657 
Q 1506 409 1894 409 
Q 2359 409 2629 706 
Q 2900 1003 2900 1516 
L 2900 3500 
L 3475 3500 
L 3475 0 
L 2900 0 
L 2900 538 
Q 2691 219 2414 64 
Q 2138 -91 1772 -91 
Q 1169 -91 856 284 
Q 544 659 544 1381 
z
M 1991 3584 
L 1991 3584 
z
" transform="scale(0.015625)"/>
       <path id="DejaVuSans-6e" d="M 3513 2113 
L 3513 0 
L 2938 0 
L 2938 2094 
Q 2938 2591 2744 2837 
Q 2550 3084 2163 3084 
Q 1697 3084 1428 2787 
Q 1159 2491 1159 1978 
L 1159 0 
L 581 0 
L 581 3500 
L 1159 3500 
L 1159 2956 
Q 1366 3272 1645 3428 
Q 1925 3584 2291 3584 
Q 2894 3584 3203 3211 
Q 3513 2838 3513 2113 
z
" transform="scale(0.015625)"/>
       <path id="DejaVuSans-74" d="M 1172 4494 
L 1172 3500 
L 2356 3500 
L 2356 3053 
L 1172 3053 
L 1172 1153 
Q 1172 725 1289 603 
Q 1406 481 1766 481 
L 2356 481 
L 2356 0 
L 1766 0 
Q 1100 0 847 248 
Q 594 497 594 1153 
L 594 3053 
L 172 3053 
L 172 3500 
L 594 3500 
L 594 4494 
L 1172 4494 
z
" transform="scale(0.015625)"/>
      </defs>
      <use xlink:href="#DejaVuSans-44"/>
      <use xlink:href="#DejaVuSans-65" transform="translate(77.001953 0)"/>
      <use xlink:href="#DejaVuSans-72" transform="translate(138.525391 0)"/>
      <use xlink:href="#DejaVuSans-69" transform="translate(179.638672 0)"/>
      <use xlink:href="#DejaVuSans-76" transform="translate(207.421875 0)"/>
      <use xlink:href="#DejaVuSans-65" transform="translate(266.601562 0)"/>
      <use xlink:href="#DejaVuSans-64" transform="translate(328.125 0)"/>
      <use xlink:href="#DejaVuSans-20" transform="translate(391.601562 0)"/>
      <use xlink:href="#DejaVuSans-61" transform="translate(423.388672 0)"/>
      <use xlink:href="#DejaVuSans-6c" transform="translate(484.667969 0)"/>
      <use xlink:href="#DejaVuSans-6c" transform="translate(512.451172 0)"/>
      <use xlink:href="#DejaVuSans-65" transform="translate(540.234375 0)"/>
      <use xlink:href="#DejaVuSans-6c" transform="translate(601.757812 0)"/>
      <use xlink:href="#DejaVuSans-65" transform="translate(629.541016 0)"/>
      <use xlink:href="#DejaVuSans-20" transform="translate(691.064453 0)"/>
      <use xlink:href="#DejaVuSans-63" transform="translate(722.851562 0)"/>
      <use xlink:href="#DejaVuSans-6f" transform="translate(777.832031 0)"/>
      <use xlink:href="#DejaVuSans-75" transform="translate(839.013672 0)"/>
      <use xlink:href="#DejaVuSans-6e" transform="translate(902.392578 0)"/>
      <use xlink:href="#DejaVuSans-74" transform="translate(965.771484 0)"/>
     </g>
    </g>
   </g>
   <g id="matplotlib.axis_2">
    <g id="ytick_1">
     <g id="line2d_13">
      <path d="M 43.78125 288.430125 
L 400.90125 288.430125 
" clip-path="url(#p0b76865652)" style="fill: none; stroke: #b0b0b0; stroke-width: 0.8; stroke-linecap: square"/>
     </g>
     <g id="line2d_14">
      <defs>
       <path id="m145a6fda11" d="M 0 0 
L -3.5 0 
" style="stroke: #000000; stroke-width: 0.8"/>
      </defs>
      <g>
       <use xlink:href="#m145a6fda11" x="43.78125" y="288.430125" style="stroke: #000000; stroke-width: 0.8"/>
      </g>
     </g>
     <g id="text_8">
      <!-- 0.0 -->
      <g transform="translate(20.878125 292.229344) scale(0.1 -0.1)">
       <defs>
        <path id="DejaVuSans-2e" d="M 684 794 
L 1344 794 
L 1344 0 
L 684 0 
L 684 794 
z
" transform="scale(0.015625)"/>
       </defs>
       <use xlink:href="#DejaVuSans-30"/>
       <use xlink:href="#DejaVuSans-2e" transform="translate(63.623047 0)"/>
       <use xlink:href="#DejaVuSans-30" transform="translate(95.410156 0)"/>
      </g>
     </g>
    </g>
    <g id="ytick_2">
     <g id="line2d_15">
      <path d="M 43.78125 232.760568 
L 400.90125 232.760568 
" clip-path="url(#p0b76865652)" style="fill: none; stroke: #b0b0b0; stroke-width: 0.8; stroke-linecap: square"/>
     </g>
     <g id="line2d_16">
      <g>
       <use xlink:href="#m145a6fda11" x="43.78125" y="232.760568" style="stroke: #000000; stroke-width: 0.8"/>
      </g>
     </g>
     <g id="text_9">
      <!-- 0.5 -->
      <g transform="translate(20.878125 236.559787) scale(0.1 -0.1)">
       <defs>
        <path id="DejaVuSans-35" d="M 691 4666 
L 3169 4666 
L 3169 4134 
L 1269 4134 
L 1269 2991 
Q 1406 3038 1543 3061 
Q 1681 3084 1819 3084 
Q 2600 3084 3056 2656 
Q 3513 2228 3513 1497 
Q 3513 744 3044 326 
Q 2575 -91 1722 -91 
Q 1428 -91 1123 -41 
Q 819 9 494 109 
L 494 744 
Q 775 591 1075 516 
Q 1375 441 1709 441 
Q 2250 441 2565 725 
Q 2881 1009 2881 1497 
Q 2881 1984 2565 2268 
Q 2250 2553 1709 2553 
Q 1456 2553 1204 2497 
Q 953 2441 691 2322 
L 691 4666 
z
" transform="scale(0.015625)"/>
       </defs>
       <use xlink:href="#DejaVuSans-30"/>
       <use xlink:href="#DejaVuSans-2e" transform="translate(63.623047 0)"/>
       <use xlink:href="#DejaVuSans-35" transform="translate(95.410156 0)"/>
      </g>
     </g>
    </g>
    <g id="ytick_3">
     <g id="line2d_17">
      <path d="M 43.78125 177.091011 
L 400.90125 177.091011 
" clip-path="url(#p0b76865652)" style="fill: none; stroke: #b0b0b0; stroke-width: 0.8; stroke-linecap: square"/>
     </g>
     <g id="line2d_18">
      <g>
       <use xlink:href="#m145a6fda11" x="43.78125" y="177.091011" style="stroke: #000000; stroke-width: 0.8"/>
      </g>
     </g>
     <g id="text_10">
      <!-- 1.0 -->
      <g transform="translate(20.878125 180.89023) scale(0.1 -0.1)">
       <use xlink:href="#DejaVuSans-31"/>
       <use xlink:href="#DejaVuSans-2e" transform="translate(63.623047 0)"/>
       <use xlink:href="#DejaVuSans-30" transform="translate(95.410156 0)"/>
      </g>
     </g>
    </g>
    <g id="ytick_4">
     <g id="line2d_19">
      <path d="M 43.78125 121.421454 
L 400.90125 121.421454 
" clip-path="url(#p0b76865652)" style="fill: none; stroke: #b0b0b0; stroke-width: 0.8; stroke-linecap: square"/>
     </g>
     <g id="line2d_20">
      <g>
       <use xlink:href="#m145a6fda11" x="43.78125" y="121.421454" style="stroke: #000000; stroke-width: 0.8"/>
      </g>
     </g>
     <g id="text_11">
      <!-- 1.5 -->
      <g transform="translate(20.878125 125.220673) scale(0.1 -0.1)">
       <use xlink:href="#DejaVuSans-31"/>
       <use xlink:href="#DejaVuSans-2e" transform="translate(63.623047 0)"/>
       <use xlink:href="#DejaVuSans-35" transform="translate(95.410156 0)"/>
      </g>
     </g>
    </g>
    <g id="ytick_5">
     <g id="line2d_21">
      <path d="M 43.78125 65.751897 
L 400.90125 65.751897 
" clip-path="url(#p0b76865652)" style="fill: none; stroke: #b0b0b0; stroke-width: 0.8; stroke-linecap: square"/>
     </g>
     <g id="line2d_22">
      <g>
       <use xlink:href="#m145a6fda11" x="43.78125" y="65.751897" style="stroke: #000000; stroke-width: 0.8"/>
      </g>
     </g>
     <g id="text_12">
      <!-- 2.0 -->
      <g transform="translate(20.878125 69.551116) scale(0.1 -0.1)">
       <use xlink:href="#DejaVuSans-32"/>
       <use xlink:href="#DejaVuSans-2e" transform="translate(63.623047 0)"/>
       <use xlink:href="#DejaVuSans-30" transform="translate(95.410156 0)"/>
      </g>
     </g>
    </g>
    <g id="text_13">
     <!-- Antal varianter -->
     <g transform="translate(14.798438 192.7585) rotate(-90) scale(0.1 -0.1)">
      <defs>
       <path id="DejaVuSans-41" d="M 2188 4044 
L 1331 1722 
L 3047 1722 
L 2188 4044 
z
M 1831 4666 
L 2547 4666 
L 4325 0 
L 3669 0 
L 3244 1197 
L 1141 1197 
L 716 0 
L 50 0 
L 1831 4666 
z
" transform="scale(0.015625)"/>
      </defs>
      <use xlink:href="#DejaVuSans-41"/>
      <use xlink:href="#DejaVuSans-6e" transform="translate(68.408203 0)"/>
      <use xlink:href="#DejaVuSans-74" transform="translate(131.787109 0)"/>
      <use xlink:href="#DejaVuSans-61" transform="translate(170.996094 0)"/>
      <use xlink:href="#DejaVuSans-6c" transform="translate(232.275391 0)"/>
      <use xlink:href="#DejaVuSans-20" transform="translate(260.058594 0)"/>
      <use xlink:href="#DejaVuSans-76" transform="translate(291.845703 0)"/>
      <use xlink:href="#DejaVuSans-61" transform="translate(351.025391 0)"/>
      <use xlink:href="#DejaVuSans-72" transform="translate(412.304688 0)"/>
      <use xlink:href="#DejaVuSans-69" transform="translate(453.417969 0)"/>
      <use xlink:href="#DejaVuSans-61" transform="translate(481.201172 0)"/>
      <use xlink:href="#DejaVuSans-6e" transform="translate(542.480469 0)"/>
      <use xlink:href="#DejaVuSans-74" transform="translate(605.859375 0)"/>
      <use xlink:href="#DejaVuSans-65" transform="translate(645.068359 0)"/>
      <use xlink:href="#DejaVuSans-72" transform="translate(706.591797 0)"/>
     </g>
    </g>
    <g id="text_14">
     <!-- 1e6 -->
     <g transform="translate(43.78125 19.318125) scale(0.1 -0.1)">
      <use xlink:href="#DejaVuSans-31"/>
      <use xlink:href="#DejaVuSans-65" transform="translate(63.623047 0)"/>
      <use xlink:href="#DejaVuSans-36" transform="translate(125.146484 0)"/>
     </g>
    </g>
   </g>
   <g id="patch_53">
    <path d="M 43.78125 288.430125 
L 43.78125 22.318125 
" style="fill: none; stroke: #000000; stroke-width: 0.8; stroke-linejoin: miter; stroke-linecap: square"/>
   </g>
   <g id="patch_54">
    <path d="M 400.90125 288.430125 
L 400.90125 22.318125 
" style="fill: none; stroke: #000000; stroke-width: 0.8; stroke-linejoin: miter; stroke-linecap: square"/>
   </g>
   <g id="patch_55">
    <path d="M 43.78125 288.430125 
L 400.90125 288.430125 
" style="fill: none; stroke: #000000; stroke-width: 0.8; stroke-linejoin: miter; stroke-linecap: square"/>
   </g>
   <g id="patch_56">
    <path d="M 43.78125 22.318125 
L 400.90125 22.318125 
" style="fill: none; stroke: #000000; stroke-width: 0.8; stroke-linejoin: miter; stroke-linecap: square"/>
   </g>
   <g id="text_15">
    <!-- Fordeling af derived alleler -->
    <g transform="translate(141.904688 16.318125) scale(0.12 -0.12)">
     <defs>
      <path id="DejaVuSans-46" d="M 628 4666 
L 3309 4666 
L 3309 4134 
L 1259 4134 
L 1259 2759 
L 3109 2759 
L 3109 2228 
L 1259 2228 
L 1259 0 
L 628 0 
L 628 4666 
z
" transform="scale(0.015625)"/>
      <path id="DejaVuSans-67" d="M 2906 1791 
Q 2906 2416 2648 2759 
Q 2391 3103 1925 3103 
Q 1463 3103 1205 2759 
Q 947 2416 947 1791 
Q 947 1169 1205 825 
Q 1463 481 1925 481 
Q 2391 481 2648 825 
Q 2906 1169 2906 1791 
z
M 3481 434 
Q 3481 -459 3084 -895 
Q 2688 -1331 1869 -1331 
Q 1566 -1331 1297 -1286 
Q 1028 -1241 775 -1147 
L 775 -588 
Q 1028 -725 1275 -790 
Q 1522 -856 1778 -856 
Q 2344 -856 2625 -561 
Q 2906 -266 2906 331 
L 2906 616 
Q 2728 306 2450 153 
Q 2172 0 1784 0 
Q 1141 0 747 490 
Q 353 981 353 1791 
Q 353 2603 747 3093 
Q 1141 3584 1784 3584 
Q 2172 3584 2450 3431 
Q 2728 3278 2906 2969 
L 2906 3500 
L 3481 3500 
L 3481 434 
z
" transform="scale(0.015625)"/>
      <path id="DejaVuSans-66" d="M 2375 4863 
L 2375 4384 
L 1825 4384 
Q 1516 4384 1395 4259 
Q 1275 4134 1275 3809 
L 1275 3500 
L 2222 3500 
L 2222 3053 
L 1275 3053 
L 1275 0 
L 697 0 
L 697 3053 
L 147 3053 
L 147 3500 
L 697 3500 
L 697 3744 
Q 697 4328 969 4595 
Q 1241 4863 1831 4863 
L 2375 4863 
z
" transform="scale(0.015625)"/>
     </defs>
     <use xlink:href="#DejaVuSans-46"/>
     <use xlink:href="#DejaVuSans-6f" transform="translate(53.894531 0)"/>
     <use xlink:href="#DejaVuSans-72" transform="translate(115.076172 0)"/>
     <use xlink:href="#DejaVuSans-64" transform="translate(154.439453 0)"/>
     <use xlink:href="#DejaVuSans-65" transform="translate(217.916016 0)"/>
     <use xlink:href="#DejaVuSans-6c" transform="translate(279.439453 0)"/>
     <use xlink:href="#DejaVuSans-69" transform="translate(307.222656 0)"/>
     <use xlink:href="#DejaVuSans-6e" transform="translate(335.005859 0)"/>
     <use xlink:href="#DejaVuSans-67" transform="translate(398.384766 0)"/>
     <use xlink:href="#DejaVuSans-20" transform="translate(461.861328 0)"/>
     <use xlink:href="#DejaVuSans-61" transform="translate(493.648438 0)"/>
     <use xlink:href="#DejaVuSans-66" transform="translate(554.927734 0)"/>
     <use xlink:href="#DejaVuSans-20" transform="translate(590.132812 0)"/>
     <use xlink:href="#DejaVuSans-64" transform="translate(621.919922 0)"/>
     <use xlink:href="#DejaVuSans-65" transform="translate(685.396484 0)"/>
     <use xlink:href="#DejaVuSans-72" transform="translate(746.919922 0)"/>
     <use xlink:href="#DejaVuSans-69" transform="translate(788.033203 0)"/>
     <use xlink:href="#DejaVuSans-76" transform="translate(815.816406 0)"/>
     <use xlink:href="#DejaVuSans-65" transform="translate(874.996094 0)"/>
     <use xlink:href="#DejaVuSans-64" transform="translate(936.519531 0)"/>
     <use xlink:href="#DejaVuSans-20" transform="translate(999.996094 0)"/>
     <use xlink:href="#DejaVuSans-61" transform="translate(1031.783203 0)"/>
     <use xlink:href="#DejaVuSans-6c" transform="translate(1093.0625 0)"/>
     <use xlink:href="#DejaVuSans-6c" transform="translate(1120.845703 0)"/>
     <use xlink:href="#DejaVuSans-65" transform="translate(1148.628906 0)"/>
     <use xlink:href="#DejaVuSans-6c" transform="translate(1210.152344 0)"/>
     <use xlink:href="#DejaVuSans-65" transform="translate(1237.935547 0)"/>
     <use xlink:href="#DejaVuSans-72" transform="translate(1299.458984 0)"/>
    </g>
   </g>
  </g>
 </g>
 <defs>
  <clipPath id="p0b76865652">
   <rect x="43.78125" y="22.318125" width="357.12" height="266.112"/>
  </clipPath>
 </defs>
</svg>
