<?xml version="1.0" encoding="utf-8" standalone="no"?>
<!DOCTYPE svg PUBLIC "-//W3C//DTD SVG 1.1//EN"
  "http://www.w3.org/Graphics/SVG/1.1/DTD/svg11.dtd">
<svg xmlns:xlink="http://www.w3.org/1999/xlink" width="496.343125pt" height="208.474375pt" viewBox="0 0 496.343125 208.474375" xmlns="http://www.w3.org/2000/svg" version="1.1">
 <metadata>
  <rdf:RDF xmlns:dc="http://purl.org/dc/elements/1.1/" xmlns:cc="http://creativecommons.org/ns#" xmlns:rdf="http://www.w3.org/1999/02/22-rdf-syntax-ns#">
   <cc:Work>
    <dc:type rdf:resource="http://purl.org/dc/dcmitype/StillImage"/>
    <dc:date>2026-05-08T15:02:37.117026</dc:date>
    <dc:format>image/svg+xml</dc:format>
    <dc:creator>
     <cc:Agent>
      <dc:title>Matplotlib v3.10.8, https://matplotlib.org/</dc:title>
     </cc:Agent>
    </dc:creator>
   </cc:Work>
  </rdf:RDF>
 </metadata>
 <defs>
  <style type="text/css">*{stroke-linejoin: round; stroke-linecap: butt}</style>
 </defs>
 <g id="figure_1">
  <g id="patch_1">
   <path d="M 0 208.474375 
L 496.343125 208.474375 
L 496.343125 0 
L 0 0 
z
" style="fill: #ffffff"/>
  </g>
  <g id="axes_1">
   <g id="patch_2">
    <path d="M 40.603125 170.918125 
L 489.143125 170.918125 
L 489.143125 22.318125 
L 40.603125 22.318125 
z
" style="fill: #ffffff"/>
   </g>
   <g id="FillBetweenPolyCollection_1">
    <defs>
     <path id="md9bbd47fa3" d="M 60.991307 -49.552903 
L 60.991307 -44.310795 
L 60.991307 -84.623959 
L 62.350519 -79.897635 
L 63.709731 -75.155403 
L 65.068943 -70.189364 
L 66.428155 -65.869123 
L 67.787367 -62.431039 
L 69.14658 -61.207634 
L 70.505792 -61.284994 
L 71.865004 -61.765264 
L 73.224216 -62.15097 
L 74.583428 -60.202508 
L 75.94264 -60.785095 
L 77.301852 -61.263625 
L 78.661064 -61.646748 
L 80.020277 -61.964251 
L 81.379489 -62.228363 
L 82.738701 -62.452634 
L 84.097913 -62.647885 
L 85.457125 -62.821799 
L 86.816337 -62.980132 
L 88.175549 -63.128016 
L 89.534761 -63.270545 
L 90.893973 -63.413872 
L 92.253186 -63.567473 
L 93.612398 -63.749593 
L 94.97161 -63.940132 
L 96.330822 -63.802097 
L 97.690034 -63.803264 
L 99.049246 -63.942456 
L 100.408458 -63.889304 
L 101.76767 -63.493782 
L 103.126883 -63.650051 
L 104.486095 -63.767374 
L 105.845307 -63.881326 
L 107.204519 -63.918904 
L 108.563731 -63.583445 
L 109.922943 -63.725225 
L 111.282155 -63.906243 
L 112.641367 -63.556277 
L 114.00058 -63.67936 
L 115.359792 -63.805622 
L 116.719004 -63.890717 
L 118.078216 -63.68144 
L 119.437428 -63.789801 
L 120.79664 -63.919846 
L 122.155852 -63.259435 
L 123.515064 -63.406327 
L 124.874277 -63.531694 
L 126.233489 -63.646112 
L 127.592701 -63.762537 
L 128.951913 -63.913234 
L 130.311125 -63.398899 
L 131.670337 -63.520258 
L 133.029549 -63.629523 
L 134.388761 -63.736863 
L 135.747973 -63.863716 
L 137.107186 -63.576471 
L 138.466398 -63.679941 
L 139.82561 -63.765005 
L 141.184822 -63.562515 
L 142.544034 -63.664418 
L 143.903246 -63.758953 
L 145.262458 -63.85958 
L 146.62167 -63.918552 
L 147.980883 -63.679348 
L 149.340095 -63.775952 
L 150.699307 -63.898194 
L 152.058519 -63.757429 
L 153.417731 -63.837625 
L 154.776943 -63.941384 
L 156.136155 -62.372901 
L 157.495367 -62.596694 
L 158.85458 -62.77821 
L 160.213792 -62.927809 
L 161.573004 -63.052484 
L 162.932216 -63.158593 
L 164.291428 -63.250444 
L 165.65064 -63.330794 
L 167.009852 -63.401646 
L 168.369064 -63.4641 
L 169.728277 -63.519237 
L 171.087489 -63.554141 
L 172.446701 -63.562347 
L 173.805913 -63.570325 
L 175.165125 -63.57797 
L 176.524337 -63.587089 
L 177.883549 -63.412299 
L 179.242761 -63.49234 
L 180.601973 -63.565977 
L 181.961186 -63.636432 
L 183.320398 -63.707313 
L 184.67961 -63.784886 
L 186.038822 -63.884516 
L 187.398034 -63.829049 
L 188.757246 -63.909928 
L 190.116458 -63.764574 
L 191.47567 -63.855065 
L 192.834883 -63.890113 
L 194.194095 -63.834088 
L 195.553307 -63.908182 
L 196.912519 -63.602633 
L 198.271731 -63.665055 
L 199.630943 -63.727352 
L 200.990155 -63.75935 
L 202.349367 -63.474359 
L 203.70858 -63.536627 
L 205.067792 -63.594983 
L 206.427004 -63.650661 
L 207.786216 -63.705108 
L 209.145428 -63.759872 
L 210.50464 -63.818896 
L 211.863852 -63.896915 
L 213.223064 -63.601704 
L 214.582277 -63.639556 
L 215.941489 -63.683752 
L 217.300701 -63.707122 
L 218.659913 -63.186075 
L 220.019125 -63.241425 
L 221.378337 -63.29361 
L 222.737549 -63.343699 
L 224.096761 -63.391635 
L 225.455973 -63.43816 
L 226.815186 -63.483924 
L 228.174398 -63.529941 
L 229.53361 -63.57636 
L 230.892822 -63.624418 
L 232.252034 -63.676455 
L 233.611246 -63.734179 
L 234.970458 -63.802647 
L 236.32967 -63.887765 
L 237.688883 -63.889421 
L 239.048095 -63.600156 
L 240.407307 -63.640017 
L 241.766519 -63.677243 
L 243.125731 -63.705647 
L 244.484943 -63.720016 
L 245.844155 -63.460234 
L 247.203367 -63.512767 
L 248.56258 -63.564696 
L 249.921792 -63.617342 
L 251.281004 -63.672523 
L 252.640216 -63.733115 
L 253.999428 -63.805014 
L 255.35864 -63.901489 
L 256.717852 -63.936342 
L 258.077064 -63.452905 
L 259.436277 -63.483586 
L 260.795489 -63.510995 
L 262.154701 -63.535676 
L 263.513913 -63.559852 
L 264.873125 -63.585171 
L 266.232337 -63.613311 
L 267.591549 -63.641538 
L 268.950761 -63.669124 
L 270.309973 -63.694276 
L 271.669186 -63.705715 
L 273.028398 -63.6899 
L 274.38761 -63.720303 
L 275.746822 -63.754601 
L 277.106034 -63.790538 
L 278.465246 -63.816619 
L 279.824458 -63.818371 
L 281.18367 -63.900768 
L 282.542883 -63.906213 
L 283.902095 -63.907615 
L 285.261307 -63.890875 
L 286.620519 -63.854558 
L 287.979731 -63.923194 
L 289.338943 -63.725535 
L 290.698155 -63.776727 
L 292.057367 -63.838272 
L 293.41658 -63.932958 
L 294.775792 -63.534811 
L 296.135004 -63.576271 
L 297.494216 -63.617859 
L 298.853428 -63.659246 
L 300.21264 -63.701226 
L 301.571852 -63.740506 
L 302.931064 -63.762213 
L 304.290277 -63.804674 
L 305.649489 -63.855204 
L 307.008701 -63.922597 
L 308.367913 -63.852427 
L 309.727125 -63.908449 
L 311.086337 -63.825323 
L 312.445549 -63.889953 
L 313.804761 -63.914308 
L 315.163973 -63.811206 
L 316.523186 -63.900153 
L 317.882398 -63.833944 
L 319.24161 -63.927399 
L 320.600822 -63.38203 
L 321.960034 -63.438762 
L 323.319246 -63.491459 
L 324.678458 -63.541815 
L 326.03767 -63.591764 
L 327.396883 -63.643214 
L 328.756095 -63.698215 
L 330.115307 -63.760109 
L 331.474519 -63.836431 
L 332.833731 -63.914548 
L 334.192943 -63.293781 
L 335.552155 -63.346453 
L 336.911367 -63.394961 
L 338.27058 -63.440233 
L 339.629792 -63.481689 
L 340.989004 -63.519212 
L 342.348216 -63.552746 
L 343.707428 -63.585584 
L 345.06664 -63.606765 
L 346.425852 -63.623024 
L 347.785064 -63.643866 
L 349.144277 -63.663559 
L 350.503489 -63.673157 
L 351.862701 -63.68065 
L 353.221913 -63.71612 
L 354.581125 -63.721996 
L 355.940337 -63.789049 
L 357.299549 -63.869116 
L 358.658761 -63.883879 
L 360.017973 -63.647503 
L 361.377186 -63.693167 
L 362.736398 -63.739496 
L 364.09561 -63.788854 
L 365.454822 -63.852709 
L 366.814034 -63.903896 
L 368.173246 -63.624225 
L 369.532458 -63.669958 
L 370.89167 -63.715511 
L 372.250883 -63.763518 
L 373.610095 -63.832659 
L 374.969307 -63.803865 
L 376.328519 -63.752581 
L 377.687731 -63.813659 
L 379.046943 -63.881444 
L 380.406155 -63.717985 
L 381.765367 -63.778024 
L 383.12458 -63.841098 
L 384.483792 -63.896681 
L 385.843004 -63.932229 
L 387.202216 -63.779388 
L 388.561428 -63.790627 
L 389.92064 -63.856487 
L 391.279852 -63.75494 
L 392.639064 -63.805117 
L 393.998277 -63.846872 
L 395.357489 -63.910655 
L 396.716701 -63.642844 
L 398.075913 -63.697372 
L 399.435125 -63.753316 
L 400.794337 -63.803558 
L 402.153549 -63.833647 
L 403.512761 -63.884677 
L 404.871973 -63.884521 
L 406.231186 -63.89931 
L 407.590398 -63.825777 
L 408.94961 -63.913688 
L 410.308822 -63.814767 
L 411.668034 -63.865516 
L 413.027246 -63.93714 
L 414.386458 -62.644845 
L 415.74567 -62.763182 
L 417.104883 -62.865758 
L 418.464095 -62.955231 
L 419.823307 -63.033859 
L 421.182519 -63.103566 
L 422.541731 -63.165963 
L 423.900943 -63.222349 
L 425.260155 -63.275506 
L 426.619367 -63.324927 
L 427.97858 -63.370886 
L 429.337792 -63.413346 
L 430.697004 -63.451561 
L 432.056216 -63.483647 
L 433.415428 -63.506631 
L 434.77464 -63.522915 
L 436.133852 -63.546332 
L 437.493064 -63.563067 
L 438.852277 -63.574107 
L 440.211489 -48.405348 
L 441.570701 -49.303611 
L 442.929913 -50.04165 
L 444.289125 -50.656744 
L 445.648337 -51.212307 
L 447.007549 -51.717858 
L 448.366761 -52.18093 
L 449.725973 -52.607562 
L 451.085186 -53.002632 
L 452.444398 -53.361302 
L 453.80361 -53.684488 
L 455.162822 -53.979557 
L 456.522034 -54.252055 
L 457.881246 -54.506151 
L 459.240458 -54.744978 
L 460.59967 -54.970891 
L 461.958883 -55.18567 
L 463.318095 -55.390672 
L 464.677307 -55.586944 
L 466.036519 -55.775312 
L 467.395731 -55.956442 
L 468.754943 -55.956442 
L 468.754943 -75.156837 
L 468.754943 -75.156837 
L 467.395731 -75.156837 
L 466.036519 -75.246581 
L 464.677307 -75.336906 
L 463.318095 -75.427898 
L 461.958883 -75.519681 
L 460.59967 -75.612437 
L 459.240458 -75.706417 
L 457.881246 -75.801956 
L 456.522034 -75.899487 
L 455.162822 -75.999548 
L 453.80361 -76.102784 
L 452.444398 -76.209942 
L 451.085186 -76.321848 
L 449.725973 -76.436768 
L 448.366761 -76.55156 
L 447.007549 -76.666199 
L 445.648337 -76.780689 
L 444.289125 -76.895066 
L 442.929913 -77.009413 
L 441.570701 -77.131529 
L 440.211489 -77.261545 
L 438.852277 -63.966429 
L 437.493064 -64.036072 
L 436.133852 -64.009261 
L 434.77464 -64.024088 
L 433.415428 -64.078579 
L 432.056216 -64.124593 
L 430.697004 -64.16789 
L 429.337792 -64.210684 
L 427.97858 -64.25416 
L 426.619367 -64.299257 
L 425.260155 -64.346948 
L 423.900943 -64.398218 
L 422.541731 -64.453991 
L 421.182519 -64.515567 
L 419.823307 -64.583745 
L 418.464095 -64.659144 
L 417.104883 -64.742221 
L 415.74567 -64.833291 
L 414.386458 -64.932543 
L 413.027246 -63.94553 
L 411.668034 -64.005287 
L 410.308822 -64.049454 
L 408.94961 -63.97156 
L 407.590398 -64.029353 
L 406.231186 -63.976119 
L 404.871973 -63.989863 
L 403.512761 -63.975575 
L 402.153549 -64.019834 
L 400.794337 -64.072383 
L 399.435125 -64.154016 
L 398.075913 -64.222326 
L 396.716701 -64.281513 
L 395.357489 -64.001017 
L 393.998277 -64.079268 
L 392.639064 -64.021369 
L 391.279852 -64.08627 
L 389.92064 -64.001031 
L 388.561428 -64.082348 
L 387.202216 -64.050255 
L 385.843004 -64.089084 
L 384.483792 -64.149164 
L 383.12458 -64.204105 
L 381.765367 -64.254687 
L 380.406155 -64.302954 
L 379.046943 -64.306314 
L 377.687731 -64.319706 
L 376.328519 -64.334309 
L 374.969307 -64.344476 
L 373.610095 -64.354915 
L 372.250883 -64.369391 
L 370.89167 -64.384535 
L 369.532458 -64.400361 
L 368.173246 -64.42049 
L 366.814034 -64.015808 
L 365.454822 -63.965536 
L 364.09561 -63.996155 
L 362.736398 -64.069823 
L 361.377186 -64.153732 
L 360.017973 -64.219437 
L 358.658761 -64.222965 
L 357.299549 -64.226632 
L 355.940337 -64.249572 
L 354.581125 -64.285085 
L 353.221913 -64.289449 
L 351.862701 -64.300341 
L 350.503489 -64.304901 
L 349.144277 -64.309519 
L 347.785064 -64.314197 
L 346.425852 -64.318934 
L 345.06664 -64.323733 
L 343.707428 -64.33685 
L 342.348216 -64.36741 
L 340.989004 -64.400361 
L 339.629792 -64.438343 
L 338.27058 -64.479863 
L 336.911367 -64.523988 
L 335.552155 -64.57017 
L 334.192943 -64.618868 
L 332.833731 -63.969589 
L 331.474519 -64.024528 
L 330.115307 -64.11201 
L 328.756095 -64.182937 
L 327.396883 -64.245263 
L 326.03767 -64.303284 
L 324.678458 -64.359566 
L 323.319246 -64.415902 
L 321.960034 -64.473726 
L 320.600822 -64.534241 
L 319.24161 -64.541779 
L 317.882398 -64.549415 
L 316.523186 -64.557149 
L 315.163973 -64.564984 
L 313.804761 -64.572921 
L 312.445549 -64.580961 
L 311.086337 -64.589105 
L 309.727125 -64.597356 
L 308.367913 -64.605714 
L 307.008701 -64.614182 
L 305.649489 -64.62276 
L 304.290277 -64.631451 
L 302.931064 -64.640256 
L 301.571852 -64.649177 
L 300.21264 -64.658255 
L 298.853428 -64.668315 
L 297.494216 -64.68132 
L 296.135004 -64.700789 
L 294.775792 -64.726954 
L 293.41658 -64.736995 
L 292.057367 -64.747169 
L 290.698155 -64.757487 
L 289.338943 -64.768874 
L 287.979731 -64.779473 
L 286.620519 -64.790218 
L 285.261307 -64.801105 
L 283.902095 -64.81214 
L 282.542883 -64.823347 
L 281.18367 -64.83483 
L 279.824458 -64.847048 
L 278.465246 -64.858706 
L 277.106034 -64.870532 
L 275.746822 -64.883578 
L 274.38761 -64.899316 
L 273.028398 -64.917821 
L 271.669186 -64.617073 
L 270.309973 -64.629411 
L 268.950761 -64.645819 
L 267.591549 -64.662583 
L 266.232337 -64.679525 
L 264.873125 -64.69681 
L 263.513913 -64.714042 
L 262.154701 -64.731275 
L 260.795489 -64.748771 
L 259.436277 -64.767871 
L 258.077064 -64.78996 
L 256.717852 -64.801227 
L 255.35864 -64.812664 
L 253.999428 -64.824131 
L 252.640216 -64.835467 
L 251.281004 -64.8472 
L 249.921792 -64.86054 
L 248.56258 -64.877429 
L 247.203367 -64.900392 
L 245.844155 -64.931275 
L 244.484943 -64.94464 
L 243.125731 -64.958219 
L 241.766519 -64.971931 
L 240.407307 -64.985689 
L 239.048095 -64.999941 
L 237.688883 -65.014417 
L 236.32967 -65.029132 
L 234.970458 -65.044093 
L 233.611246 -65.059287 
L 232.252034 -65.074605 
L 230.892822 -65.090378 
L 229.53361 -65.107039 
L 228.174398 -65.125231 
L 226.815186 -65.145766 
L 225.455973 -65.168743 
L 224.096761 -65.194929 
L 222.737549 -65.224866 
L 221.378337 -65.259272 
L 220.019125 -65.29737 
L 218.659913 -65.340211 
L 217.300701 -65.36029 
L 215.941489 -65.380749 
L 214.582277 -65.401597 
L 213.223064 -65.422831 
L 211.863852 -65.444495 
L 210.50464 -65.466585 
L 209.145428 -65.489112 
L 207.786216 -65.512074 
L 206.427004 -65.535564 
L 205.067792 -65.559992 
L 203.70858 -65.58611 
L 202.349367 -65.614758 
L 200.990155 -65.640326 
L 199.630943 -65.666447 
L 198.271731 -65.69314 
L 196.912519 -65.720418 
L 195.553307 -65.748316 
L 194.194095 -65.776848 
L 192.834883 -65.806037 
L 191.47567 -65.835908 
L 190.116458 -65.866485 
L 188.757246 -65.897795 
L 187.398034 -65.929865 
L 186.038822 -65.962724 
L 184.67961 -65.996403 
L 183.320398 -66.030932 
L 181.961186 -66.066573 
L 180.601973 -66.104507 
L 179.242761 -66.14693 
L 177.883549 -66.195786 
L 176.524337 -66.235382 
L 175.165125 -66.276064 
L 173.805913 -66.317876 
L 172.446701 -66.360867 
L 171.087489 -66.405086 
L 169.728277 -66.450587 
L 168.369064 -66.497428 
L 167.009852 -66.545713 
L 165.65064 -66.596019 
L 164.291428 -66.650483 
L 162.932216 -66.712625 
L 161.573004 -66.784159 
L 160.213792 -66.864547 
L 158.85458 -66.961217 
L 157.495367 -67.084745 
L 156.136155 -67.252207 
L 154.776943 -67.320859 
L 153.417731 -67.391828 
L 152.058519 -67.465223 
L 150.699307 -67.541161 
L 149.340095 -67.619766 
L 147.980883 -67.701169 
L 146.62167 -67.785505 
L 145.262458 -67.872921 
L 143.903246 -67.963571 
L 142.544034 -68.057647 
L 141.184822 -68.156557 
L 139.82561 -68.257945 
L 138.466398 -68.363276 
L 137.107186 -68.472753 
L 135.747973 -68.58659 
L 134.388761 -68.705016 
L 133.029549 -68.828273 
L 131.670337 -68.957109 
L 130.311125 -69.097646 
L 128.951913 -69.237131 
L 127.592701 -69.382562 
L 126.233489 -69.534258 
L 124.874277 -69.692581 
L 123.515064 -69.858966 
L 122.155852 -70.040578 
L 120.79664 -70.221137 
L 119.437428 -70.409864 
L 118.078216 -70.607211 
L 116.719004 -70.81364 
L 115.359792 -71.029655 
L 114.00058 -71.255784 
L 112.641367 -71.492774 
L 111.282155 -71.740832 
L 109.922943 -72.000764 
L 108.563731 -72.273223 
L 107.204519 -72.558895 
L 105.845307 -72.858506 
L 104.486095 -73.172815 
L 103.126883 -73.502703 
L 101.76767 -73.852688 
L 100.408458 -74.216152 
L 99.049246 -74.597771 
L 97.690034 -74.998516 
L 96.330822 -75.419407 
L 94.97161 -75.861512 
L 93.612398 -76.325947 
L 92.253186 -76.813882 
L 90.893973 -77.326536 
L 89.534761 -77.865196 
L 88.175549 -78.431388 
L 86.816337 -79.02763 
L 85.457125 -79.659164 
L 84.097913 -80.336454 
L 82.738701 -81.077575 
L 81.379489 -81.908032 
L 80.020277 -82.865946 
L 78.661064 -83.999288 
L 77.301852 -85.340683 
L 75.94264 -86.894221 
L 74.583428 -88.704172 
L 73.224216 -93.275821 
L 71.865004 -96.015799 
L 70.505792 -99.944429 
L 69.14658 -105.482527 
L 67.787367 -112.35225 
L 66.428155 -120.998167 
L 65.068943 -131.464875 
L 63.709731 -144.967108 
L 62.350519 -161.022427 
L 60.991307 -179.401705 
L 60.991307 -49.552903 
z
" style="stroke: #1f77b4; stroke-opacity: 0.2"/>
    </defs>
    <g clip-path="url(#p273bf22de9)">
     <use xlink:href="#md9bbd47fa3" x="0" y="208.474375" style="fill: #1f77b4; fill-opacity: 0.2; stroke: #1f77b4; stroke-opacity: 0.2"/>
    </g>
   </g>
   <g id="matplotlib.axis_1">
    <g id="xtick_1">
     <g id="line2d_1">
      <path d="M 60.991307 170.918125 
L 60.991307 22.318125 
" clip-path="url(#p273bf22de9)" style="fill: none; stroke: #b0b0b0; stroke-opacity: 0.3; stroke-width: 0.8; stroke-linecap: square"/>
     </g>
     <g id="line2d_2">
      <defs>
       <path id="ma0e9378475" d="M 0 0 
L 0 3.5 
" style="stroke: #000000; stroke-width: 0.8"/>
      </defs>
      <g>
       <use xlink:href="#ma0e9378475" x="60.991307" y="170.918125" style="stroke: #000000; stroke-width: 0.8"/>
      </g>
     </g>
     <g id="text_1">
      <!-- 0 -->
      <g transform="translate(57.810057 185.516562) scale(0.1 -0.1)">
       <defs>
        <path id="DejaVuSans-30" d="M 2034 4250 
Q 1547 4250 1301 3770 
Q 1056 3291 1056 2328 
Q 1056 1369 1301 889 
Q 1547 409 2034 409 
Q 2525 409 2770 889 
Q 3016 1369 3016 2328 
Q 3016 3291 2770 3770 
Q 2525 4250 2034 4250 
z
M 2034 4750 
Q 2819 4750 3233 4129 
Q 3647 3509 3647 2328 
Q 3647 1150 3233 529 
Q 2819 -91 2034 -91 
Q 1250 -91 836 529 
Q 422 1150 422 2328 
Q 422 3509 836 4129 
Q 1250 4750 2034 4750 
z
" transform="scale(0.015625)"/>
       </defs>
       <use xlink:href="#DejaVuSans-30"/>
      </g>
     </g>
    </g>
    <g id="xtick_2">
     <g id="line2d_3">
      <path d="M 128.951913 170.918125 
L 128.951913 22.318125 
" clip-path="url(#p273bf22de9)" style="fill: none; stroke: #b0b0b0; stroke-opacity: 0.3; stroke-width: 0.8; stroke-linecap: square"/>
     </g>
     <g id="line2d_4">
      <g>
       <use xlink:href="#ma0e9378475" x="128.951913" y="170.918125" style="stroke: #000000; stroke-width: 0.8"/>
      </g>
     </g>
     <g id="text_2">
      <!-- 50 -->
      <g transform="translate(122.589413 185.516562) scale(0.1 -0.1)">
       <defs>
        <path id="DejaVuSans-35" d="M 691 4666 
L 3169 4666 
L 3169 4134 
L 1269 4134 
L 1269 2991 
Q 1406 3038 1543 3061 
Q 1681 3084 1819 3084 
Q 2600 3084 3056 2656 
Q 3513 2228 3513 1497 
Q 3513 744 3044 326 
Q 2575 -91 1722 -91 
Q 1428 -91 1123 -41 
Q 819 9 494 109 
L 494 744 
Q 775 591 1075 516 
Q 1375 441 1709 441 
Q 2250 441 2565 725 
Q 2881 1009 2881 1497 
Q 2881 1984 2565 2268 
Q 2250 2553 1709 2553 
Q 1456 2553 1204 2497 
Q 953 2441 691 2322 
L 691 4666 
z
" transform="scale(0.015625)"/>
       </defs>
       <use xlink:href="#DejaVuSans-35"/>
       <use xlink:href="#DejaVuSans-30" transform="translate(63.623047 0)"/>
      </g>
     </g>
    </g>
    <g id="xtick_3">
     <g id="line2d_5">
      <path d="M 196.912519 170.918125 
L 196.912519 22.318125 
" clip-path="url(#p273bf22de9)" style="fill: none; stroke: #b0b0b0; stroke-opacity: 0.3; stroke-width: 0.8; stroke-linecap: square"/>
     </g>
     <g id="line2d_6">
      <g>
       <use xlink:href="#ma0e9378475" x="196.912519" y="170.918125" style="stroke: #000000; stroke-width: 0.8"/>
      </g>
     </g>
     <g id="text_3">
      <!-- 100 -->
      <g transform="translate(187.368769 185.516562) scale(0.1 -0.1)">
       <defs>
        <path id="DejaVuSans-31" d="M 794 531 
L 1825 531 
L 1825 4091 
L 703 3866 
L 703 4441 
L 1819 4666 
L 2450 4666 
L 2450 531 
L 3481 531 
L 3481 0 
L 794 0 
L 794 531 
z
" transform="scale(0.015625)"/>
       </defs>
       <use xlink:href="#DejaVuSans-31"/>
       <use xlink:href="#DejaVuSans-30" transform="translate(63.623047 0)"/>
       <use xlink:href="#DejaVuSans-30" transform="translate(127.246094 0)"/>
      </g>
     </g>
    </g>
    <g id="xtick_4">
     <g id="line2d_7">
      <path d="M 264.873125 170.918125 
L 264.873125 22.318125 
" clip-path="url(#p273bf22de9)" style="fill: none; stroke: #b0b0b0; stroke-opacity: 0.3; stroke-width: 0.8; stroke-linecap: square"/>
     </g>
     <g id="line2d_8">
      <g>
       <use xlink:href="#ma0e9378475" x="264.873125" y="170.918125" style="stroke: #000000; stroke-width: 0.8"/>
      </g>
     </g>
     <g id="text_4">
      <!-- 150 -->
      <g transform="translate(255.329375 185.516562) scale(0.1 -0.1)">
       <use xlink:href="#DejaVuSans-31"/>
       <use xlink:href="#DejaVuSans-35" transform="translate(63.623047 0)"/>
       <use xlink:href="#DejaVuSans-30" transform="translate(127.246094 0)"/>
      </g>
     </g>
    </g>
    <g id="xtick_5">
     <g id="line2d_9">
      <path d="M 332.833731 170.918125 
L 332.833731 22.318125 
" clip-path="url(#p273bf22de9)" style="fill: none; stroke: #b0b0b0; stroke-opacity: 0.3; stroke-width: 0.8; stroke-linecap: square"/>
     </g>
     <g id="line2d_10">
      <g>
       <use xlink:href="#ma0e9378475" x="332.833731" y="170.918125" style="stroke: #000000; stroke-width: 0.8"/>
      </g>
     </g>
     <g id="text_5">
      <!-- 200 -->
      <g transform="translate(323.289981 185.516562) scale(0.1 -0.1)">
       <defs>
        <path id="DejaVuSans-32" d="M 1228 531 
L 3431 531 
L 3431 0 
L 469 0 
L 469 531 
Q 828 903 1448 1529 
Q 2069 2156 2228 2338 
Q 2531 2678 2651 2914 
Q 2772 3150 2772 3378 
Q 2772 3750 2511 3984 
Q 2250 4219 1831 4219 
Q 1534 4219 1204 4116 
Q 875 4013 500 3803 
L 500 4441 
Q 881 4594 1212 4672 
Q 1544 4750 1819 4750 
Q 2544 4750 2975 4387 
Q 3406 4025 3406 3419 
Q 3406 3131 3298 2873 
Q 3191 2616 2906 2266 
Q 2828 2175 2409 1742 
Q 1991 1309 1228 531 
z
" transform="scale(0.015625)"/>
       </defs>
       <use xlink:href="#DejaVuSans-32"/>
       <use xlink:href="#DejaVuSans-30" transform="translate(63.623047 0)"/>
       <use xlink:href="#DejaVuSans-30" transform="translate(127.246094 0)"/>
      </g>
     </g>
    </g>
    <g id="xtick_6">
     <g id="line2d_11">
      <path d="M 400.794337 170.918125 
L 400.794337 22.318125 
" clip-path="url(#p273bf22de9)" style="fill: none; stroke: #b0b0b0; stroke-opacity: 0.3; stroke-width: 0.8; stroke-linecap: square"/>
     </g>
     <g id="line2d_12">
      <g>
       <use xlink:href="#ma0e9378475" x="400.794337" y="170.918125" style="stroke: #000000; stroke-width: 0.8"/>
      </g>
     </g>
     <g id="text_6">
      <!-- 250 -->
      <g transform="translate(391.250587 185.516562) scale(0.1 -0.1)">
       <use xlink:href="#DejaVuSans-32"/>
       <use xlink:href="#DejaVuSans-35" transform="translate(63.623047 0)"/>
       <use xlink:href="#DejaVuSans-30" transform="translate(127.246094 0)"/>
      </g>
     </g>
    </g>
    <g id="xtick_7">
     <g id="line2d_13">
      <path d="M 468.754943 170.918125 
L 468.754943 22.318125 
" clip-path="url(#p273bf22de9)" style="fill: none; stroke: #b0b0b0; stroke-opacity: 0.3; stroke-width: 0.8; stroke-linecap: square"/>
     </g>
     <g id="line2d_14">
      <g>
       <use xlink:href="#ma0e9378475" x="468.754943" y="170.918125" style="stroke: #000000; stroke-width: 0.8"/>
      </g>
     </g>
     <g id="text_7">
      <!-- 300 -->
      <g transform="translate(459.211193 185.516562) scale(0.1 -0.1)">
       <defs>
        <path id="DejaVuSans-33" d="M 2597 2516 
Q 3050 2419 3304 2112 
Q 3559 1806 3559 1356 
Q 3559 666 3084 287 
Q 2609 -91 1734 -91 
Q 1441 -91 1130 -33 
Q 819 25 488 141 
L 488 750 
Q 750 597 1062 519 
Q 1375 441 1716 441 
Q 2309 441 2620 675 
Q 2931 909 2931 1356 
Q 2931 1769 2642 2001 
Q 2353 2234 1838 2234 
L 1294 2234 
L 1294 2753 
L 1863 2753 
Q 2328 2753 2575 2939 
Q 2822 3125 2822 3475 
Q 2822 3834 2567 4026 
Q 2313 4219 1838 4219 
Q 1578 4219 1281 4162 
Q 984 4106 628 3988 
L 628 4550 
Q 988 4650 1302 4700 
Q 1616 4750 1894 4750 
Q 2613 4750 3031 4423 
Q 3450 4097 3450 3541 
Q 3450 3153 3228 2886 
Q 3006 2619 2597 2516 
z
" transform="scale(0.015625)"/>
       </defs>
       <use xlink:href="#DejaVuSans-33"/>
       <use xlink:href="#DejaVuSans-30" transform="translate(63.623047 0)"/>
       <use xlink:href="#DejaVuSans-30" transform="translate(127.246094 0)"/>
      </g>
     </g>
    </g>
    <g id="text_8">
     <!-- SVGD Iteration -->
     <g transform="translate(227.756719 199.194687) scale(0.1 -0.1)">
      <defs>
       <path id="DejaVuSans-53" d="M 3425 4513 
L 3425 3897 
Q 3066 4069 2747 4153 
Q 2428 4238 2131 4238 
Q 1616 4238 1336 4038 
Q 1056 3838 1056 3469 
Q 1056 3159 1242 3001 
Q 1428 2844 1947 2747 
L 2328 2669 
Q 3034 2534 3370 2195 
Q 3706 1856 3706 1288 
Q 3706 609 3251 259 
Q 2797 -91 1919 -91 
Q 1588 -91 1214 -16 
Q 841 59 441 206 
L 441 856 
Q 825 641 1194 531 
Q 1563 422 1919 422 
Q 2459 422 2753 634 
Q 3047 847 3047 1241 
Q 3047 1584 2836 1778 
Q 2625 1972 2144 2069 
L 1759 2144 
Q 1053 2284 737 2584 
Q 422 2884 422 3419 
Q 422 4038 858 4394 
Q 1294 4750 2059 4750 
Q 2388 4750 2728 4690 
Q 3069 4631 3425 4513 
z
" transform="scale(0.015625)"/>
       <path id="DejaVuSans-56" d="M 1831 0 
L 50 4666 
L 709 4666 
L 2188 738 
L 3669 4666 
L 4325 4666 
L 2547 0 
L 1831 0 
z
" transform="scale(0.015625)"/>
       <path id="DejaVuSans-47" d="M 3809 666 
L 3809 1919 
L 2778 1919 
L 2778 2438 
L 4434 2438 
L 4434 434 
Q 4069 175 3628 42 
Q 3188 -91 2688 -91 
Q 1594 -91 976 548 
Q 359 1188 359 2328 
Q 359 3472 976 4111 
Q 1594 4750 2688 4750 
Q 3144 4750 3555 4637 
Q 3966 4525 4313 4306 
L 4313 3634 
Q 3963 3931 3569 4081 
Q 3175 4231 2741 4231 
Q 1884 4231 1454 3753 
Q 1025 3275 1025 2328 
Q 1025 1384 1454 906 
Q 1884 428 2741 428 
Q 3075 428 3337 486 
Q 3600 544 3809 666 
z
" transform="scale(0.015625)"/>
       <path id="DejaVuSans-44" d="M 1259 4147 
L 1259 519 
L 2022 519 
Q 2988 519 3436 956 
Q 3884 1394 3884 2338 
Q 3884 3275 3436 3711 
Q 2988 4147 2022 4147 
L 1259 4147 
z
M 628 4666 
L 1925 4666 
Q 3281 4666 3915 4102 
Q 4550 3538 4550 2338 
Q 4550 1131 3912 565 
Q 3275 0 1925 0 
L 628 0 
L 628 4666 
z
" transform="scale(0.015625)"/>
       <path id="DejaVuSans-20" transform="scale(0.015625)"/>
       <path id="DejaVuSans-49" d="M 628 4666 
L 1259 4666 
L 1259 0 
L 628 0 
L 628 4666 
z
" transform="scale(0.015625)"/>
       <path id="DejaVuSans-74" d="M 1172 4494 
L 1172 3500 
L 2356 3500 
L 2356 3053 
L 1172 3053 
L 1172 1153 
Q 1172 725 1289 603 
Q 1406 481 1766 481 
L 2356 481 
L 2356 0 
L 1766 0 
Q 1100 0 847 248 
Q 594 497 594 1153 
L 594 3053 
L 172 3053 
L 172 3500 
L 594 3500 
L 594 4494 
L 1172 4494 
z
" transform="scale(0.015625)"/>
       <path id="DejaVuSans-65" d="M 3597 1894 
L 3597 1613 
L 953 1613 
Q 991 1019 1311 708 
Q 1631 397 2203 397 
Q 2534 397 2845 478 
Q 3156 559 3463 722 
L 3463 178 
Q 3153 47 2828 -22 
Q 2503 -91 2169 -91 
Q 1331 -91 842 396 
Q 353 884 353 1716 
Q 353 2575 817 3079 
Q 1281 3584 2069 3584 
Q 2775 3584 3186 3129 
Q 3597 2675 3597 1894 
z
M 3022 2063 
Q 3016 2534 2758 2815 
Q 2500 3097 2075 3097 
Q 1594 3097 1305 2825 
Q 1016 2553 972 2059 
L 3022 2063 
z
" transform="scale(0.015625)"/>
       <path id="DejaVuSans-72" d="M 2631 2963 
Q 2534 3019 2420 3045 
Q 2306 3072 2169 3072 
Q 1681 3072 1420 2755 
Q 1159 2438 1159 1844 
L 1159 0 
L 581 0 
L 581 3500 
L 1159 3500 
L 1159 2956 
Q 1341 3275 1631 3429 
Q 1922 3584 2338 3584 
Q 2397 3584 2469 3576 
Q 2541 3569 2628 3553 
L 2631 2963 
z
" transform="scale(0.015625)"/>
       <path id="DejaVuSans-61" d="M 2194 1759 
Q 1497 1759 1228 1600 
Q 959 1441 959 1056 
Q 959 750 1161 570 
Q 1363 391 1709 391 
Q 2188 391 2477 730 
Q 2766 1069 2766 1631 
L 2766 1759 
L 2194 1759 
z
M 3341 1997 
L 3341 0 
L 2766 0 
L 2766 531 
Q 2569 213 2275 61 
Q 1981 -91 1556 -91 
Q 1019 -91 701 211 
Q 384 513 384 1019 
Q 384 1609 779 1909 
Q 1175 2209 1959 2209 
L 2766 2209 
L 2766 2266 
Q 2766 2663 2505 2880 
Q 2244 3097 1772 3097 
Q 1472 3097 1187 3025 
Q 903 2953 641 2809 
L 641 3341 
Q 956 3463 1253 3523 
Q 1550 3584 1831 3584 
Q 2591 3584 2966 3190 
Q 3341 2797 3341 1997 
z
" transform="scale(0.015625)"/>
       <path id="DejaVuSans-69" d="M 603 3500 
L 1178 3500 
L 1178 0 
L 603 0 
L 603 3500 
z
M 603 4863 
L 1178 4863 
L 1178 4134 
L 603 4134 
L 603 4863 
z
" transform="scale(0.015625)"/>
       <path id="DejaVuSans-6f" d="M 1959 3097 
Q 1497 3097 1228 2736 
Q 959 2375 959 1747 
Q 959 1119 1226 758 
Q 1494 397 1959 397 
Q 2419 397 2687 759 
Q 2956 1122 2956 1747 
Q 2956 2369 2687 2733 
Q 2419 3097 1959 3097 
z
M 1959 3584 
Q 2709 3584 3137 3096 
Q 3566 2609 3566 1747 
Q 3566 888 3137 398 
Q 2709 -91 1959 -91 
Q 1206 -91 779 398 
Q 353 888 353 1747 
Q 353 2609 779 3096 
Q 1206 3584 1959 3584 
z
" transform="scale(0.015625)"/>
       <path id="DejaVuSans-6e" d="M 3513 2113 
L 3513 0 
L 2938 0 
L 2938 2094 
Q 2938 2591 2744 2837 
Q 2550 3084 2163 3084 
Q 1697 3084 1428 2787 
Q 1159 2491 1159 1978 
L 1159 0 
L 581 0 
L 581 3500 
L 1159 3500 
L 1159 2956 
Q 1366 3272 1645 3428 
Q 1925 3584 2291 3584 
Q 2894 3584 3203 3211 
Q 3513 2838 3513 2113 
z
" transform="scale(0.015625)"/>
      </defs>
      <use xlink:href="#DejaVuSans-53"/>
      <use xlink:href="#DejaVuSans-56" transform="translate(63.476562 0)"/>
      <use xlink:href="#DejaVuSans-47" transform="translate(131.884766 0)"/>
      <use xlink:href="#DejaVuSans-44" transform="translate(209.375 0)"/>
      <use xlink:href="#DejaVuSans-20" transform="translate(286.376953 0)"/>
      <use xlink:href="#DejaVuSans-49" transform="translate(318.164062 0)"/>
      <use xlink:href="#DejaVuSans-74" transform="translate(347.65625 0)"/>
      <use xlink:href="#DejaVuSans-65" transform="translate(386.865234 0)"/>
      <use xlink:href="#DejaVuSans-72" transform="translate(448.388672 0)"/>
      <use xlink:href="#DejaVuSans-61" transform="translate(489.501953 0)"/>
      <use xlink:href="#DejaVuSans-74" transform="translate(550.78125 0)"/>
      <use xlink:href="#DejaVuSans-69" transform="translate(589.990234 0)"/>
      <use xlink:href="#DejaVuSans-6f" transform="translate(617.773438 0)"/>
      <use xlink:href="#DejaVuSans-6e" transform="translate(678.955078 0)"/>
     </g>
    </g>
   </g>
   <g id="matplotlib.axis_2">
    <g id="ytick_1">
     <g id="line2d_15">
      <path d="M 40.603125 165.299912 
L 489.143125 165.299912 
" clip-path="url(#p273bf22de9)" style="fill: none; stroke: #b0b0b0; stroke-opacity: 0.3; stroke-width: 0.8; stroke-linecap: square"/>
     </g>
     <g id="line2d_16">
      <defs>
       <path id="m507cc97d5d" d="M 0 0 
L -3.5 0 
" style="stroke: #000000; stroke-width: 0.8"/>
      </defs>
      <g>
       <use xlink:href="#m507cc97d5d" x="40.603125" y="165.299912" style="stroke: #000000; stroke-width: 0.8"/>
      </g>
     </g>
     <g id="text_9">
      <!-- 0 -->
      <g transform="translate(27.240625 169.099131) scale(0.1 -0.1)">
       <use xlink:href="#DejaVuSans-30"/>
      </g>
     </g>
    </g>
    <g id="ytick_2">
     <g id="line2d_17">
      <path d="M 40.603125 133.243649 
L 489.143125 133.243649 
" clip-path="url(#p273bf22de9)" style="fill: none; stroke: #b0b0b0; stroke-opacity: 0.3; stroke-width: 0.8; stroke-linecap: square"/>
     </g>
     <g id="line2d_18">
      <g>
       <use xlink:href="#m507cc97d5d" x="40.603125" y="133.243649" style="stroke: #000000; stroke-width: 0.8"/>
      </g>
     </g>
     <g id="text_10">
      <!-- 10 -->
      <g transform="translate(20.878125 137.042868) scale(0.1 -0.1)">
       <use xlink:href="#DejaVuSans-31"/>
       <use xlink:href="#DejaVuSans-30" transform="translate(63.623047 0)"/>
      </g>
     </g>
    </g>
    <g id="ytick_3">
     <g id="line2d_19">
      <path d="M 40.603125 101.187386 
L 489.143125 101.187386 
" clip-path="url(#p273bf22de9)" style="fill: none; stroke: #b0b0b0; stroke-opacity: 0.3; stroke-width: 0.8; stroke-linecap: square"/>
     </g>
     <g id="line2d_20">
      <g>
       <use xlink:href="#m507cc97d5d" x="40.603125" y="101.187386" style="stroke: #000000; stroke-width: 0.8"/>
      </g>
     </g>
     <g id="text_11">
      <!-- 20 -->
      <g transform="translate(20.878125 104.986605) scale(0.1 -0.1)">
       <use xlink:href="#DejaVuSans-32"/>
       <use xlink:href="#DejaVuSans-30" transform="translate(63.623047 0)"/>
      </g>
     </g>
    </g>
    <g id="ytick_4">
     <g id="line2d_21">
      <path d="M 40.603125 69.131123 
L 489.143125 69.131123 
" clip-path="url(#p273bf22de9)" style="fill: none; stroke: #b0b0b0; stroke-opacity: 0.3; stroke-width: 0.8; stroke-linecap: square"/>
     </g>
     <g id="line2d_22">
      <g>
       <use xlink:href="#m507cc97d5d" x="40.603125" y="69.131123" style="stroke: #000000; stroke-width: 0.8"/>
      </g>
     </g>
     <g id="text_12">
      <!-- 30 -->
      <g transform="translate(20.878125 72.930342) scale(0.1 -0.1)">
       <use xlink:href="#DejaVuSans-33"/>
       <use xlink:href="#DejaVuSans-30" transform="translate(63.623047 0)"/>
      </g>
     </g>
    </g>
    <g id="ytick_5">
     <g id="line2d_23">
      <path d="M 40.603125 37.07486 
L 489.143125 37.07486 
" clip-path="url(#p273bf22de9)" style="fill: none; stroke: #b0b0b0; stroke-opacity: 0.3; stroke-width: 0.8; stroke-linecap: square"/>
     </g>
     <g id="line2d_24">
      <g>
       <use xlink:href="#m507cc97d5d" x="40.603125" y="37.07486" style="stroke: #000000; stroke-width: 0.8"/>
      </g>
     </g>
     <g id="text_13">
      <!-- 40 -->
      <g transform="translate(20.878125 40.874079) scale(0.1 -0.1)">
       <defs>
        <path id="DejaVuSans-34" d="M 2419 4116 
L 825 1625 
L 2419 1625 
L 2419 4116 
z
M 2253 4666 
L 3047 4666 
L 3047 1625 
L 3713 1625 
L 3713 1100 
L 3047 1100 
L 3047 0 
L 2419 0 
L 2419 1100 
L 313 1100 
L 313 1709 
L 2253 4666 
z
" transform="scale(0.015625)"/>
       </defs>
       <use xlink:href="#DejaVuSans-34"/>
       <use xlink:href="#DejaVuSans-30" transform="translate(63.623047 0)"/>
      </g>
     </g>
    </g>
    <g id="text_14">
     <!-- Posterior Mean ± 95% HPD -->
     <g transform="translate(14.798438 164.619687) rotate(-90) scale(0.1 -0.1)">
      <defs>
       <path id="DejaVuSans-50" d="M 1259 4147 
L 1259 2394 
L 2053 2394 
Q 2494 2394 2734 2622 
Q 2975 2850 2975 3272 
Q 2975 3691 2734 3919 
Q 2494 4147 2053 4147 
L 1259 4147 
z
M 628 4666 
L 2053 4666 
Q 2838 4666 3239 4311 
Q 3641 3956 3641 3272 
Q 3641 2581 3239 2228 
Q 2838 1875 2053 1875 
L 1259 1875 
L 1259 0 
L 628 0 
L 628 4666 
z
" transform="scale(0.015625)"/>
       <path id="DejaVuSans-73" d="M 2834 3397 
L 2834 2853 
Q 2591 2978 2328 3040 
Q 2066 3103 1784 3103 
Q 1356 3103 1142 2972 
Q 928 2841 928 2578 
Q 928 2378 1081 2264 
Q 1234 2150 1697 2047 
L 1894 2003 
Q 2506 1872 2764 1633 
Q 3022 1394 3022 966 
Q 3022 478 2636 193 
Q 2250 -91 1575 -91 
Q 1294 -91 989 -36 
Q 684 19 347 128 
L 347 722 
Q 666 556 975 473 
Q 1284 391 1588 391 
Q 1994 391 2212 530 
Q 2431 669 2431 922 
Q 2431 1156 2273 1281 
Q 2116 1406 1581 1522 
L 1381 1569 
Q 847 1681 609 1914 
Q 372 2147 372 2553 
Q 372 3047 722 3315 
Q 1072 3584 1716 3584 
Q 2034 3584 2315 3537 
Q 2597 3491 2834 3397 
z
" transform="scale(0.015625)"/>
       <path id="DejaVuSans-4d" d="M 628 4666 
L 1569 4666 
L 2759 1491 
L 3956 4666 
L 4897 4666 
L 4897 0 
L 4281 0 
L 4281 4097 
L 3078 897 
L 2444 897 
L 1241 4097 
L 1241 0 
L 628 0 
L 628 4666 
z
" transform="scale(0.015625)"/>
       <path id="DejaVuSans-b1" d="M 2944 4013 
L 2944 2803 
L 4684 2803 
L 4684 2272 
L 2944 2272 
L 2944 1063 
L 2419 1063 
L 2419 2272 
L 678 2272 
L 678 2803 
L 2419 2803 
L 2419 4013 
L 2944 4013 
z
M 678 531 
L 4684 531 
L 4684 0 
L 678 0 
L 678 531 
z
" transform="scale(0.015625)"/>
       <path id="DejaVuSans-39" d="M 703 97 
L 703 672 
Q 941 559 1184 500 
Q 1428 441 1663 441 
Q 2288 441 2617 861 
Q 2947 1281 2994 2138 
Q 2813 1869 2534 1725 
Q 2256 1581 1919 1581 
Q 1219 1581 811 2004 
Q 403 2428 403 3163 
Q 403 3881 828 4315 
Q 1253 4750 1959 4750 
Q 2769 4750 3195 4129 
Q 3622 3509 3622 2328 
Q 3622 1225 3098 567 
Q 2575 -91 1691 -91 
Q 1453 -91 1209 -44 
Q 966 3 703 97 
z
M 1959 2075 
Q 2384 2075 2632 2365 
Q 2881 2656 2881 3163 
Q 2881 3666 2632 3958 
Q 2384 4250 1959 4250 
Q 1534 4250 1286 3958 
Q 1038 3666 1038 3163 
Q 1038 2656 1286 2365 
Q 1534 2075 1959 2075 
z
" transform="scale(0.015625)"/>
       <path id="DejaVuSans-25" d="M 4653 2053 
Q 4381 2053 4226 1822 
Q 4072 1591 4072 1178 
Q 4072 772 4226 539 
Q 4381 306 4653 306 
Q 4919 306 5073 539 
Q 5228 772 5228 1178 
Q 5228 1588 5073 1820 
Q 4919 2053 4653 2053 
z
M 4653 2450 
Q 5147 2450 5437 2106 
Q 5728 1763 5728 1178 
Q 5728 594 5436 251 
Q 5144 -91 4653 -91 
Q 4153 -91 3862 251 
Q 3572 594 3572 1178 
Q 3572 1766 3864 2108 
Q 4156 2450 4653 2450 
z
M 1428 4353 
Q 1159 4353 1004 4120 
Q 850 3888 850 3481 
Q 850 3069 1003 2837 
Q 1156 2606 1428 2606 
Q 1700 2606 1854 2837 
Q 2009 3069 2009 3481 
Q 2009 3884 1853 4118 
Q 1697 4353 1428 4353 
z
M 4250 4750 
L 4750 4750 
L 1831 -91 
L 1331 -91 
L 4250 4750 
z
M 1428 4750 
Q 1922 4750 2215 4408 
Q 2509 4066 2509 3481 
Q 2509 2891 2217 2550 
Q 1925 2209 1428 2209 
Q 931 2209 642 2551 
Q 353 2894 353 3481 
Q 353 4063 643 4406 
Q 934 4750 1428 4750 
z
" transform="scale(0.015625)"/>
       <path id="DejaVuSans-48" d="M 628 4666 
L 1259 4666 
L 1259 2753 
L 3553 2753 
L 3553 4666 
L 4184 4666 
L 4184 0 
L 3553 0 
L 3553 2222 
L 1259 2222 
L 1259 0 
L 628 0 
L 628 4666 
z
" transform="scale(0.015625)"/>
      </defs>
      <use xlink:href="#DejaVuSans-50"/>
      <use xlink:href="#DejaVuSans-6f" transform="translate(56.677734 0)"/>
      <use xlink:href="#DejaVuSans-73" transform="translate(117.859375 0)"/>
      <use xlink:href="#DejaVuSans-74" transform="translate(169.958984 0)"/>
      <use xlink:href="#DejaVuSans-65" transform="translate(209.167969 0)"/>
      <use xlink:href="#DejaVuSans-72" transform="translate(270.691406 0)"/>
      <use xlink:href="#DejaVuSans-69" transform="translate(311.804688 0)"/>
      <use xlink:href="#DejaVuSans-6f" transform="translate(339.587891 0)"/>
      <use xlink:href="#DejaVuSans-72" transform="translate(400.769531 0)"/>
      <use xlink:href="#DejaVuSans-20" transform="translate(441.882812 0)"/>
      <use xlink:href="#DejaVuSans-4d" transform="translate(473.669922 0)"/>
      <use xlink:href="#DejaVuSans-65" transform="translate(559.949219 0)"/>
      <use xlink:href="#DejaVuSans-61" transform="translate(621.472656 0)"/>
      <use xlink:href="#DejaVuSans-6e" transform="translate(682.751953 0)"/>
      <use xlink:href="#DejaVuSans-20" transform="translate(746.130859 0)"/>
      <use xlink:href="#DejaVuSans-b1" transform="translate(777.917969 0)"/>
      <use xlink:href="#DejaVuSans-20" transform="translate(861.707031 0)"/>
      <use xlink:href="#DejaVuSans-39" transform="translate(893.494141 0)"/>
      <use xlink:href="#DejaVuSans-35" transform="translate(957.117188 0)"/>
      <use xlink:href="#DejaVuSans-25" transform="translate(1020.740234 0)"/>
      <use xlink:href="#DejaVuSans-20" transform="translate(1115.759766 0)"/>
      <use xlink:href="#DejaVuSans-48" transform="translate(1147.546875 0)"/>
      <use xlink:href="#DejaVuSans-50" transform="translate(1222.742188 0)"/>
      <use xlink:href="#DejaVuSans-44" transform="translate(1283.044922 0)"/>
     </g>
    </g>
   </g>
   <g id="line2d_25">
    <path d="M 60.991307 162.130786 
L 60.991307 67.676527 
L 63.709731 96.659131 
L 65.068943 108.967492 
L 66.428155 118.558848 
L 67.787367 126.084914 
L 69.14658 131.010427 
L 70.505792 134.280643 
L 71.865004 136.465783 
L 73.224216 138.050405 
L 74.583428 139.128916 
L 75.94264 139.890926 
L 77.301852 140.44586 
L 80.020277 141.204552 
L 82.738701 141.672755 
L 86.816337 142.133393 
L 93.612398 142.631737 
L 104.486095 143.131447 
L 118.078216 143.568161 
L 139.82561 143.983235 
L 180.601973 144.279937 
L 268.950761 144.448051 
L 440.211489 144.44571 
L 468.754943 144.085013 
L 468.754943 144.085013 
" clip-path="url(#p273bf22de9)" style="fill: none; stroke: #1f77b4; stroke-width: 1.5; stroke-linecap: square"/>
   </g>
   <g id="line2d_26">
    <path d="M 40.603125 142.860528 
L 489.143125 142.860528 
" clip-path="url(#p273bf22de9)" style="fill: none; stroke-dasharray: 5.55,2.4; stroke-dashoffset: 0; stroke: #1f77b4; stroke-opacity: 0.7; stroke-width: 1.5"/>
   </g>
   <g id="patch_3">
    <path d="M 40.603125 170.918125 
L 40.603125 22.318125 
" style="fill: none; stroke: #000000; stroke-width: 0.8; stroke-linejoin: miter; stroke-linecap: square"/>
   </g>
   <g id="patch_4">
    <path d="M 489.143125 170.918125 
L 489.143125 22.318125 
" style="fill: none; stroke: #000000; stroke-width: 0.8; stroke-linejoin: miter; stroke-linecap: square"/>
   </g>
   <g id="patch_5">
    <path d="M 40.603125 170.918125 
L 489.143125 170.918125 
" style="fill: none; stroke: #000000; stroke-width: 0.8; stroke-linejoin: miter; stroke-linecap: square"/>
   </g>
   <g id="patch_6">
    <path d="M 40.603125 22.318125 
L 489.143125 22.318125 
" style="fill: none; stroke: #000000; stroke-width: 0.8; stroke-linejoin: miter; stroke-linecap: square"/>
   </g>
   <g id="text_15">
    <!-- Parameter Convergence with 95% HPD -->
    <g transform="translate(147.65375 16.318125) scale(0.12 -0.12)">
     <defs>
      <path id="DejaVuSans-6d" d="M 3328 2828 
Q 3544 3216 3844 3400 
Q 4144 3584 4550 3584 
Q 5097 3584 5394 3201 
Q 5691 2819 5691 2113 
L 5691 0 
L 5113 0 
L 5113 2094 
Q 5113 2597 4934 2840 
Q 4756 3084 4391 3084 
Q 3944 3084 3684 2787 
Q 3425 2491 3425 1978 
L 3425 0 
L 2847 0 
L 2847 2094 
Q 2847 2600 2669 2842 
Q 2491 3084 2119 3084 
Q 1678 3084 1418 2786 
Q 1159 2488 1159 1978 
L 1159 0 
L 581 0 
L 581 3500 
L 1159 3500 
L 1159 2956 
Q 1356 3278 1631 3431 
Q 1906 3584 2284 3584 
Q 2666 3584 2933 3390 
Q 3200 3197 3328 2828 
z
" transform="scale(0.015625)"/>
      <path id="DejaVuSans-43" d="M 4122 4306 
L 4122 3641 
Q 3803 3938 3442 4084 
Q 3081 4231 2675 4231 
Q 1875 4231 1450 3742 
Q 1025 3253 1025 2328 
Q 1025 1406 1450 917 
Q 1875 428 2675 428 
Q 3081 428 3442 575 
Q 3803 722 4122 1019 
L 4122 359 
Q 3791 134 3420 21 
Q 3050 -91 2638 -91 
Q 1578 -91 968 557 
Q 359 1206 359 2328 
Q 359 3453 968 4101 
Q 1578 4750 2638 4750 
Q 3056 4750 3426 4639 
Q 3797 4528 4122 4306 
z
" transform="scale(0.015625)"/>
      <path id="DejaVuSans-76" d="M 191 3500 
L 800 3500 
L 1894 563 
L 2988 3500 
L 3597 3500 
L 2284 0 
L 1503 0 
L 191 3500 
z
" transform="scale(0.015625)"/>
      <path id="DejaVuSans-67" d="M 2906 1791 
Q 2906 2416 2648 2759 
Q 2391 3103 1925 3103 
Q 1463 3103 1205 2759 
Q 947 2416 947 1791 
Q 947 1169 1205 825 
Q 1463 481 1925 481 
Q 2391 481 2648 825 
Q 2906 1169 2906 1791 
z
M 3481 434 
Q 3481 -459 3084 -895 
Q 2688 -1331 1869 -1331 
Q 1566 -1331 1297 -1286 
Q 1028 -1241 775 -1147 
L 775 -588 
Q 1028 -725 1275 -790 
Q 1522 -856 1778 -856 
Q 2344 -856 2625 -561 
Q 2906 -266 2906 331 
L 2906 616 
Q 2728 306 2450 153 
Q 2172 0 1784 0 
Q 1141 0 747 490 
Q 353 981 353 1791 
Q 353 2603 747 3093 
Q 1141 3584 1784 3584 
Q 2172 3584 2450 3431 
Q 2728 3278 2906 2969 
L 2906 3500 
L 3481 3500 
L 3481 434 
z
" transform="scale(0.015625)"/>
      <path id="DejaVuSans-63" d="M 3122 3366 
L 3122 2828 
Q 2878 2963 2633 3030 
Q 2388 3097 2138 3097 
Q 1578 3097 1268 2742 
Q 959 2388 959 1747 
Q 959 1106 1268 751 
Q 1578 397 2138 397 
Q 2388 397 2633 464 
Q 2878 531 3122 666 
L 3122 134 
Q 2881 22 2623 -34 
Q 2366 -91 2075 -91 
Q 1284 -91 818 406 
Q 353 903 353 1747 
Q 353 2603 823 3093 
Q 1294 3584 2113 3584 
Q 2378 3584 2631 3529 
Q 2884 3475 3122 3366 
z
" transform="scale(0.015625)"/>
      <path id="DejaVuSans-77" d="M 269 3500 
L 844 3500 
L 1563 769 
L 2278 3500 
L 2956 3500 
L 3675 769 
L 4391 3500 
L 4966 3500 
L 4050 0 
L 3372 0 
L 2619 2869 
L 1863 0 
L 1184 0 
L 269 3500 
z
" transform="scale(0.015625)"/>
      <path id="DejaVuSans-68" d="M 3513 2113 
L 3513 0 
L 2938 0 
L 2938 2094 
Q 2938 2591 2744 2837 
Q 2550 3084 2163 3084 
Q 1697 3084 1428 2787 
Q 1159 2491 1159 1978 
L 1159 0 
L 581 0 
L 581 4863 
L 1159 4863 
L 1159 2956 
Q 1366 3272 1645 3428 
Q 1925 3584 2291 3584 
Q 2894 3584 3203 3211 
Q 3513 2838 3513 2113 
z
" transform="scale(0.015625)"/>
     </defs>
     <use xlink:href="#DejaVuSans-50"/>
     <use xlink:href="#DejaVuSans-61" transform="translate(55.802734 0)"/>
     <use xlink:href="#DejaVuSans-72" transform="translate(117.082031 0)"/>
     <use xlink:href="#DejaVuSans-61" transform="translate(158.195312 0)"/>
     <use xlink:href="#DejaVuSans-6d" transform="translate(219.474609 0)"/>
     <use xlink:href="#DejaVuSans-65" transform="translate(316.886719 0)"/>
     <use xlink:href="#DejaVuSans-74" transform="translate(378.410156 0)"/>
     <use xlink:href="#DejaVuSans-65" transform="translate(417.619141 0)"/>
     <use xlink:href="#DejaVuSans-72" transform="translate(479.142578 0)"/>
     <use xlink:href="#DejaVuSans-20" transform="translate(520.255859 0)"/>
     <use xlink:href="#DejaVuSans-43" transform="translate(552.042969 0)"/>
     <use xlink:href="#DejaVuSans-6f" transform="translate(621.867188 0)"/>
     <use xlink:href="#DejaVuSans-6e" transform="translate(683.048828 0)"/>
     <use xlink:href="#DejaVuSans-76" transform="translate(746.427734 0)"/>
     <use xlink:href="#DejaVuSans-65" transform="translate(805.607422 0)"/>
     <use xlink:href="#DejaVuSans-72" transform="translate(867.130859 0)"/>
     <use xlink:href="#DejaVuSans-67" transform="translate(906.494141 0)"/>
     <use xlink:href="#DejaVuSans-65" transform="translate(969.970703 0)"/>
     <use xlink:href="#DejaVuSans-6e" transform="translate(1031.494141 0)"/>
     <use xlink:href="#DejaVuSans-63" transform="translate(1094.873047 0)"/>
     <use xlink:href="#DejaVuSans-65" transform="translate(1149.853516 0)"/>
     <use xlink:href="#DejaVuSans-20" transform="translate(1211.376953 0)"/>
     <use xlink:href="#DejaVuSans-77" transform="translate(1243.164062 0)"/>
     <use xlink:href="#DejaVuSans-69" transform="translate(1324.951172 0)"/>
     <use xlink:href="#DejaVuSans-74" transform="translate(1352.734375 0)"/>
     <use xlink:href="#DejaVuSans-68" transform="translate(1391.943359 0)"/>
     <use xlink:href="#DejaVuSans-20" transform="translate(1455.322266 0)"/>
     <use xlink:href="#DejaVuSans-39" transform="translate(1487.109375 0)"/>
     <use xlink:href="#DejaVuSans-35" transform="translate(1550.732422 0)"/>
     <use xlink:href="#DejaVuSans-25" transform="translate(1614.355469 0)"/>
     <use xlink:href="#DejaVuSans-20" transform="translate(1709.375 0)"/>
     <use xlink:href="#DejaVuSans-48" transform="translate(1741.162109 0)"/>
     <use xlink:href="#DejaVuSans-50" transform="translate(1816.357422 0)"/>
     <use xlink:href="#DejaVuSans-44" transform="translate(1876.660156 0)"/>
    </g>
   </g>
   <g id="legend_1">
    <g id="patch_7">
     <path d="M 439.243125 44.99625 
L 482.143125 44.99625 
Q 484.143125 44.99625 484.143125 42.99625 
L 484.143125 29.318125 
Q 484.143125 27.318125 482.143125 27.318125 
L 439.243125 27.318125 
Q 437.243125 27.318125 437.243125 29.318125 
L 437.243125 42.99625 
Q 437.243125 44.99625 439.243125 44.99625 
z
" style="fill: #ffffff; opacity: 0.8; stroke: #cccccc; stroke-linejoin: miter"/>
    </g>
    <g id="line2d_27">
     <path d="M 441.243125 35.416562 
L 451.243125 35.416562 
L 461.243125 35.416562 
" style="fill: none; stroke: #1f77b4; stroke-width: 1.5; stroke-linecap: square"/>
    </g>
    <g id="text_16">
     <!-- $\theta_0$ -->
     <g transform="translate(469.243125 38.916562) scale(0.1 -0.1)">
      <defs>
       <path id="DejaVuSans-Oblique-3b8" d="M 2913 2219 
L 925 2219 
Q 791 1284 928 888 
Q 1100 400 1566 400 
Q 2034 400 2391 891 
Q 2703 1322 2913 2219 
z
M 3009 2750 
Q 3094 3638 2984 3950 
Q 2813 4444 2353 4444 
Q 1875 4444 1525 3956 
Q 1250 3563 1034 2750 
L 3009 2750 
z
M 2444 4913 
Q 3194 4913 3494 4250 
Q 3794 3591 3566 2422 
Q 3341 1256 2781 594 
Q 2225 -72 1475 -72 
Q 722 -72 425 594 
Q 128 1256 353 2422 
Q 581 3591 1134 4250 
Q 1691 4913 2444 4913 
z
" transform="scale(0.015625)"/>
      </defs>
      <use xlink:href="#DejaVuSans-Oblique-3b8" transform="translate(0 0.234375)"/>
      <use xlink:href="#DejaVuSans-30" transform="translate(61.181641 -16.171875) scale(0.7)"/>
     </g>
    </g>
   </g>
  </g>
 </g>
 <defs>
  <clipPath id="p273bf22de9">
   <rect x="40.603125" y="22.318125" width="448.54" height="148.6"/>
  </clipPath>
 </defs>
</svg>
