<?xml version="1.0" encoding="utf-8" standalone="no"?>
<!DOCTYPE svg PUBLIC "-//W3C//DTD SVG 1.1//EN"
  "http://www.w3.org/Graphics/SVG/1.1/DTD/svg11.dtd">
<svg xmlns:xlink="http://www.w3.org/1999/xlink" width="408.10125pt" height="325.986375pt" viewBox="0 0 408.10125 325.986375" xmlns="http://www.w3.org/2000/svg" version="1.1">
 <metadata>
  <rdf:RDF xmlns:dc="http://purl.org/dc/elements/1.1/" xmlns:cc="http://creativecommons.org/ns#" xmlns:rdf="http://www.w3.org/1999/02/22-rdf-syntax-ns#">
   <cc:Work>
    <dc:type rdf:resource="http://purl.org/dc/dcmitype/StillImage"/>
    <dc:date>2026-03-17T15:44:24.102871</dc:date>
    <dc:format>image/svg+xml</dc:format>
    <dc:creator>
     <cc:Agent>
      <dc:title>Matplotlib v3.10.8, https://matplotlib.org/</dc:title>
     </cc:Agent>
    </dc:creator>
   </cc:Work>
  </rdf:RDF>
 </metadata>
 <defs>
  <style type="text/css">*{stroke-linejoin: round; stroke-linecap: butt}</style>
 </defs>
 <g id="figure_1">
  <g id="patch_1">
   <path d="M 0 325.986375 
L 408.10125 325.986375 
L 408.10125 0 
L 0 0 
z
" style="fill: #ffffff"/>
  </g>
  <g id="axes_1">
   <g id="patch_2">
    <path d="M 43.78125 288.430125 
L 400.90125 288.430125 
L 400.90125 22.318125 
L 43.78125 22.318125 
z
" style="fill: #ffffff"/>
   </g>
   <g id="patch_3">
    <path d="M 60.013977 288.430125 
L 66.507068 288.430125 
L 66.507068 34.990125 
L 60.013977 34.990125 
z
" clip-path="url(#pd837ec7ca7)" style="fill: #1f77b4"/>
   </g>
   <g id="patch_4">
    <path d="M 66.507068 288.430125 
L 73.000159 288.430125 
L 73.000159 288.430125 
L 66.507068 288.430125 
z
" clip-path="url(#pd837ec7ca7)" style="fill: #1f77b4"/>
   </g>
   <g id="patch_5">
    <path d="M 73.000159 288.430125 
L 79.49325 288.430125 
L 79.49325 288.430125 
L 73.000159 288.430125 
z
" clip-path="url(#pd837ec7ca7)" style="fill: #1f77b4"/>
   </g>
   <g id="patch_6">
    <path d="M 79.49325 288.430125 
L 85.986341 288.430125 
L 85.986341 288.430125 
L 79.49325 288.430125 
z
" clip-path="url(#pd837ec7ca7)" style="fill: #1f77b4"/>
   </g>
   <g id="patch_7">
    <path d="M 85.986341 288.430125 
L 92.479432 288.430125 
L 92.479432 288.430125 
L 85.986341 288.430125 
z
" clip-path="url(#pd837ec7ca7)" style="fill: #1f77b4"/>
   </g>
   <g id="patch_8">
    <path d="M 92.479432 288.430125 
L 98.972523 288.430125 
L 98.972523 274.784292 
L 92.479432 274.784292 
z
" clip-path="url(#pd837ec7ca7)" style="fill: #1f77b4"/>
   </g>
   <g id="patch_9">
    <path d="M 98.972523 288.430125 
L 105.465614 288.430125 
L 105.465614 288.430125 
L 98.972523 288.430125 
z
" clip-path="url(#pd837ec7ca7)" style="fill: #1f77b4"/>
   </g>
   <g id="patch_10">
    <path d="M 105.465614 288.430125 
L 111.958705 288.430125 
L 111.958705 288.430125 
L 105.465614 288.430125 
z
" clip-path="url(#pd837ec7ca7)" style="fill: #1f77b4"/>
   </g>
   <g id="patch_11">
    <path d="M 111.958705 288.430125 
L 118.451795 288.430125 
L 118.451795 288.430125 
L 111.958705 288.430125 
z
" clip-path="url(#pd837ec7ca7)" style="fill: #1f77b4"/>
   </g>
   <g id="patch_12">
    <path d="M 118.451795 288.430125 
L 124.944886 288.430125 
L 124.944886 288.430125 
L 118.451795 288.430125 
z
" clip-path="url(#pd837ec7ca7)" style="fill: #1f77b4"/>
   </g>
   <g id="patch_13">
    <path d="M 124.944886 288.430125 
L 131.437977 288.430125 
L 131.437977 280.654647 
L 124.944886 280.654647 
z
" clip-path="url(#pd837ec7ca7)" style="fill: #1f77b4"/>
   </g>
   <g id="patch_14">
    <path d="M 131.437977 288.430125 
L 137.931068 288.430125 
L 137.931068 288.430125 
L 131.437977 288.430125 
z
" clip-path="url(#pd837ec7ca7)" style="fill: #1f77b4"/>
   </g>
   <g id="patch_15">
    <path d="M 137.931068 288.430125 
L 144.424159 288.430125 
L 144.424159 288.430125 
L 137.931068 288.430125 
z
" clip-path="url(#pd837ec7ca7)" style="fill: #1f77b4"/>
   </g>
   <g id="patch_16">
    <path d="M 144.424159 288.430125 
L 150.91725 288.430125 
L 150.91725 288.430125 
L 144.424159 288.430125 
z
" clip-path="url(#pd837ec7ca7)" style="fill: #1f77b4"/>
   </g>
   <g id="patch_17">
    <path d="M 150.91725 288.430125 
L 157.410341 288.430125 
L 157.410341 288.430125 
L 150.91725 288.430125 
z
" clip-path="url(#pd837ec7ca7)" style="fill: #1f77b4"/>
   </g>
   <g id="patch_18">
    <path d="M 157.410341 288.430125 
L 163.903432 288.430125 
L 163.903432 283.381676 
L 157.410341 283.381676 
z
" clip-path="url(#pd837ec7ca7)" style="fill: #1f77b4"/>
   </g>
   <g id="patch_19">
    <path d="M 163.903432 288.430125 
L 170.396523 288.430125 
L 170.396523 288.430125 
L 163.903432 288.430125 
z
" clip-path="url(#pd837ec7ca7)" style="fill: #1f77b4"/>
   </g>
   <g id="patch_20">
    <path d="M 170.396523 288.430125 
L 176.889614 288.430125 
L 176.889614 288.430125 
L 170.396523 288.430125 
z
" clip-path="url(#pd837ec7ca7)" style="fill: #1f77b4"/>
   </g>
   <g id="patch_21">
    <path d="M 176.889614 288.430125 
L 183.382705 288.430125 
L 183.382705 288.430125 
L 176.889614 288.430125 
z
" clip-path="url(#pd837ec7ca7)" style="fill: #1f77b4"/>
   </g>
   <g id="patch_22">
    <path d="M 183.382705 288.430125 
L 189.875795 288.430125 
L 189.875795 288.430125 
L 183.382705 288.430125 
z
" clip-path="url(#pd837ec7ca7)" style="fill: #1f77b4"/>
   </g>
   <g id="patch_23">
    <path d="M 189.875795 288.430125 
L 196.368886 288.430125 
L 196.368886 284.882304 
L 189.875795 284.882304 
z
" clip-path="url(#pd837ec7ca7)" style="fill: #1f77b4"/>
   </g>
   <g id="patch_24">
    <path d="M 196.368886 288.430125 
L 202.861977 288.430125 
L 202.861977 288.430125 
L 196.368886 288.430125 
z
" clip-path="url(#pd837ec7ca7)" style="fill: #1f77b4"/>
   </g>
   <g id="patch_25">
    <path d="M 202.861977 288.430125 
L 209.355068 288.430125 
L 209.355068 288.430125 
L 202.861977 288.430125 
z
" clip-path="url(#pd837ec7ca7)" style="fill: #1f77b4"/>
   </g>
   <g id="patch_26">
    <path d="M 209.355068 288.430125 
L 215.848159 288.430125 
L 215.848159 288.430125 
L 209.355068 288.430125 
z
" clip-path="url(#pd837ec7ca7)" style="fill: #1f77b4"/>
   </g>
   <g id="patch_27">
    <path d="M 215.848159 288.430125 
L 222.34125 288.430125 
L 222.34125 288.430125 
L 215.848159 288.430125 
z
" clip-path="url(#pd837ec7ca7)" style="fill: #1f77b4"/>
   </g>
   <g id="patch_28">
    <path d="M 222.34125 288.430125 
L 228.834341 288.430125 
L 228.834341 285.503576 
L 222.34125 285.503576 
z
" clip-path="url(#pd837ec7ca7)" style="fill: #1f77b4"/>
   </g>
   <g id="patch_29">
    <path d="M 228.834341 288.430125 
L 235.327432 288.430125 
L 235.327432 288.430125 
L 228.834341 288.430125 
z
" clip-path="url(#pd837ec7ca7)" style="fill: #1f77b4"/>
   </g>
   <g id="patch_30">
    <path d="M 235.327432 288.430125 
L 241.820523 288.430125 
L 241.820523 288.430125 
L 235.327432 288.430125 
z
" clip-path="url(#pd837ec7ca7)" style="fill: #1f77b4"/>
   </g>
   <g id="patch_31">
    <path d="M 241.820523 288.430125 
L 248.313614 288.430125 
L 248.313614 288.430125 
L 241.820523 288.430125 
z
" clip-path="url(#pd837ec7ca7)" style="fill: #1f77b4"/>
   </g>
   <g id="patch_32">
    <path d="M 248.313614 288.430125 
L 254.806705 288.430125 
L 254.806705 288.430125 
L 248.313614 288.430125 
z
" clip-path="url(#pd837ec7ca7)" style="fill: #1f77b4"/>
   </g>
   <g id="patch_33">
    <path d="M 254.806705 288.430125 
L 261.299795 288.430125 
L 261.299795 286.041901 
L 254.806705 286.041901 
z
" clip-path="url(#pd837ec7ca7)" style="fill: #1f77b4"/>
   </g>
   <g id="patch_34">
    <path d="M 261.299795 288.430125 
L 267.792886 288.430125 
L 267.792886 288.430125 
L 261.299795 288.430125 
z
" clip-path="url(#pd837ec7ca7)" style="fill: #1f77b4"/>
   </g>
   <g id="patch_35">
    <path d="M 267.792886 288.430125 
L 274.285977 288.430125 
L 274.285977 288.430125 
L 267.792886 288.430125 
z
" clip-path="url(#pd837ec7ca7)" style="fill: #1f77b4"/>
   </g>
   <g id="patch_36">
    <path d="M 274.285977 288.430125 
L 280.779068 288.430125 
L 280.779068 288.430125 
L 274.285977 288.430125 
z
" clip-path="url(#pd837ec7ca7)" style="fill: #1f77b4"/>
   </g>
   <g id="patch_37">
    <path d="M 280.779068 288.430125 
L 287.272159 288.430125 
L 287.272159 286.444058 
L 280.779068 286.444058 
z
" clip-path="url(#pd837ec7ca7)" style="fill: #1f77b4"/>
   </g>
   <g id="patch_38">
    <path d="M 287.272159 288.430125 
L 293.76525 288.430125 
L 293.76525 288.430125 
L 287.272159 288.430125 
z
" clip-path="url(#pd837ec7ca7)" style="fill: #1f77b4"/>
   </g>
   <g id="patch_39">
    <path d="M 293.76525 288.430125 
L 300.258341 288.430125 
L 300.258341 288.430125 
L 293.76525 288.430125 
z
" clip-path="url(#pd837ec7ca7)" style="fill: #1f77b4"/>
   </g>
   <g id="patch_40">
    <path d="M 300.258341 288.430125 
L 306.751432 288.430125 
L 306.751432 288.430125 
L 300.258341 288.430125 
z
" clip-path="url(#pd837ec7ca7)" style="fill: #1f77b4"/>
   </g>
   <g id="patch_41">
    <path d="M 306.751432 288.430125 
L 313.244523 288.430125 
L 313.244523 288.430125 
L 306.751432 288.430125 
z
" clip-path="url(#pd837ec7ca7)" style="fill: #1f77b4"/>
   </g>
   <g id="patch_42">
    <path d="M 313.244523 288.430125 
L 319.737614 288.430125 
L 319.737614 288.430125 
L 313.244523 288.430125 
z
" clip-path="url(#pd837ec7ca7)" style="fill: #1f77b4"/>
   </g>
   <g id="patch_43">
    <path d="M 319.737614 288.430125 
L 326.230705 288.430125 
L 326.230705 286.660167 
L 319.737614 286.660167 
z
" clip-path="url(#pd837ec7ca7)" style="fill: #1f77b4"/>
   </g>
   <g id="patch_44">
    <path d="M 326.230705 288.430125 
L 332.723795 288.430125 
L 332.723795 288.430125 
L 326.230705 288.430125 
z
" clip-path="url(#pd837ec7ca7)" style="fill: #1f77b4"/>
   </g>
   <g id="patch_45">
    <path d="M 332.723795 288.430125 
L 339.216886 288.430125 
L 339.216886 288.430125 
L 332.723795 288.430125 
z
" clip-path="url(#pd837ec7ca7)" style="fill: #1f77b4"/>
   </g>
   <g id="patch_46">
    <path d="M 339.216886 288.430125 
L 345.709977 288.430125 
L 345.709977 288.430125 
L 339.216886 288.430125 
z
" clip-path="url(#pd837ec7ca7)" style="fill: #1f77b4"/>
   </g>
   <g id="patch_47">
    <path d="M 345.709977 288.430125 
L 352.203068 288.430125 
L 352.203068 288.430125 
L 345.709977 288.430125 
z
" clip-path="url(#pd837ec7ca7)" style="fill: #1f77b4"/>
   </g>
   <g id="patch_48">
    <path d="M 352.203068 288.430125 
L 358.696159 288.430125 
L 358.696159 286.885183 
L 352.203068 286.885183 
z
" clip-path="url(#pd837ec7ca7)" style="fill: #1f77b4"/>
   </g>
   <g id="patch_49">
    <path d="M 358.696159 288.430125 
L 365.18925 288.430125 
L 365.18925 288.430125 
L 358.696159 288.430125 
z
" clip-path="url(#pd837ec7ca7)" style="fill: #1f77b4"/>
   </g>
   <g id="patch_50">
    <path d="M 365.18925 288.430125 
L 371.682341 288.430125 
L 371.682341 288.430125 
L 365.18925 288.430125 
z
" clip-path="url(#pd837ec7ca7)" style="fill: #1f77b4"/>
   </g>
   <g id="patch_51">
    <path d="M 371.682341 288.430125 
L 378.175432 288.430125 
L 378.175432 288.430125 
L 371.682341 288.430125 
z
" clip-path="url(#pd837ec7ca7)" style="fill: #1f77b4"/>
   </g>
   <g id="patch_52">
    <path d="M 378.175432 288.430125 
L 384.668523 288.430125 
L 384.668523 285.754757 
L 378.175432 285.754757 
z
" clip-path="url(#pd837ec7ca7)" style="fill: #1f77b4"/>
   </g>
   <g id="matplotlib.axis_1">
    <g id="xtick_1">
     <g id="line2d_1">
      <path d="M 60.013977 288.430125 
L 60.013977 22.318125 
" clip-path="url(#pd837ec7ca7)" style="fill: none; stroke: #b0b0b0; stroke-width: 0.8; stroke-linecap: square"/>
     </g>
     <g id="line2d_2">
      <defs>
       <path id="m0e504725d6" d="M 0 0 
L 0 3.5 
" style="stroke: #000000; stroke-width: 0.8"/>
      </defs>
      <g>
       <use xlink:href="#m0e504725d6" x="60.013977" y="288.430125" style="stroke: #000000; stroke-width: 0.8"/>
      </g>
     </g>
     <g id="text_1">
      <!-- 0.0 -->
      <g transform="translate(52.062415 303.028562) scale(0.1 -0.1)">
       <defs>
        <path id="DejaVuSans-30" d="M 2034 4250 
Q 1547 4250 1301 3770 
Q 1056 3291 1056 2328 
Q 1056 1369 1301 889 
Q 1547 409 2034 409 
Q 2525 409 2770 889 
Q 3016 1369 3016 2328 
Q 3016 3291 2770 3770 
Q 2525 4250 2034 4250 
z
M 2034 4750 
Q 2819 4750 3233 4129 
Q 3647 3509 3647 2328 
Q 3647 1150 3233 529 
Q 2819 -91 2034 -91 
Q 1250 -91 836 529 
Q 422 1150 422 2328 
Q 422 3509 836 4129 
Q 1250 4750 2034 4750 
z
" transform="scale(0.015625)"/>
        <path id="DejaVuSans-2e" d="M 684 794 
L 1344 794 
L 1344 0 
L 684 0 
L 684 794 
z
" transform="scale(0.015625)"/>
       </defs>
       <use xlink:href="#DejaVuSans-30"/>
       <use xlink:href="#DejaVuSans-2e" transform="translate(63.623047 0)"/>
       <use xlink:href="#DejaVuSans-30" transform="translate(95.410156 0)"/>
      </g>
     </g>
    </g>
    <g id="xtick_2">
     <g id="line2d_3">
      <path d="M 124.944886 288.430125 
L 124.944886 22.318125 
" clip-path="url(#pd837ec7ca7)" style="fill: none; stroke: #b0b0b0; stroke-width: 0.8; stroke-linecap: square"/>
     </g>
     <g id="line2d_4">
      <g>
       <use xlink:href="#m0e504725d6" x="124.944886" y="288.430125" style="stroke: #000000; stroke-width: 0.8"/>
      </g>
     </g>
     <g id="text_2">
      <!-- 0.2 -->
      <g transform="translate(116.993324 303.028562) scale(0.1 -0.1)">
       <defs>
        <path id="DejaVuSans-32" d="M 1228 531 
L 3431 531 
L 3431 0 
L 469 0 
L 469 531 
Q 828 903 1448 1529 
Q 2069 2156 2228 2338 
Q 2531 2678 2651 2914 
Q 2772 3150 2772 3378 
Q 2772 3750 2511 3984 
Q 2250 4219 1831 4219 
Q 1534 4219 1204 4116 
Q 875 4013 500 3803 
L 500 4441 
Q 881 4594 1212 4672 
Q 1544 4750 1819 4750 
Q 2544 4750 2975 4387 
Q 3406 4025 3406 3419 
Q 3406 3131 3298 2873 
Q 3191 2616 2906 2266 
Q 2828 2175 2409 1742 
Q 1991 1309 1228 531 
z
" transform="scale(0.015625)"/>
       </defs>
       <use xlink:href="#DejaVuSans-30"/>
       <use xlink:href="#DejaVuSans-2e" transform="translate(63.623047 0)"/>
       <use xlink:href="#DejaVuSans-32" transform="translate(95.410156 0)"/>
      </g>
     </g>
    </g>
    <g id="xtick_3">
     <g id="line2d_5">
      <path d="M 189.875795 288.430125 
L 189.875795 22.318125 
" clip-path="url(#pd837ec7ca7)" style="fill: none; stroke: #b0b0b0; stroke-width: 0.8; stroke-linecap: square"/>
     </g>
     <g id="line2d_6">
      <g>
       <use xlink:href="#m0e504725d6" x="189.875795" y="288.430125" style="stroke: #000000; stroke-width: 0.8"/>
      </g>
     </g>
     <g id="text_3">
      <!-- 0.4 -->
      <g transform="translate(181.924233 303.028562) scale(0.1 -0.1)">
       <defs>
        <path id="DejaVuSans-34" d="M 2419 4116 
L 825 1625 
L 2419 1625 
L 2419 4116 
z
M 2253 4666 
L 3047 4666 
L 3047 1625 
L 3713 1625 
L 3713 1100 
L 3047 1100 
L 3047 0 
L 2419 0 
L 2419 1100 
L 313 1100 
L 313 1709 
L 2253 4666 
z
" transform="scale(0.015625)"/>
       </defs>
       <use xlink:href="#DejaVuSans-30"/>
       <use xlink:href="#DejaVuSans-2e" transform="translate(63.623047 0)"/>
       <use xlink:href="#DejaVuSans-34" transform="translate(95.410156 0)"/>
      </g>
     </g>
    </g>
    <g id="xtick_4">
     <g id="line2d_7">
      <path d="M 254.806705 288.430125 
L 254.806705 22.318125 
" clip-path="url(#pd837ec7ca7)" style="fill: none; stroke: #b0b0b0; stroke-width: 0.8; stroke-linecap: square"/>
     </g>
     <g id="line2d_8">
      <g>
       <use xlink:href="#m0e504725d6" x="254.806705" y="288.430125" style="stroke: #000000; stroke-width: 0.8"/>
      </g>
     </g>
     <g id="text_4">
      <!-- 0.6 -->
      <g transform="translate(246.855142 303.028562) scale(0.1 -0.1)">
       <defs>
        <path id="DejaVuSans-36" d="M 2113 2584 
Q 1688 2584 1439 2293 
Q 1191 2003 1191 1497 
Q 1191 994 1439 701 
Q 1688 409 2113 409 
Q 2538 409 2786 701 
Q 3034 994 3034 1497 
Q 3034 2003 2786 2293 
Q 2538 2584 2113 2584 
z
M 3366 4563 
L 3366 3988 
Q 3128 4100 2886 4159 
Q 2644 4219 2406 4219 
Q 1781 4219 1451 3797 
Q 1122 3375 1075 2522 
Q 1259 2794 1537 2939 
Q 1816 3084 2150 3084 
Q 2853 3084 3261 2657 
Q 3669 2231 3669 1497 
Q 3669 778 3244 343 
Q 2819 -91 2113 -91 
Q 1303 -91 875 529 
Q 447 1150 447 2328 
Q 447 3434 972 4092 
Q 1497 4750 2381 4750 
Q 2619 4750 2861 4703 
Q 3103 4656 3366 4563 
z
" transform="scale(0.015625)"/>
       </defs>
       <use xlink:href="#DejaVuSans-30"/>
       <use xlink:href="#DejaVuSans-2e" transform="translate(63.623047 0)"/>
       <use xlink:href="#DejaVuSans-36" transform="translate(95.410156 0)"/>
      </g>
     </g>
    </g>
    <g id="xtick_5">
     <g id="line2d_9">
      <path d="M 319.737614 288.430125 
L 319.737614 22.318125 
" clip-path="url(#pd837ec7ca7)" style="fill: none; stroke: #b0b0b0; stroke-width: 0.8; stroke-linecap: square"/>
     </g>
     <g id="line2d_10">
      <g>
       <use xlink:href="#m0e504725d6" x="319.737614" y="288.430125" style="stroke: #000000; stroke-width: 0.8"/>
      </g>
     </g>
     <g id="text_5">
      <!-- 0.8 -->
      <g transform="translate(311.786051 303.028562) scale(0.1 -0.1)">
       <defs>
        <path id="DejaVuSans-38" d="M 2034 2216 
Q 1584 2216 1326 1975 
Q 1069 1734 1069 1313 
Q 1069 891 1326 650 
Q 1584 409 2034 409 
Q 2484 409 2743 651 
Q 3003 894 3003 1313 
Q 3003 1734 2745 1975 
Q 2488 2216 2034 2216 
z
M 1403 2484 
Q 997 2584 770 2862 
Q 544 3141 544 3541 
Q 544 4100 942 4425 
Q 1341 4750 2034 4750 
Q 2731 4750 3128 4425 
Q 3525 4100 3525 3541 
Q 3525 3141 3298 2862 
Q 3072 2584 2669 2484 
Q 3125 2378 3379 2068 
Q 3634 1759 3634 1313 
Q 3634 634 3220 271 
Q 2806 -91 2034 -91 
Q 1263 -91 848 271 
Q 434 634 434 1313 
Q 434 1759 690 2068 
Q 947 2378 1403 2484 
z
M 1172 3481 
Q 1172 3119 1398 2916 
Q 1625 2713 2034 2713 
Q 2441 2713 2670 2916 
Q 2900 3119 2900 3481 
Q 2900 3844 2670 4047 
Q 2441 4250 2034 4250 
Q 1625 4250 1398 4047 
Q 1172 3844 1172 3481 
z
" transform="scale(0.015625)"/>
       </defs>
       <use xlink:href="#DejaVuSans-30"/>
       <use xlink:href="#DejaVuSans-2e" transform="translate(63.623047 0)"/>
       <use xlink:href="#DejaVuSans-38" transform="translate(95.410156 0)"/>
      </g>
     </g>
    </g>
    <g id="xtick_6">
     <g id="line2d_11">
      <path d="M 384.668523 288.430125 
L 384.668523 22.318125 
" clip-path="url(#pd837ec7ca7)" style="fill: none; stroke: #b0b0b0; stroke-width: 0.8; stroke-linecap: square"/>
     </g>
     <g id="line2d_12">
      <g>
       <use xlink:href="#m0e504725d6" x="384.668523" y="288.430125" style="stroke: #000000; stroke-width: 0.8"/>
      </g>
     </g>
     <g id="text_6">
      <!-- 1.0 -->
      <g transform="translate(376.71696 303.028562) scale(0.1 -0.1)">
       <defs>
        <path id="DejaVuSans-31" d="M 794 531 
L 1825 531 
L 1825 4091 
L 703 3866 
L 703 4441 
L 1819 4666 
L 2450 4666 
L 2450 531 
L 3481 531 
L 3481 0 
L 794 0 
L 794 531 
z
" transform="scale(0.015625)"/>
       </defs>
       <use xlink:href="#DejaVuSans-31"/>
       <use xlink:href="#DejaVuSans-2e" transform="translate(63.623047 0)"/>
       <use xlink:href="#DejaVuSans-30" transform="translate(95.410156 0)"/>
      </g>
     </g>
    </g>
    <g id="text_7">
     <!-- Allele frequency -->
     <g transform="translate(181.935 316.706687) scale(0.1 -0.1)">
      <defs>
       <path id="DejaVuSans-41" d="M 2188 4044 
L 1331 1722 
L 3047 1722 
L 2188 4044 
z
M 1831 4666 
L 2547 4666 
L 4325 0 
L 3669 0 
L 3244 1197 
L 1141 1197 
L 716 0 
L 50 0 
L 1831 4666 
z
" transform="scale(0.015625)"/>
       <path id="DejaVuSans-6c" d="M 603 4863 
L 1178 4863 
L 1178 0 
L 603 0 
L 603 4863 
z
" transform="scale(0.015625)"/>
       <path id="DejaVuSans-65" d="M 3597 1894 
L 3597 1613 
L 953 1613 
Q 991 1019 1311 708 
Q 1631 397 2203 397 
Q 2534 397 2845 478 
Q 3156 559 3463 722 
L 3463 178 
Q 3153 47 2828 -22 
Q 2503 -91 2169 -91 
Q 1331 -91 842 396 
Q 353 884 353 1716 
Q 353 2575 817 3079 
Q 1281 3584 2069 3584 
Q 2775 3584 3186 3129 
Q 3597 2675 3597 1894 
z
M 3022 2063 
Q 3016 2534 2758 2815 
Q 2500 3097 2075 3097 
Q 1594 3097 1305 2825 
Q 1016 2553 972 2059 
L 3022 2063 
z
" transform="scale(0.015625)"/>
       <path id="DejaVuSans-20" transform="scale(0.015625)"/>
       <path id="DejaVuSans-66" d="M 2375 4863 
L 2375 4384 
L 1825 4384 
Q 1516 4384 1395 4259 
Q 1275 4134 1275 3809 
L 1275 3500 
L 2222 3500 
L 2222 3053 
L 1275 3053 
L 1275 0 
L 697 0 
L 697 3053 
L 147 3053 
L 147 3500 
L 697 3500 
L 697 3744 
Q 697 4328 969 4595 
Q 1241 4863 1831 4863 
L 2375 4863 
z
" transform="scale(0.015625)"/>
       <path id="DejaVuSans-72" d="M 2631 2963 
Q 2534 3019 2420 3045 
Q 2306 3072 2169 3072 
Q 1681 3072 1420 2755 
Q 1159 2438 1159 1844 
L 1159 0 
L 581 0 
L 581 3500 
L 1159 3500 
L 1159 2956 
Q 1341 3275 1631 3429 
Q 1922 3584 2338 3584 
Q 2397 3584 2469 3576 
Q 2541 3569 2628 3553 
L 2631 2963 
z
" transform="scale(0.015625)"/>
       <path id="DejaVuSans-71" d="M 947 1747 
Q 947 1113 1208 752 
Q 1469 391 1925 391 
Q 2381 391 2643 752 
Q 2906 1113 2906 1747 
Q 2906 2381 2643 2742 
Q 2381 3103 1925 3103 
Q 1469 3103 1208 2742 
Q 947 2381 947 1747 
z
M 2906 525 
Q 2725 213 2448 61 
Q 2172 -91 1784 -91 
Q 1150 -91 751 415 
Q 353 922 353 1747 
Q 353 2572 751 3078 
Q 1150 3584 1784 3584 
Q 2172 3584 2448 3432 
Q 2725 3281 2906 2969 
L 2906 3500 
L 3481 3500 
L 3481 -1331 
L 2906 -1331 
L 2906 525 
z
" transform="scale(0.015625)"/>
       <path id="DejaVuSans-75" d="M 544 1381 
L 544 3500 
L 1119 3500 
L 1119 1403 
Q 1119 906 1312 657 
Q 1506 409 1894 409 
Q 2359 409 2629 706 
Q 2900 1003 2900 1516 
L 2900 3500 
L 3475 3500 
L 3475 0 
L 2900 0 
L 2900 538 
Q 2691 219 2414 64 
Q 2138 -91 1772 -91 
Q 1169 -91 856 284 
Q 544 659 544 1381 
z
M 1991 3584 
L 1991 3584 
z
" transform="scale(0.015625)"/>
       <path id="DejaVuSans-6e" d="M 3513 2113 
L 3513 0 
L 2938 0 
L 2938 2094 
Q 2938 2591 2744 2837 
Q 2550 3084 2163 3084 
Q 1697 3084 1428 2787 
Q 1159 2491 1159 1978 
L 1159 0 
L 581 0 
L 581 3500 
L 1159 3500 
L 1159 2956 
Q 1366 3272 1645 3428 
Q 1925 3584 2291 3584 
Q 2894 3584 3203 3211 
Q 3513 2838 3513 2113 
z
" transform="scale(0.015625)"/>
       <path id="DejaVuSans-63" d="M 3122 3366 
L 3122 2828 
Q 2878 2963 2633 3030 
Q 2388 3097 2138 3097 
Q 1578 3097 1268 2742 
Q 959 2388 959 1747 
Q 959 1106 1268 751 
Q 1578 397 2138 397 
Q 2388 397 2633 464 
Q 2878 531 3122 666 
L 3122 134 
Q 2881 22 2623 -34 
Q 2366 -91 2075 -91 
Q 1284 -91 818 406 
Q 353 903 353 1747 
Q 353 2603 823 3093 
Q 1294 3584 2113 3584 
Q 2378 3584 2631 3529 
Q 2884 3475 3122 3366 
z
" transform="scale(0.015625)"/>
       <path id="DejaVuSans-79" d="M 2059 -325 
Q 1816 -950 1584 -1140 
Q 1353 -1331 966 -1331 
L 506 -1331 
L 506 -850 
L 844 -850 
Q 1081 -850 1212 -737 
Q 1344 -625 1503 -206 
L 1606 56 
L 191 3500 
L 800 3500 
L 1894 763 
L 2988 3500 
L 3597 3500 
L 2059 -325 
z
" transform="scale(0.015625)"/>
      </defs>
      <use xlink:href="#DejaVuSans-41"/>
      <use xlink:href="#DejaVuSans-6c" transform="translate(68.408203 0)"/>
      <use xlink:href="#DejaVuSans-6c" transform="translate(96.191406 0)"/>
      <use xlink:href="#DejaVuSans-65" transform="translate(123.974609 0)"/>
      <use xlink:href="#DejaVuSans-6c" transform="translate(185.498047 0)"/>
      <use xlink:href="#DejaVuSans-65" transform="translate(213.28125 0)"/>
      <use xlink:href="#DejaVuSans-20" transform="translate(274.804688 0)"/>
      <use xlink:href="#DejaVuSans-66" transform="translate(306.591797 0)"/>
      <use xlink:href="#DejaVuSans-72" transform="translate(341.796875 0)"/>
      <use xlink:href="#DejaVuSans-65" transform="translate(380.660156 0)"/>
      <use xlink:href="#DejaVuSans-71" transform="translate(442.183594 0)"/>
      <use xlink:href="#DejaVuSans-75" transform="translate(505.660156 0)"/>
      <use xlink:href="#DejaVuSans-65" transform="translate(569.039062 0)"/>
      <use xlink:href="#DejaVuSans-6e" transform="translate(630.5625 0)"/>
      <use xlink:href="#DejaVuSans-63" transform="translate(693.941406 0)"/>
      <use xlink:href="#DejaVuSans-79" transform="translate(748.921875 0)"/>
     </g>
    </g>
   </g>
   <g id="matplotlib.axis_2">
    <g id="ytick_1">
     <g id="line2d_13">
      <path d="M 43.78125 288.430125 
L 400.90125 288.430125 
" clip-path="url(#pd837ec7ca7)" style="fill: none; stroke: #b0b0b0; stroke-width: 0.8; stroke-linecap: square"/>
     </g>
     <g id="line2d_14">
      <defs>
       <path id="md2c2605ade" d="M 0 0 
L -3.5 0 
" style="stroke: #000000; stroke-width: 0.8"/>
      </defs>
      <g>
       <use xlink:href="#md2c2605ade" x="43.78125" y="288.430125" style="stroke: #000000; stroke-width: 0.8"/>
      </g>
     </g>
     <g id="text_8">
      <!-- 0.0 -->
      <g transform="translate(20.878125 292.229344) scale(0.1 -0.1)">
       <use xlink:href="#DejaVuSans-30"/>
       <use xlink:href="#DejaVuSans-2e" transform="translate(63.623047 0)"/>
       <use xlink:href="#DejaVuSans-30" transform="translate(95.410156 0)"/>
      </g>
     </g>
    </g>
    <g id="ytick_2">
     <g id="line2d_15">
      <path d="M 43.78125 232.760568 
L 400.90125 232.760568 
" clip-path="url(#pd837ec7ca7)" style="fill: none; stroke: #b0b0b0; stroke-width: 0.8; stroke-linecap: square"/>
     </g>
     <g id="line2d_16">
      <g>
       <use xlink:href="#md2c2605ade" x="43.78125" y="232.760568" style="stroke: #000000; stroke-width: 0.8"/>
      </g>
     </g>
     <g id="text_9">
      <!-- 0.5 -->
      <g transform="translate(20.878125 236.559787) scale(0.1 -0.1)">
       <defs>
        <path id="DejaVuSans-35" d="M 691 4666 
L 3169 4666 
L 3169 4134 
L 1269 4134 
L 1269 2991 
Q 1406 3038 1543 3061 
Q 1681 3084 1819 3084 
Q 2600 3084 3056 2656 
Q 3513 2228 3513 1497 
Q 3513 744 3044 326 
Q 2575 -91 1722 -91 
Q 1428 -91 1123 -41 
Q 819 9 494 109 
L 494 744 
Q 775 591 1075 516 
Q 1375 441 1709 441 
Q 2250 441 2565 725 
Q 2881 1009 2881 1497 
Q 2881 1984 2565 2268 
Q 2250 2553 1709 2553 
Q 1456 2553 1204 2497 
Q 953 2441 691 2322 
L 691 4666 
z
" transform="scale(0.015625)"/>
       </defs>
       <use xlink:href="#DejaVuSans-30"/>
       <use xlink:href="#DejaVuSans-2e" transform="translate(63.623047 0)"/>
       <use xlink:href="#DejaVuSans-35" transform="translate(95.410156 0)"/>
      </g>
     </g>
    </g>
    <g id="ytick_3">
     <g id="line2d_17">
      <path d="M 43.78125 177.091011 
L 400.90125 177.091011 
" clip-path="url(#pd837ec7ca7)" style="fill: none; stroke: #b0b0b0; stroke-width: 0.8; stroke-linecap: square"/>
     </g>
     <g id="line2d_18">
      <g>
       <use xlink:href="#md2c2605ade" x="43.78125" y="177.091011" style="stroke: #000000; stroke-width: 0.8"/>
      </g>
     </g>
     <g id="text_10">
      <!-- 1.0 -->
      <g transform="translate(20.878125 180.89023) scale(0.1 -0.1)">
       <use xlink:href="#DejaVuSans-31"/>
       <use xlink:href="#DejaVuSans-2e" transform="translate(63.623047 0)"/>
       <use xlink:href="#DejaVuSans-30" transform="translate(95.410156 0)"/>
      </g>
     </g>
    </g>
    <g id="ytick_4">
     <g id="line2d_19">
      <path d="M 43.78125 121.421454 
L 400.90125 121.421454 
" clip-path="url(#pd837ec7ca7)" style="fill: none; stroke: #b0b0b0; stroke-width: 0.8; stroke-linecap: square"/>
     </g>
     <g id="line2d_20">
      <g>
       <use xlink:href="#md2c2605ade" x="43.78125" y="121.421454" style="stroke: #000000; stroke-width: 0.8"/>
      </g>
     </g>
     <g id="text_11">
      <!-- 1.5 -->
      <g transform="translate(20.878125 125.220673) scale(0.1 -0.1)">
       <use xlink:href="#DejaVuSans-31"/>
       <use xlink:href="#DejaVuSans-2e" transform="translate(63.623047 0)"/>
       <use xlink:href="#DejaVuSans-35" transform="translate(95.410156 0)"/>
      </g>
     </g>
    </g>
    <g id="ytick_5">
     <g id="line2d_21">
      <path d="M 43.78125 65.751897 
L 400.90125 65.751897 
" clip-path="url(#pd837ec7ca7)" style="fill: none; stroke: #b0b0b0; stroke-width: 0.8; stroke-linecap: square"/>
     </g>
     <g id="line2d_22">
      <g>
       <use xlink:href="#md2c2605ade" x="43.78125" y="65.751897" style="stroke: #000000; stroke-width: 0.8"/>
      </g>
     </g>
     <g id="text_12">
      <!-- 2.0 -->
      <g transform="translate(20.878125 69.551116) scale(0.1 -0.1)">
       <use xlink:href="#DejaVuSans-32"/>
       <use xlink:href="#DejaVuSans-2e" transform="translate(63.623047 0)"/>
       <use xlink:href="#DejaVuSans-30" transform="translate(95.410156 0)"/>
      </g>
     </g>
    </g>
    <g id="text_13">
     <!-- Count -->
     <g transform="translate(14.798438 170.222562) rotate(-90) scale(0.1 -0.1)">
      <defs>
       <path id="DejaVuSans-43" d="M 4122 4306 
L 4122 3641 
Q 3803 3938 3442 4084 
Q 3081 4231 2675 4231 
Q 1875 4231 1450 3742 
Q 1025 3253 1025 2328 
Q 1025 1406 1450 917 
Q 1875 428 2675 428 
Q 3081 428 3442 575 
Q 3803 722 4122 1019 
L 4122 359 
Q 3791 134 3420 21 
Q 3050 -91 2638 -91 
Q 1578 -91 968 557 
Q 359 1206 359 2328 
Q 359 3453 968 4101 
Q 1578 4750 2638 4750 
Q 3056 4750 3426 4639 
Q 3797 4528 4122 4306 
z
" transform="scale(0.015625)"/>
       <path id="DejaVuSans-6f" d="M 1959 3097 
Q 1497 3097 1228 2736 
Q 959 2375 959 1747 
Q 959 1119 1226 758 
Q 1494 397 1959 397 
Q 2419 397 2687 759 
Q 2956 1122 2956 1747 
Q 2956 2369 2687 2733 
Q 2419 3097 1959 3097 
z
M 1959 3584 
Q 2709 3584 3137 3096 
Q 3566 2609 3566 1747 
Q 3566 888 3137 398 
Q 2709 -91 1959 -91 
Q 1206 -91 779 398 
Q 353 888 353 1747 
Q 353 2609 779 3096 
Q 1206 3584 1959 3584 
z
" transform="scale(0.015625)"/>
       <path id="DejaVuSans-74" d="M 1172 4494 
L 1172 3500 
L 2356 3500 
L 2356 3053 
L 1172 3053 
L 1172 1153 
Q 1172 725 1289 603 
Q 1406 481 1766 481 
L 2356 481 
L 2356 0 
L 1766 0 
Q 1100 0 847 248 
Q 594 497 594 1153 
L 594 3053 
L 172 3053 
L 172 3500 
L 594 3500 
L 594 4494 
L 1172 4494 
z
" transform="scale(0.015625)"/>
      </defs>
      <use xlink:href="#DejaVuSans-43"/>
      <use xlink:href="#DejaVuSans-6f" transform="translate(69.824219 0)"/>
      <use xlink:href="#DejaVuSans-75" transform="translate(131.005859 0)"/>
      <use xlink:href="#DejaVuSans-6e" transform="translate(194.384766 0)"/>
      <use xlink:href="#DejaVuSans-74" transform="translate(257.763672 0)"/>
     </g>
    </g>
    <g id="text_14">
     <!-- 1e6 -->
     <g transform="translate(43.78125 19.318125) scale(0.1 -0.1)">
      <use xlink:href="#DejaVuSans-31"/>
      <use xlink:href="#DejaVuSans-65" transform="translate(63.623047 0)"/>
      <use xlink:href="#DejaVuSans-36" transform="translate(125.146484 0)"/>
     </g>
    </g>
   </g>
   <g id="patch_53">
    <path d="M 43.78125 288.430125 
L 43.78125 22.318125 
" style="fill: none; stroke: #000000; stroke-width: 0.8; stroke-linejoin: miter; stroke-linecap: square"/>
   </g>
   <g id="patch_54">
    <path d="M 400.90125 288.430125 
L 400.90125 22.318125 
" style="fill: none; stroke: #000000; stroke-width: 0.8; stroke-linejoin: miter; stroke-linecap: square"/>
   </g>
   <g id="patch_55">
    <path d="M 43.78125 288.430125 
L 400.90125 288.430125 
" style="fill: none; stroke: #000000; stroke-width: 0.8; stroke-linejoin: miter; stroke-linecap: square"/>
   </g>
   <g id="patch_56">
    <path d="M 43.78125 22.318125 
L 400.90125 22.318125 
" style="fill: none; stroke: #000000; stroke-width: 0.8; stroke-linejoin: miter; stroke-linecap: square"/>
   </g>
   <g id="text_15">
    <!-- Allele frequency distribution -->
    <g transform="translate(137.755313 16.318125) scale(0.12 -0.12)">
     <defs>
      <path id="DejaVuSans-64" d="M 2906 2969 
L 2906 4863 
L 3481 4863 
L 3481 0 
L 2906 0 
L 2906 525 
Q 2725 213 2448 61 
Q 2172 -91 1784 -91 
Q 1150 -91 751 415 
Q 353 922 353 1747 
Q 353 2572 751 3078 
Q 1150 3584 1784 3584 
Q 2172 3584 2448 3432 
Q 2725 3281 2906 2969 
z
M 947 1747 
Q 947 1113 1208 752 
Q 1469 391 1925 391 
Q 2381 391 2643 752 
Q 2906 1113 2906 1747 
Q 2906 2381 2643 2742 
Q 2381 3103 1925 3103 
Q 1469 3103 1208 2742 
Q 947 2381 947 1747 
z
" transform="scale(0.015625)"/>
      <path id="DejaVuSans-69" d="M 603 3500 
L 1178 3500 
L 1178 0 
L 603 0 
L 603 3500 
z
M 603 4863 
L 1178 4863 
L 1178 4134 
L 603 4134 
L 603 4863 
z
" transform="scale(0.015625)"/>
      <path id="DejaVuSans-73" d="M 2834 3397 
L 2834 2853 
Q 2591 2978 2328 3040 
Q 2066 3103 1784 3103 
Q 1356 3103 1142 2972 
Q 928 2841 928 2578 
Q 928 2378 1081 2264 
Q 1234 2150 1697 2047 
L 1894 2003 
Q 2506 1872 2764 1633 
Q 3022 1394 3022 966 
Q 3022 478 2636 193 
Q 2250 -91 1575 -91 
Q 1294 -91 989 -36 
Q 684 19 347 128 
L 347 722 
Q 666 556 975 473 
Q 1284 391 1588 391 
Q 1994 391 2212 530 
Q 2431 669 2431 922 
Q 2431 1156 2273 1281 
Q 2116 1406 1581 1522 
L 1381 1569 
Q 847 1681 609 1914 
Q 372 2147 372 2553 
Q 372 3047 722 3315 
Q 1072 3584 1716 3584 
Q 2034 3584 2315 3537 
Q 2597 3491 2834 3397 
z
" transform="scale(0.015625)"/>
      <path id="DejaVuSans-62" d="M 3116 1747 
Q 3116 2381 2855 2742 
Q 2594 3103 2138 3103 
Q 1681 3103 1420 2742 
Q 1159 2381 1159 1747 
Q 1159 1113 1420 752 
Q 1681 391 2138 391 
Q 2594 391 2855 752 
Q 3116 1113 3116 1747 
z
M 1159 2969 
Q 1341 3281 1617 3432 
Q 1894 3584 2278 3584 
Q 2916 3584 3314 3078 
Q 3713 2572 3713 1747 
Q 3713 922 3314 415 
Q 2916 -91 2278 -91 
Q 1894 -91 1617 61 
Q 1341 213 1159 525 
L 1159 0 
L 581 0 
L 581 4863 
L 1159 4863 
L 1159 2969 
z
" transform="scale(0.015625)"/>
     </defs>
     <use xlink:href="#DejaVuSans-41"/>
     <use xlink:href="#DejaVuSans-6c" transform="translate(68.408203 0)"/>
     <use xlink:href="#DejaVuSans-6c" transform="translate(96.191406 0)"/>
     <use xlink:href="#DejaVuSans-65" transform="translate(123.974609 0)"/>
     <use xlink:href="#DejaVuSans-6c" transform="translate(185.498047 0)"/>
     <use xlink:href="#DejaVuSans-65" transform="translate(213.28125 0)"/>
     <use xlink:href="#DejaVuSans-20" transform="translate(274.804688 0)"/>
     <use xlink:href="#DejaVuSans-66" transform="translate(306.591797 0)"/>
     <use xlink:href="#DejaVuSans-72" transform="translate(341.796875 0)"/>
     <use xlink:href="#DejaVuSans-65" transform="translate(380.660156 0)"/>
     <use xlink:href="#DejaVuSans-71" transform="translate(442.183594 0)"/>
     <use xlink:href="#DejaVuSans-75" transform="translate(505.660156 0)"/>
     <use xlink:href="#DejaVuSans-65" transform="translate(569.039062 0)"/>
     <use xlink:href="#DejaVuSans-6e" transform="translate(630.5625 0)"/>
     <use xlink:href="#DejaVuSans-63" transform="translate(693.941406 0)"/>
     <use xlink:href="#DejaVuSans-79" transform="translate(748.921875 0)"/>
     <use xlink:href="#DejaVuSans-20" transform="translate(808.101562 0)"/>
     <use xlink:href="#DejaVuSans-64" transform="translate(839.888672 0)"/>
     <use xlink:href="#DejaVuSans-69" transform="translate(903.365234 0)"/>
     <use xlink:href="#DejaVuSans-73" transform="translate(931.148438 0)"/>
     <use xlink:href="#DejaVuSans-74" transform="translate(983.248047 0)"/>
     <use xlink:href="#DejaVuSans-72" transform="translate(1022.457031 0)"/>
     <use xlink:href="#DejaVuSans-69" transform="translate(1063.570312 0)"/>
     <use xlink:href="#DejaVuSans-62" transform="translate(1091.353516 0)"/>
     <use xlink:href="#DejaVuSans-75" transform="translate(1154.830078 0)"/>
     <use xlink:href="#DejaVuSans-74" transform="translate(1218.208984 0)"/>
     <use xlink:href="#DejaVuSans-69" transform="translate(1257.417969 0)"/>
     <use xlink:href="#DejaVuSans-6f" transform="translate(1285.201172 0)"/>
     <use xlink:href="#DejaVuSans-6e" transform="translate(1346.382812 0)"/>
    </g>
   </g>
  </g>
 </g>
 <defs>
  <clipPath id="pd837ec7ca7">
   <rect x="43.78125" y="22.318125" width="357.12" height="266.112"/>
  </clipPath>
 </defs>
</svg>
