<?xml version="1.0" encoding="UTF-8" standalone="no"?>
<!DOCTYPE svg PUBLIC "-//W3C//DTD SVG 1.1//EN"
 "http://www.w3.org/Graphics/SVG/1.1/DTD/svg11.dtd">
<!-- Generated by graphviz version 14.1.2 (20260126.1125)
 -->
<!-- Pages: 1 -->
<svg width="504pt" height="153pt"
 viewBox="0.00 0.00 504.00 153.00" xmlns="http://www.w3.org/2000/svg" xmlns:xlink="http://www.w3.org/1999/xlink">
<g id="graph0" class="graph" transform="scale(0.309573 0.309573) rotate(0) translate(36 458.6)">
<polygon fill="#ffffff" stroke="none" points="-36,36 -36,-458.6 1592.05,-458.6 1592.05,36 -36,36"/>
<!-- 0 -->
<g id="node1" class="node">
<title>0</title>
<ellipse fill="#bbbbbb" stroke="black" cx="27" cy="-119.6" rx="27" ry="18"/>
<text xml:space="preserve" text-anchor="middle" x="27" y="-115.32" font-family="Helvetica,Arial,sans-serif" font-size="12.00">S</text>
</g>
<!-- 1 -->
<g id="node2" class="node">
<title>1</title>
<ellipse fill="#eeeeee" stroke="black" cx="183.88" cy="-119.6" rx="57.88" ry="18"/>
<text xml:space="preserve" text-anchor="middle" x="183.88" y="-115.32" font-family="Helvetica,Arial,sans-serif" font-size="12.00">4,0,0,0,0,0,0,0</text>
</g>
<!-- 0&#45;&gt;1 -->
<g id="edge1" class="edge">
<title>0&#45;&gt;1</title>
<path fill="none" stroke="#b41c46" d="M54.27,-119.6C70.81,-119.6 92.97,-119.6 114.24,-119.6"/>
<polygon fill="#b41c46" stroke="#b41c46" points="114.07,-123.1 124.07,-119.6 114.07,-116.1 114.07,-123.1"/>
<text xml:space="preserve" text-anchor="middle" x="78.16" y="-108.2" font-family="Helvetica,Arial,sans-serif" font-size="12.00" fill="#b41c46">1.00</text>
</g>
<!-- 2 -->
<g id="node3" class="node">
<title>2</title>
<ellipse fill="#eeeeee" stroke="black" cx="559.39" cy="-215.6" rx="57.88" ry="18"/>
<text xml:space="preserve" text-anchor="middle" x="559.39" y="-211.32" font-family="Helvetica,Arial,sans-serif" font-size="12.00">2,1,0,0,0,0,0,0</text>
</g>
<!-- 1&#45;&gt;2 -->
<g id="edge2" class="edge">
<title>1&#45;&gt;2</title>
<path fill="none" stroke="#85511a" d="M229.56,-131.08C297.99,-148.67 428.59,-182.24 502.95,-201.35"/>
<polygon fill="#85511a" stroke="#85511a" points="501.92,-204.7 512.48,-203.8 503.67,-197.92 501.92,-204.7"/>
<text xml:space="preserve" text-anchor="middle" x="360.1" y="-156.22" font-family="Helvetica,Arial,sans-serif" font-size="12.00" fill="#85511a">6.00</text>
</g>
<!-- 3 -->
<g id="node4" class="node">
<title>3</title>
<ellipse fill="#eeeeee" stroke="black" cx="371.63" cy="-119.6" rx="57.88" ry="18"/>
<text xml:space="preserve" text-anchor="middle" x="371.63" y="-115.32" font-family="Helvetica,Arial,sans-serif" font-size="12.00">3,0,0,0,1,0,0,0</text>
</g>
<!-- 1&#45;&gt;3 -->
<g id="edge3" class="edge">
<title>1&#45;&gt;3</title>
<path fill="none" stroke="#685e1a" d="M233.2,-109.92C256.97,-108.54 285.84,-108.35 310.98,-109.37"/>
<polygon fill="#685e1a" stroke="#685e1a" points="310.56,-112.85 320.72,-109.84 310.9,-105.86 310.56,-112.85"/>
<text xml:space="preserve" text-anchor="middle" x="266.21" y="-97.32" font-family="Helvetica,Arial,sans-serif" font-size="12.00" fill="#685e1a">4.00</text>
</g>
<!-- 4 -->
<g id="node5" class="node">
<title>4</title>
<ellipse fill="#eeeeee" stroke="black" cx="934.9" cy="-277.6" rx="57.88" ry="18"/>
<text xml:space="preserve" text-anchor="middle" x="934.9" y="-273.32" font-family="Helvetica,Arial,sans-serif" font-size="12.00">0,2,0,0,0,0,0,0</text>
</g>
<!-- 2&#45;&gt;4 -->
<g id="edge4" class="edge">
<title>2&#45;&gt;4</title>
<path fill="none" stroke="#46671a" d="M602.74,-227.95C627.73,-234.87 660.09,-243.16 689.27,-248.6 749.14,-259.76 818.1,-267.48 867.52,-272.13"/>
<polygon fill="#46671a" stroke="#46671a" points="866.91,-275.59 877.19,-273.02 867.55,-268.62 866.91,-275.59"/>
<text xml:space="preserve" text-anchor="middle" x="728.21" y="-245.59" font-family="Helvetica,Arial,sans-serif" font-size="12.00" fill="#46671a">1.00</text>
</g>
<!-- 5 -->
<g id="node6" class="node">
<title>5</title>
<ellipse fill="#eeeeee" stroke="black" cx="934.9" cy="-342.6" rx="57.88" ry="18"/>
<text xml:space="preserve" text-anchor="middle" x="934.9" y="-338.32" font-family="Helvetica,Arial,sans-serif" font-size="12.00">1,0,1,0,0,0,0,0</text>
</g>
<!-- 2&#45;&gt;5 -->
<g id="edge5" class="edge">
<title>2&#45;&gt;5</title>
<path fill="none" stroke="#1b6a48" d="M588.84,-231.55C614.49,-245.43 653.54,-265.34 689.27,-278.6 751.07,-301.53 824.53,-319.58 874.71,-330.58"/>
<polygon fill="#1b6a48" stroke="#1b6a48" points="873.69,-333.94 884.2,-332.64 875.17,-327.1 873.69,-333.94"/>
<text xml:space="preserve" text-anchor="middle" x="721.8" y="-282.25" font-family="Helvetica,Arial,sans-serif" font-size="12.00" fill="#1b6a48">2.00</text>
</g>
<!-- 6 -->
<g id="node7" class="node">
<title>6</title>
<ellipse fill="#eeeeee" stroke="black" cx="747.15" cy="-150.6" rx="57.88" ry="18"/>
<text xml:space="preserve" text-anchor="middle" x="747.15" y="-146.32" font-family="Helvetica,Arial,sans-serif" font-size="12.00">1,1,0,0,1,0,0,0</text>
</g>
<!-- 2&#45;&gt;6 -->
<g id="edge6" class="edge">
<title>2&#45;&gt;6</title>
<path fill="none" stroke="#1d6862" d="M585.44,-199.12C610.64,-187.31 650.49,-172.5 684.2,-161.96"/>
<polygon fill="#1d6862" stroke="#1d6862" points="684.91,-165.4 693.45,-159.13 682.87,-158.7 684.91,-165.4"/>
<text xml:space="preserve" text-anchor="middle" x="627.78" y="-165.78" font-family="Helvetica,Arial,sans-serif" font-size="12.00" fill="#1d6862">2.00</text>
</g>
<!-- 7 -->
<g id="node8" class="node">
<title>7</title>
<ellipse fill="#eeeeee" stroke="black" cx="747.15" cy="-215.6" rx="57.88" ry="18"/>
<text xml:space="preserve" text-anchor="middle" x="747.15" y="-211.32" font-family="Helvetica,Arial,sans-serif" font-size="12.00">2,0,0,0,0,1,0,0</text>
</g>
<!-- 2&#45;&gt;7 -->
<g id="edge7" class="edge">
<title>2&#45;&gt;7</title>
<path fill="none" stroke="#1e6577" d="M608.71,-205.92C632.48,-204.54 661.36,-204.35 686.49,-205.37"/>
<polygon fill="#1e6577" stroke="#1e6577" points="686.08,-208.85 696.23,-205.84 686.42,-201.86 686.08,-208.85"/>
<text xml:space="preserve" text-anchor="middle" x="641.72" y="-193.32" font-family="Helvetica,Arial,sans-serif" font-size="12.00" fill="#1e6577">1.00</text>
</g>
<!-- 3&#45;&gt;1 -->
<g id="edge10" class="edge">
<title>3&#45;&gt;1</title>
<path fill="none" stroke="#a72086" d="M322.23,-129.28C298.45,-130.66 269.57,-130.84 244.45,-129.83"/>
<polygon fill="#a72086" stroke="#a72086" points="244.87,-126.34 234.71,-129.35 244.53,-133.34 244.87,-126.34"/>
<text xml:space="preserve" text-anchor="middle" x="265.96" y="-119.07" font-family="Helvetica,Arial,sans-serif" font-size="12.00" fill="#a72086">1.00</text>
</g>
<!-- 3&#45;&gt;6 -->
<g id="edge8" class="edge">
<title>3&#45;&gt;6</title>
<path fill="none" stroke="#235cad" d="M428.15,-124.21C495.18,-129.77 607.83,-139.12 679.5,-145.07"/>
<polygon fill="#235cad" stroke="#235cad" points="678.87,-148.53 689.12,-145.87 679.45,-141.55 678.87,-148.53"/>
<text xml:space="preserve" text-anchor="middle" x="547.93" y="-123.71" font-family="Helvetica,Arial,sans-serif" font-size="12.00" fill="#235cad">3.00</text>
</g>
<!-- 8 -->
<g id="node9" class="node">
<title>8</title>
<ellipse fill="#eeeeee" stroke="black" cx="559.39" cy="-88.6" rx="57.88" ry="18"/>
<text xml:space="preserve" text-anchor="middle" x="559.39" y="-84.32" font-family="Helvetica,Arial,sans-serif" font-size="12.00">2,0,0,0,2,0,0,0</text>
</g>
<!-- 3&#45;&gt;8 -->
<g id="edge9" class="edge">
<title>3&#45;&gt;8</title>
<path fill="none" stroke="#9225ba" d="M407.57,-105.05C430.76,-99.17 461.96,-93.36 489.97,-89.48"/>
<polygon fill="#9225ba" stroke="#9225ba" points="490.38,-92.96 499.84,-88.2 489.47,-86.02 490.38,-92.96"/>
<text xml:space="preserve" text-anchor="middle" x="442.71" y="-83.76" font-family="Helvetica,Arial,sans-serif" font-size="12.00" fill="#9225ba">3.00</text>
</g>
<!-- 9 -->
<g id="node10" class="node">
<title>9</title>
<ellipse fill="#bbbbbb" stroke="black" cx="1122.66" cy="-339.6" rx="57.88" ry="18"/>
<text xml:space="preserve" text-anchor="middle" x="1122.66" y="-335.32" font-family="Helvetica,Arial,sans-serif" font-size="12.00">0,0,0,1,0,0,0,0</text>
</g>
<!-- 4&#45;&gt;9 -->
<g id="edge11" class="edge">
<title>4&#45;&gt;9</title>
<path fill="none" stroke="#b41c46" d="M975.3,-290.75C1003.28,-300.09 1041.08,-312.71 1071.26,-322.78"/>
<polygon fill="#b41c46" stroke="#b41c46" points="1069.97,-326.04 1080.57,-325.88 1072.19,-319.4 1069.97,-326.04"/>
<text xml:space="preserve" text-anchor="middle" x="1039.97" y="-297.05" font-family="Helvetica,Arial,sans-serif" font-size="12.00" fill="#b41c46">1.00</text>
</g>
<!-- 10 -->
<g id="node11" class="node">
<title>10</title>
<ellipse fill="#eeeeee" stroke="black" cx="1122.66" cy="-209.6" rx="57.88" ry="18"/>
<text xml:space="preserve" text-anchor="middle" x="1122.66" y="-205.32" font-family="Helvetica,Arial,sans-serif" font-size="12.00">0,1,0,0,0,1,0,0</text>
</g>
<!-- 4&#45;&gt;10 -->
<g id="edge12" class="edge">
<title>4&#45;&gt;10</title>
<path fill="none" stroke="#85511a" d="M960.19,-261.09C985.57,-248.7 1026.39,-232.87 1060.63,-221.65"/>
<polygon fill="#85511a" stroke="#85511a" points="1061.59,-225.02 1070.05,-218.64 1059.46,-218.36 1061.59,-225.02"/>
<text xml:space="preserve" text-anchor="middle" x="1003.39" y="-226.47" font-family="Helvetica,Arial,sans-serif" font-size="12.00" fill="#85511a">2.00</text>
</g>
<!-- 5&#45;&gt;9 -->
<g id="edge13" class="edge">
<title>5&#45;&gt;9</title>
<path fill="none" stroke="#685e1a" d="M993.15,-341.67C1012.13,-341.37 1033.45,-341.02 1053.19,-340.71"/>
<polygon fill="#685e1a" stroke="#685e1a" points="1053.14,-344.21 1063.09,-340.55 1053.03,-337.21 1053.14,-344.21"/>
<text xml:space="preserve" text-anchor="middle" x="1017.47" y="-329.69" font-family="Helvetica,Arial,sans-serif" font-size="12.00" fill="#685e1a">1.00</text>
</g>
<!-- 11 -->
<g id="node12" class="node">
<title>11</title>
<ellipse fill="#eeeeee" stroke="black" cx="1122.66" cy="-404.6" rx="57.88" ry="18"/>
<text xml:space="preserve" text-anchor="middle" x="1122.66" y="-400.32" font-family="Helvetica,Arial,sans-serif" font-size="12.00">0,0,1,0,1,0,0,0</text>
</g>
<!-- 5&#45;&gt;11 -->
<g id="edge14" class="edge">
<title>5&#45;&gt;11</title>
<path fill="none" stroke="#46671a" d="M988.14,-350.14C1019.21,-358.91 1057.85,-372.16 1085.55,-383.73"/>
<polygon fill="#46671a" stroke="#46671a" points="1084,-386.87 1094.57,-387.63 1086.78,-380.45 1084,-386.87"/>
<text xml:space="preserve" text-anchor="middle" x="1030.86" y="-356" font-family="Helvetica,Arial,sans-serif" font-size="12.00" fill="#46671a">1.00</text>
</g>
<!-- 12 -->
<g id="node13" class="node">
<title>12</title>
<ellipse fill="#eeeeee" stroke="black" cx="1122.66" cy="-274.6" rx="57.88" ry="18"/>
<text xml:space="preserve" text-anchor="middle" x="1122.66" y="-270.32" font-family="Helvetica,Arial,sans-serif" font-size="12.00">1,0,0,0,0,0,1,0</text>
</g>
<!-- 5&#45;&gt;12 -->
<g id="edge15" class="edge">
<title>5&#45;&gt;12</title>
<path fill="none" stroke="#1b6a48" d="M960.19,-326.09C985.57,-313.7 1026.39,-297.87 1060.63,-286.65"/>
<polygon fill="#1b6a48" stroke="#1b6a48" points="1061.59,-290.02 1070.05,-283.64 1059.46,-283.36 1061.59,-290.02"/>
<text xml:space="preserve" text-anchor="middle" x="1003.39" y="-291.47" font-family="Helvetica,Arial,sans-serif" font-size="12.00" fill="#1b6a48">1.00</text>
</g>
<!-- 6&#45;&gt;2 -->
<g id="edge19" class="edge">
<title>6&#45;&gt;2</title>
<path fill="none" stroke="#9225ba" d="M721.18,-167.04C695.99,-178.85 656.1,-193.68 622.36,-204.24"/>
<polygon fill="#9225ba" stroke="#9225ba" points="621.63,-200.8 613.09,-207.06 623.67,-207.49 621.63,-200.8"/>
<text xml:space="preserve" text-anchor="middle" x="655.57" y="-177.59" font-family="Helvetica,Arial,sans-serif" font-size="12.00" fill="#9225ba">1.00</text>
</g>
<!-- 6&#45;&gt;11 -->
<g id="edge16" class="edge">
<title>6&#45;&gt;11</title>
<path fill="none" stroke="#1d6862" d="M782.29,-165.36C790.58,-170.21 798.83,-176.28 805.03,-183.6 863.87,-253.19 805.31,-319.36 877.03,-375.6 928.4,-415.88 1005.48,-418.44 1059.35,-413.93"/>
<polygon fill="#1d6862" stroke="#1d6862" points="1059.34,-417.45 1068.97,-413.02 1058.68,-410.48 1059.34,-417.45"/>
<text xml:space="preserve" text-anchor="middle" x="825.37" y="-285.6" font-family="Helvetica,Arial,sans-serif" font-size="12.00" fill="#1d6862">1.00</text>
</g>
<!-- 13 -->
<g id="node14" class="node">
<title>13</title>
<ellipse fill="#eeeeee" stroke="black" cx="934.9" cy="-88.6" rx="57.88" ry="18"/>
<text xml:space="preserve" text-anchor="middle" x="934.9" y="-84.32" font-family="Helvetica,Arial,sans-serif" font-size="12.00">0,1,0,0,2,0,0,0</text>
</g>
<!-- 6&#45;&gt;13 -->
<g id="edge17" class="edge">
<title>6&#45;&gt;13</title>
<path fill="none" stroke="#1e6577" d="M773.98,-134.17C798.96,-122.94 837.82,-109.13 870.97,-99.25"/>
<polygon fill="#1e6577" stroke="#1e6577" points="871.88,-102.63 880.51,-96.48 869.93,-95.9 871.88,-102.63"/>
<text xml:space="preserve" text-anchor="middle" x="815.81" y="-101.96" font-family="Helvetica,Arial,sans-serif" font-size="12.00" fill="#1e6577">1.00</text>
</g>
<!-- 14 -->
<g id="node15" class="node">
<title>14</title>
<ellipse fill="#eeeeee" stroke="black" cx="934.9" cy="-153.6" rx="57.88" ry="18"/>
<text xml:space="preserve" text-anchor="middle" x="934.9" y="-149.32" font-family="Helvetica,Arial,sans-serif" font-size="12.00">1,0,0,0,1,1,0,0</text>
</g>
<!-- 6&#45;&gt;14 -->
<g id="edge18" class="edge">
<title>6&#45;&gt;14</title>
<path fill="none" stroke="#235cad" d="M797.93,-141.64C821.88,-140.7 850.74,-141.03 875.7,-142.49"/>
<polygon fill="#235cad" stroke="#235cad" points="875.14,-145.96 885.36,-143.14 875.61,-138.97 875.14,-145.96"/>
<text xml:space="preserve" text-anchor="middle" x="830.44" y="-129.84" font-family="Helvetica,Arial,sans-serif" font-size="12.00" fill="#235cad">1.00</text>
</g>
<!-- 7&#45;&gt;2 -->
<g id="edge22" class="edge">
<title>7&#45;&gt;2</title>
<path fill="none" stroke="#85511a" d="M697.75,-225.28C673.96,-226.66 645.09,-226.84 619.96,-225.83"/>
<polygon fill="#85511a" stroke="#85511a" points="620.38,-222.34 610.22,-225.35 620.04,-229.34 620.38,-222.34"/>
<text xml:space="preserve" text-anchor="middle" x="641.47" y="-215.07" font-family="Helvetica,Arial,sans-serif" font-size="12.00" fill="#85511a">1.00</text>
</g>
<!-- 7&#45;&gt;10 -->
<g id="edge20" class="edge">
<title>7&#45;&gt;10</title>
<path fill="none" stroke="#a72086" d="M805.28,-214.68C871.87,-213.61 981.85,-211.85 1053.02,-210.7"/>
<polygon fill="#a72086" stroke="#a72086" points="1053.08,-214.2 1063.02,-210.54 1052.96,-207.2 1053.08,-214.2"/>
<text xml:space="preserve" text-anchor="middle" x="923.15" y="-201.2" font-family="Helvetica,Arial,sans-serif" font-size="12.00" fill="#a72086">1.00</text>
</g>
<!-- 7&#45;&gt;14 -->
<g id="edge21" class="edge">
<title>7&#45;&gt;14</title>
<path fill="none" stroke="#b41c46" d="M773.98,-199.17C798.96,-187.94 837.82,-174.13 870.97,-164.25"/>
<polygon fill="#b41c46" stroke="#b41c46" points="871.88,-167.63 880.51,-161.48 869.93,-160.9 871.88,-167.63"/>
<text xml:space="preserve" text-anchor="middle" x="815.81" y="-166.96" font-family="Helvetica,Arial,sans-serif" font-size="12.00" fill="#b41c46">2.00</text>
</g>
<!-- 8&#45;&gt;3 -->
<g id="edge26" class="edge">
<title>8&#45;&gt;3</title>
<path fill="none" stroke="#1d6862" d="M523.48,-103.14C500.34,-109.01 469.21,-114.81 441.24,-118.69"/>
<polygon fill="#1d6862" stroke="#1d6862" points="440.84,-115.21 431.38,-119.98 441.75,-122.15 440.84,-115.21"/>
<text xml:space="preserve" text-anchor="middle" x="465.19" y="-101.62" font-family="Helvetica,Arial,sans-serif" font-size="12.00" fill="#1d6862">2.00</text>
</g>
<!-- 8&#45;&gt;7 -->
<g id="edge24" class="edge">
<title>8&#45;&gt;7</title>
<path fill="none" stroke="#46671a" d="M581.7,-105.57C606.8,-125.26 650.05,-158.25 689.27,-183.6 694.88,-187.22 700.92,-190.88 706.89,-194.35"/>
<polygon fill="#46671a" stroke="#46671a" points="705.07,-197.34 715.49,-199.25 708.53,-191.26 705.07,-197.34"/>
<text xml:space="preserve" text-anchor="middle" x="636.21" y="-143.87" font-family="Helvetica,Arial,sans-serif" font-size="12.00" fill="#46671a">1.00</text>
</g>
<!-- 8&#45;&gt;13 -->
<g id="edge23" class="edge">
<title>8&#45;&gt;13</title>
<path fill="none" stroke="#685e1a" d="M617.53,-88.6C684.12,-88.6 794.1,-88.6 865.26,-88.6"/>
<polygon fill="#685e1a" stroke="#685e1a" points="865.26,-92.1 875.26,-88.6 865.26,-85.1 865.26,-92.1"/>
<text xml:space="preserve" text-anchor="middle" x="735.39" y="-77.2" font-family="Helvetica,Arial,sans-serif" font-size="12.00" fill="#685e1a">1.00</text>
</g>
<!-- 15 -->
<g id="node16" class="node">
<title>15</title>
<ellipse fill="#eeeeee" stroke="black" cx="747.15" cy="-26.6" rx="57.88" ry="18"/>
<text xml:space="preserve" text-anchor="middle" x="747.15" y="-22.32" font-family="Helvetica,Arial,sans-serif" font-size="12.00">1,0,0,0,3,0,0,0</text>
</g>
<!-- 8&#45;&gt;15 -->
<g id="edge25" class="edge">
<title>8&#45;&gt;15</title>
<path fill="none" stroke="#1b6a48" d="M586.22,-72.17C611.21,-60.94 650.06,-47.13 683.21,-37.25"/>
<polygon fill="#1b6a48" stroke="#1b6a48" points="684.13,-40.63 692.76,-34.48 682.18,-33.9 684.13,-40.63"/>
<text xml:space="preserve" text-anchor="middle" x="628.06" y="-39.96" font-family="Helvetica,Arial,sans-serif" font-size="12.00" fill="#1b6a48">2.00</text>
</g>
<!-- 10&#45;&gt;4 -->
<g id="edge28" class="edge">
<title>10&#45;&gt;4</title>
<path fill="none" stroke="#235cad" d="M1097.18,-226.21C1071.81,-238.56 1031.15,-254.33 997,-265.52"/>
<polygon fill="#235cad" stroke="#235cad" points="996.07,-262.14 987.61,-268.52 998.2,-268.81 996.07,-262.14"/>
<text xml:space="preserve" text-anchor="middle" x="1030.85" y="-237.95" font-family="Helvetica,Arial,sans-serif" font-size="12.00" fill="#235cad">1.00</text>
</g>
<!-- 16 -->
<g id="node17" class="node">
<title>16</title>
<ellipse fill="#eeeeee" stroke="black" cx="1310.42" cy="-209.6" rx="57.88" ry="18"/>
<text xml:space="preserve" text-anchor="middle" x="1310.42" y="-205.32" font-family="Helvetica,Arial,sans-serif" font-size="12.00">0,0,0,0,0,2,0,0</text>
</g>
<!-- 10&#45;&gt;16 -->
<g id="edge27" class="edge">
<title>10&#45;&gt;16</title>
<path fill="none" stroke="#1e6577" d="M1171.98,-199.92C1195.75,-198.54 1224.63,-198.35 1249.76,-199.37"/>
<polygon fill="#1e6577" stroke="#1e6577" points="1249.34,-202.85 1259.5,-199.84 1249.69,-195.86 1249.34,-202.85"/>
<text xml:space="preserve" text-anchor="middle" x="1204.99" y="-187.32" font-family="Helvetica,Arial,sans-serif" font-size="12.00" fill="#1e6577">1.00</text>
</g>
<!-- 11&#45;&gt;5 -->
<g id="edge30" class="edge">
<title>11&#45;&gt;5</title>
<path fill="none" stroke="#a72086" d="M1069.72,-397.14C1038.66,-388.39 999.96,-375.12 972.17,-363.54"/>
<polygon fill="#a72086" stroke="#a72086" points="973.69,-360.38 963.12,-359.63 970.91,-366.81 973.69,-360.38"/>
<text xml:space="preserve" text-anchor="middle" x="1003.71" y="-368.49" font-family="Helvetica,Arial,sans-serif" font-size="12.00" fill="#a72086">1.00</text>
</g>
<!-- 17 -->
<g id="node18" class="node">
<title>17</title>
<ellipse fill="#eeeeee" stroke="black" cx="1310.42" cy="-274.6" rx="57.88" ry="18"/>
<text xml:space="preserve" text-anchor="middle" x="1310.42" y="-270.32" font-family="Helvetica,Arial,sans-serif" font-size="12.00">0,0,0,0,1,0,1,0</text>
</g>
<!-- 11&#45;&gt;17 -->
<g id="edge29" class="edge">
<title>11&#45;&gt;17</title>
<path fill="none" stroke="#9225ba" d="M1136.15,-386.99C1147.88,-377.56 1165.77,-367.8 1180.54,-358.1 1210.64,-338.32 1242.89,-313.79 1267.6,-296.04"/>
<polygon fill="#9225ba" stroke="#9225ba" points="1269.32,-299.11 1275.45,-290.47 1265.27,-293.4 1269.32,-299.11"/>
<text xml:space="preserve" text-anchor="middle" x="1195.68" y="-328.38" font-family="Helvetica,Arial,sans-serif" font-size="12.00" fill="#9225ba">1.00</text>
</g>
<!-- 12&#45;&gt;5 -->
<g id="edge32" class="edge">
<title>12&#45;&gt;5</title>
<path fill="none" stroke="#85511a" d="M1097.18,-291.21C1071.81,-303.56 1031.15,-319.33 997,-330.52"/>
<polygon fill="#85511a" stroke="#85511a" points="996.07,-327.14 987.61,-333.52 998.2,-333.81 996.07,-327.14"/>
<text xml:space="preserve" text-anchor="middle" x="1054.1" y="-302.95" font-family="Helvetica,Arial,sans-serif" font-size="12.00" fill="#85511a">1.00</text>
</g>
<!-- 12&#45;&gt;17 -->
<g id="edge31" class="edge">
<title>12&#45;&gt;17</title>
<path fill="none" stroke="#b41c46" d="M1171.98,-264.92C1195.75,-263.54 1224.63,-263.35 1249.76,-264.37"/>
<polygon fill="#b41c46" stroke="#b41c46" points="1249.34,-267.85 1259.5,-264.84 1249.69,-260.86 1249.34,-267.85"/>
<text xml:space="preserve" text-anchor="middle" x="1204.99" y="-252.32" font-family="Helvetica,Arial,sans-serif" font-size="12.00" fill="#b41c46">1.00</text>
</g>
<!-- 13&#45;&gt;6 -->
<g id="edge35" class="edge">
<title>13&#45;&gt;6</title>
<path fill="none" stroke="#1b6a48" d="M908.2,-104.97C883.29,-116.17 844.52,-129.97 811.38,-139.86"/>
<polygon fill="#1b6a48" stroke="#1b6a48" points="810.46,-136.48 801.84,-142.63 812.42,-143.2 810.46,-136.48"/>
<text xml:space="preserve" text-anchor="middle" x="843.24" y="-114.35" font-family="Helvetica,Arial,sans-serif" font-size="12.00" fill="#1b6a48">2.00</text>
</g>
<!-- 13&#45;&gt;10 -->
<g id="edge33" class="edge">
<title>13&#45;&gt;10</title>
<path fill="none" stroke="#685e1a" d="M964.72,-104.31C973.85,-109.56 983.88,-115.6 992.78,-121.6 1026.39,-144.27 1031.02,-155.15 1064.78,-177.6 1070.28,-181.26 1076.23,-184.91 1082.13,-188.37"/>
<polygon fill="#685e1a" stroke="#685e1a" points="1080.2,-191.29 1090.62,-193.22 1083.67,-185.22 1080.2,-191.29"/>
<text xml:space="preserve" text-anchor="middle" x="1039.9" y="-137.89" font-family="Helvetica,Arial,sans-serif" font-size="12.00" fill="#685e1a">1.00</text>
</g>
<!-- 18 -->
<g id="node19" class="node">
<title>18</title>
<ellipse fill="#eeeeee" stroke="black" cx="1122.66" cy="-144.6" rx="57.88" ry="18"/>
<text xml:space="preserve" text-anchor="middle" x="1122.66" y="-140.32" font-family="Helvetica,Arial,sans-serif" font-size="12.00">0,0,0,0,2,1,0,0</text>
</g>
<!-- 13&#45;&gt;18 -->
<g id="edge34" class="edge">
<title>13&#45;&gt;18</title>
<path fill="none" stroke="#46671a" d="M989.63,-94.83C1019.86,-102.46 1056.86,-113.95 1084,-124.3"/>
<polygon fill="#46671a" stroke="#46671a" points="1082.61,-127.52 1093.2,-127.94 1085.19,-121.01 1082.61,-127.52"/>
<text xml:space="preserve" text-anchor="middle" x="1030.96" y="-98.59" font-family="Helvetica,Arial,sans-serif" font-size="12.00" fill="#46671a">1.00</text>
</g>
<!-- 14&#45;&gt;6 -->
<g id="edge39" class="edge">
<title>14&#45;&gt;6</title>
<path fill="none" stroke="#9225ba" d="M884.12,-162.55C860.12,-163.5 831.19,-163.17 806.2,-161.7"/>
<polygon fill="#9225ba" stroke="#9225ba" points="806.74,-158.23 796.53,-161.05 806.27,-165.21 806.74,-158.23"/>
<text xml:space="preserve" text-anchor="middle" x="828.27" y="-151.56" font-family="Helvetica,Arial,sans-serif" font-size="12.00" fill="#9225ba">1.00</text>
</g>
<!-- 14&#45;&gt;7 -->
<g id="edge38" class="edge">
<title>14&#45;&gt;7</title>
<path fill="none" stroke="#235cad" d="M908.2,-169.97C883.29,-181.17 844.52,-194.97 811.38,-204.86"/>
<polygon fill="#235cad" stroke="#235cad" points="810.46,-201.48 801.84,-207.63 812.42,-208.2 810.46,-201.48"/>
<text xml:space="preserve" text-anchor="middle" x="843.24" y="-179.35" font-family="Helvetica,Arial,sans-serif" font-size="12.00" fill="#235cad">1.00</text>
</g>
<!-- 14&#45;&gt;12 -->
<g id="edge36" class="edge">
<title>14&#45;&gt;12</title>
<path fill="none" stroke="#1d6862" d="M958.76,-170.33C984.19,-188.73 1026.73,-218.83 1064.78,-242.6 1070.44,-246.14 1076.52,-249.74 1082.5,-253.2"/>
<polygon fill="#1d6862" stroke="#1d6862" points="1080.68,-256.19 1091.11,-258.08 1084.14,-250.1 1080.68,-256.19"/>
<text xml:space="preserve" text-anchor="middle" x="1012.75" y="-204.87" font-family="Helvetica,Arial,sans-serif" font-size="12.00" fill="#1d6862">1.00</text>
</g>
<!-- 14&#45;&gt;18 -->
<g id="edge37" class="edge">
<title>14&#45;&gt;18</title>
<path fill="none" stroke="#1e6577" d="M979.92,-142.06C1003.29,-139.38 1032.42,-137.64 1058.18,-137.3"/>
<polygon fill="#1e6577" stroke="#1e6577" points="1057.88,-140.8 1067.86,-137.25 1057.84,-133.8 1057.88,-140.8"/>
<text xml:space="preserve" text-anchor="middle" x="1012.84" y="-127.04" font-family="Helvetica,Arial,sans-serif" font-size="12.00" fill="#1e6577">1.00</text>
</g>
<!-- 15&#45;&gt;8 -->
<g id="edge42" class="edge">
<title>15&#45;&gt;8</title>
<path fill="none" stroke="#85511a" d="M720.45,-42.97C695.54,-54.17 656.77,-67.97 623.62,-77.86"/>
<polygon fill="#85511a" stroke="#85511a" points="622.71,-74.48 614.08,-80.63 624.66,-81.2 622.71,-74.48"/>
<text xml:space="preserve" text-anchor="middle" x="655.49" y="-52.35" font-family="Helvetica,Arial,sans-serif" font-size="12.00" fill="#85511a">3.00</text>
</g>
<!-- 15&#45;&gt;14 -->
<g id="edge40" class="edge">
<title>15&#45;&gt;14</title>
<path fill="none" stroke="#a72086" d="M769.46,-43.57C794.56,-63.26 837.81,-96.25 877.03,-121.6 882.63,-125.22 888.67,-128.88 894.65,-132.35"/>
<polygon fill="#a72086" stroke="#a72086" points="892.82,-135.34 903.25,-137.25 896.29,-129.26 892.82,-135.34"/>
<text xml:space="preserve" text-anchor="middle" x="823.97" y="-81.87" font-family="Helvetica,Arial,sans-serif" font-size="12.00" fill="#a72086">3.00</text>
</g>
<!-- 19 -->
<g id="node20" class="node">
<title>19</title>
<ellipse fill="#eeeeee" stroke="black" cx="934.9" cy="-23.6" rx="57.88" ry="18"/>
<text xml:space="preserve" text-anchor="middle" x="934.9" y="-19.32" font-family="Helvetica,Arial,sans-serif" font-size="12.00">0,0,0,0,4,0,0,0</text>
</g>
<!-- 15&#45;&gt;19 -->
<g id="edge41" class="edge">
<title>15&#45;&gt;19</title>
<path fill="none" stroke="#b41c46" d="M795.02,-16.25C818.6,-14.44 847.48,-13.74 872.78,-14.3"/>
<polygon fill="#b41c46" stroke="#b41c46" points="872.5,-17.79 882.6,-14.6 872.72,-10.79 872.5,-17.79"/>
<text xml:space="preserve" text-anchor="middle" x="827.89" y="-2.85" font-family="Helvetica,Arial,sans-serif" font-size="12.00" fill="#b41c46">1.00</text>
</g>
<!-- 16&#45;&gt;10 -->
<g id="edge44" class="edge">
<title>16&#45;&gt;10</title>
<path fill="none" stroke="#46671a" d="M1261.02,-219.28C1237.23,-220.66 1208.36,-220.84 1183.23,-219.83"/>
<polygon fill="#46671a" stroke="#46671a" points="1183.65,-216.34 1173.49,-219.35 1183.31,-223.34 1183.65,-216.34"/>
<text xml:space="preserve" text-anchor="middle" x="1227.99" y="-209.07" font-family="Helvetica,Arial,sans-serif" font-size="12.00" fill="#46671a">2.00</text>
</g>
<!-- 20 -->
<g id="node21" class="node">
<title>20</title>
<ellipse fill="#bbbbbb" stroke="black" cx="1498.17" cy="-241.6" rx="57.88" ry="18"/>
<text xml:space="preserve" text-anchor="middle" x="1498.17" y="-237.32" font-family="Helvetica,Arial,sans-serif" font-size="12.00">0,0,0,0,0,0,0,1</text>
</g>
<!-- 16&#45;&gt;20 -->
<g id="edge43" class="edge">
<title>16&#45;&gt;20</title>
<path fill="none" stroke="#685e1a" d="M1361.68,-218.26C1384.5,-222.19 1411.7,-226.88 1435.72,-231.01"/>
<polygon fill="#685e1a" stroke="#685e1a" points="1434.92,-234.43 1445.37,-232.68 1436.11,-227.53 1434.92,-234.43"/>
<text xml:space="preserve" text-anchor="middle" x="1392.57" y="-214.18" font-family="Helvetica,Arial,sans-serif" font-size="12.00" fill="#685e1a">1.00</text>
</g>
<!-- 17&#45;&gt;11 -->
<g id="edge47" class="edge">
<title>17&#45;&gt;11</title>
<path fill="none" stroke="#1e6577" d="M1298.08,-292.36C1276.1,-316.74 1225.88,-357.31 1180.54,-387.1 1180.1,-387.39 1179.66,-387.67 1179.22,-387.96"/>
<polygon fill="#1e6577" stroke="#1e6577" points="1177.56,-384.87 1170.91,-393.12 1181.25,-390.82 1177.56,-384.87"/>
<text xml:space="preserve" text-anchor="middle" x="1224.88" y="-335.46" font-family="Helvetica,Arial,sans-serif" font-size="12.00" fill="#1e6577">1.00</text>
</g>
<!-- 17&#45;&gt;12 -->
<g id="edge46" class="edge">
<title>17&#45;&gt;12</title>
<path fill="none" stroke="#1d6862" d="M1261.02,-284.28C1237.23,-285.66 1208.36,-285.84 1183.23,-284.83"/>
<polygon fill="#1d6862" stroke="#1d6862" points="1183.65,-281.34 1173.49,-284.35 1183.31,-288.34 1183.65,-281.34"/>
<text xml:space="preserve" text-anchor="middle" x="1204.74" y="-274.07" font-family="Helvetica,Arial,sans-serif" font-size="12.00" fill="#1d6862">1.00</text>
</g>
<!-- 17&#45;&gt;20 -->
<g id="edge45" class="edge">
<title>17&#45;&gt;20</title>
<path fill="none" stroke="#1b6a48" d="M1361.2,-265.76C1384.2,-261.67 1411.75,-256.78 1436.01,-252.47"/>
<polygon fill="#1b6a48" stroke="#1b6a48" points="1436.53,-255.93 1445.77,-250.73 1435.31,-249.04 1436.53,-255.93"/>
<text xml:space="preserve" text-anchor="middle" x="1392.51" y="-246.73" font-family="Helvetica,Arial,sans-serif" font-size="12.00" fill="#1b6a48">1.00</text>
</g>
<!-- 18&#45;&gt;13 -->
<g id="edge51" class="edge">
<title>18&#45;&gt;13</title>
<path fill="none" stroke="#b41c46" d="M1067.76,-138.32C1037.54,-130.69 1000.59,-119.21 973.5,-108.88"/>
<polygon fill="#b41c46" stroke="#b41c46" points="974.91,-105.67 964.32,-105.24 972.33,-112.17 974.91,-105.67"/>
<text xml:space="preserve" text-anchor="middle" x="1003.23" y="-111.77" font-family="Helvetica,Arial,sans-serif" font-size="12.00" fill="#b41c46">1.00</text>
</g>
<!-- 18&#45;&gt;14 -->
<g id="edge50" class="edge">
<title>18&#45;&gt;14</title>
<path fill="none" stroke="#a72086" d="M1077.36,-156.17C1054.12,-158.83 1025.24,-160.54 999.64,-160.9"/>
<polygon fill="#a72086" stroke="#a72086" points="999.64,-157.4 989.65,-160.95 999.67,-164.4 999.64,-157.4"/>
<text xml:space="preserve" text-anchor="middle" x="1044.12" y="-148.39" font-family="Helvetica,Arial,sans-serif" font-size="12.00" fill="#a72086">2.00</text>
</g>
<!-- 18&#45;&gt;16 -->
<g id="edge48" class="edge">
<title>18&#45;&gt;16</title>
<path fill="none" stroke="#235cad" d="M1162.15,-158.07C1190.67,-168.05 1229.75,-181.72 1260.48,-192.48"/>
<polygon fill="#235cad" stroke="#235cad" points="1258.95,-195.65 1269.55,-195.65 1261.26,-189.04 1258.95,-195.65"/>
<text xml:space="preserve" text-anchor="middle" x="1204.91" y="-165.7" font-family="Helvetica,Arial,sans-serif" font-size="12.00" fill="#235cad">1.00</text>
</g>
<!-- 18&#45;&gt;17 -->
<g id="edge49" class="edge">
<title>18&#45;&gt;17</title>
<path fill="none" stroke="#9225ba" d="M1153.33,-160.26C1162.32,-165.41 1172.05,-171.41 1180.54,-177.6 1215.37,-203 1217.54,-217.43 1252.54,-242.6 1257.84,-246.41 1263.64,-250.13 1269.44,-253.61"/>
<polygon fill="#9225ba" stroke="#9225ba" points="1267.41,-256.47 1277.82,-258.44 1270.9,-250.41 1267.41,-256.47"/>
<text xml:space="preserve" text-anchor="middle" x="1204.42" y="-198.32" font-family="Helvetica,Arial,sans-serif" font-size="12.00" fill="#9225ba">2.00</text>
</g>
<!-- 19&#45;&gt;15 -->
<g id="edge53" class="edge">
<title>19&#45;&gt;15</title>
<path fill="none" stroke="#685e1a" d="M886.87,-33.96C863.31,-35.77 834.49,-36.46 809.24,-35.9"/>
<polygon fill="#685e1a" stroke="#685e1a" points="809.54,-32.41 799.44,-35.6 809.33,-39.4 809.54,-32.41"/>
<text xml:space="preserve" text-anchor="middle" x="830.82" y="-24.55" font-family="Helvetica,Arial,sans-serif" font-size="12.00" fill="#685e1a">4.00</text>
</g>
<!-- 19&#45;&gt;18 -->
<g id="edge52" class="edge">
<title>19&#45;&gt;18</title>
<path fill="none" stroke="#85511a" d="M964.21,-39.48C973.41,-44.78 983.61,-50.82 992.78,-56.6 1026.11,-77.61 1063.16,-103.14 1088.95,-121.29"/>
<polygon fill="#85511a" stroke="#85511a" points="1086.83,-124.07 1097.02,-126.98 1090.87,-118.35 1086.83,-124.07"/>
<text xml:space="preserve" text-anchor="middle" x="1020.63" y="-70.91" font-family="Helvetica,Arial,sans-serif" font-size="12.00" fill="#85511a">6.00</text>
</g>
</g>
</svg>
