<?xml version="1.0" encoding="utf-8" standalone="no"?>
<!DOCTYPE svg PUBLIC "-//W3C//DTD SVG 1.1//EN"
  "http://www.w3.org/Graphics/SVG/1.1/DTD/svg11.dtd">
<svg xmlns:xlink="http://www.w3.org/1999/xlink" width="496.370625pt" height="208.474375pt" viewBox="0 0 496.370625 208.474375" xmlns="http://www.w3.org/2000/svg" version="1.1">
 <metadata>
  <rdf:RDF xmlns:dc="http://purl.org/dc/elements/1.1/" xmlns:cc="http://creativecommons.org/ns#" xmlns:rdf="http://www.w3.org/1999/02/22-rdf-syntax-ns#">
   <cc:Work>
    <dc:type rdf:resource="http://purl.org/dc/dcmitype/StillImage"/>
    <dc:date>2026-06-14T20:24:54.912919</dc:date>
    <dc:format>image/svg+xml</dc:format>
    <dc:creator>
     <cc:Agent>
      <dc:title>Matplotlib v3.10.8, https://matplotlib.org/</dc:title>
     </cc:Agent>
    </dc:creator>
   </cc:Work>
  </rdf:RDF>
 </metadata>
 <defs>
  <style type="text/css">*{stroke-linejoin: round; stroke-linecap: butt}</style>
 </defs>
 <g id="figure_1">
  <g id="patch_1">
   <path d="M 0 208.474375 
L 496.370625 208.474375 
L 496.370625 0 
L 0 0 
z
" style="fill: #ffffff"/>
  </g>
  <g id="axes_1">
   <g id="patch_2">
    <path d="M 34.240625 170.918125 
L 237.800625 170.918125 
L 237.800625 22.318125 
L 34.240625 22.318125 
z
" style="fill: #ffffff"/>
   </g>
   <g id="matplotlib.axis_1">
    <g id="xtick_1">
     <g id="line2d_1">
      <path d="M 43.493352 170.918125 
L 43.493352 22.318125 
" clip-path="url(#pc9fc95b636)" style="fill: none; stroke: #b0b0b0; stroke-opacity: 0.3; stroke-width: 0.8; stroke-linecap: square"/>
     </g>
     <g id="line2d_2">
      <defs>
       <path id="mc8d3a1f174" d="M 0 0 
L 0 3.5 
" style="stroke: #000000; stroke-width: 0.8"/>
      </defs>
      <g>
       <use xlink:href="#mc8d3a1f174" x="43.493352" y="170.918125" style="stroke: #000000; stroke-width: 0.8"/>
      </g>
     </g>
     <g id="text_1">
      <!-- 0 -->
      <g transform="translate(40.312102 185.516562) scale(0.1 -0.1)">
       <defs>
        <path id="DejaVuSans-30" d="M 2034 4250 
Q 1547 4250 1301 3770 
Q 1056 3291 1056 2328 
Q 1056 1369 1301 889 
Q 1547 409 2034 409 
Q 2525 409 2770 889 
Q 3016 1369 3016 2328 
Q 3016 3291 2770 3770 
Q 2525 4250 2034 4250 
z
M 2034 4750 
Q 2819 4750 3233 4129 
Q 3647 3509 3647 2328 
Q 3647 1150 3233 529 
Q 2819 -91 2034 -91 
Q 1250 -91 836 529 
Q 422 1150 422 2328 
Q 422 3509 836 4129 
Q 1250 4750 2034 4750 
z
" transform="scale(0.015625)"/>
       </defs>
       <use xlink:href="#DejaVuSans-30"/>
      </g>
     </g>
    </g>
    <g id="xtick_2">
     <g id="line2d_3">
      <path d="M 80.504261 170.918125 
L 80.504261 22.318125 
" clip-path="url(#pc9fc95b636)" style="fill: none; stroke: #b0b0b0; stroke-opacity: 0.3; stroke-width: 0.8; stroke-linecap: square"/>
     </g>
     <g id="line2d_4">
      <g>
       <use xlink:href="#mc8d3a1f174" x="80.504261" y="170.918125" style="stroke: #000000; stroke-width: 0.8"/>
      </g>
     </g>
     <g id="text_2">
      <!-- 10 -->
      <g transform="translate(74.141761 185.516562) scale(0.1 -0.1)">
       <defs>
        <path id="DejaVuSans-31" d="M 794 531 
L 1825 531 
L 1825 4091 
L 703 3866 
L 703 4441 
L 1819 4666 
L 2450 4666 
L 2450 531 
L 3481 531 
L 3481 0 
L 794 0 
L 794 531 
z
" transform="scale(0.015625)"/>
       </defs>
       <use xlink:href="#DejaVuSans-31"/>
       <use xlink:href="#DejaVuSans-30" transform="translate(63.623047 0)"/>
      </g>
     </g>
    </g>
    <g id="xtick_3">
     <g id="line2d_5">
      <path d="M 117.51517 170.918125 
L 117.51517 22.318125 
" clip-path="url(#pc9fc95b636)" style="fill: none; stroke: #b0b0b0; stroke-opacity: 0.3; stroke-width: 0.8; stroke-linecap: square"/>
     </g>
     <g id="line2d_6">
      <g>
       <use xlink:href="#mc8d3a1f174" x="117.51517" y="170.918125" style="stroke: #000000; stroke-width: 0.8"/>
      </g>
     </g>
     <g id="text_3">
      <!-- 20 -->
      <g transform="translate(111.15267 185.516562) scale(0.1 -0.1)">
       <defs>
        <path id="DejaVuSans-32" d="M 1228 531 
L 3431 531 
L 3431 0 
L 469 0 
L 469 531 
Q 828 903 1448 1529 
Q 2069 2156 2228 2338 
Q 2531 2678 2651 2914 
Q 2772 3150 2772 3378 
Q 2772 3750 2511 3984 
Q 2250 4219 1831 4219 
Q 1534 4219 1204 4116 
Q 875 4013 500 3803 
L 500 4441 
Q 881 4594 1212 4672 
Q 1544 4750 1819 4750 
Q 2544 4750 2975 4387 
Q 3406 4025 3406 3419 
Q 3406 3131 3298 2873 
Q 3191 2616 2906 2266 
Q 2828 2175 2409 1742 
Q 1991 1309 1228 531 
z
" transform="scale(0.015625)"/>
       </defs>
       <use xlink:href="#DejaVuSans-32"/>
       <use xlink:href="#DejaVuSans-30" transform="translate(63.623047 0)"/>
      </g>
     </g>
    </g>
    <g id="xtick_4">
     <g id="line2d_7">
      <path d="M 154.52608 170.918125 
L 154.52608 22.318125 
" clip-path="url(#pc9fc95b636)" style="fill: none; stroke: #b0b0b0; stroke-opacity: 0.3; stroke-width: 0.8; stroke-linecap: square"/>
     </g>
     <g id="line2d_8">
      <g>
       <use xlink:href="#mc8d3a1f174" x="154.52608" y="170.918125" style="stroke: #000000; stroke-width: 0.8"/>
      </g>
     </g>
     <g id="text_4">
      <!-- 30 -->
      <g transform="translate(148.16358 185.516562) scale(0.1 -0.1)">
       <defs>
        <path id="DejaVuSans-33" d="M 2597 2516 
Q 3050 2419 3304 2112 
Q 3559 1806 3559 1356 
Q 3559 666 3084 287 
Q 2609 -91 1734 -91 
Q 1441 -91 1130 -33 
Q 819 25 488 141 
L 488 750 
Q 750 597 1062 519 
Q 1375 441 1716 441 
Q 2309 441 2620 675 
Q 2931 909 2931 1356 
Q 2931 1769 2642 2001 
Q 2353 2234 1838 2234 
L 1294 2234 
L 1294 2753 
L 1863 2753 
Q 2328 2753 2575 2939 
Q 2822 3125 2822 3475 
Q 2822 3834 2567 4026 
Q 2313 4219 1838 4219 
Q 1578 4219 1281 4162 
Q 984 4106 628 3988 
L 628 4550 
Q 988 4650 1302 4700 
Q 1616 4750 1894 4750 
Q 2613 4750 3031 4423 
Q 3450 4097 3450 3541 
Q 3450 3153 3228 2886 
Q 3006 2619 2597 2516 
z
" transform="scale(0.015625)"/>
       </defs>
       <use xlink:href="#DejaVuSans-33"/>
       <use xlink:href="#DejaVuSans-30" transform="translate(63.623047 0)"/>
      </g>
     </g>
    </g>
    <g id="xtick_5">
     <g id="line2d_9">
      <path d="M 191.536989 170.918125 
L 191.536989 22.318125 
" clip-path="url(#pc9fc95b636)" style="fill: none; stroke: #b0b0b0; stroke-opacity: 0.3; stroke-width: 0.8; stroke-linecap: square"/>
     </g>
     <g id="line2d_10">
      <g>
       <use xlink:href="#mc8d3a1f174" x="191.536989" y="170.918125" style="stroke: #000000; stroke-width: 0.8"/>
      </g>
     </g>
     <g id="text_5">
      <!-- 40 -->
      <g transform="translate(185.174489 185.516562) scale(0.1 -0.1)">
       <defs>
        <path id="DejaVuSans-34" d="M 2419 4116 
L 825 1625 
L 2419 1625 
L 2419 4116 
z
M 2253 4666 
L 3047 4666 
L 3047 1625 
L 3713 1625 
L 3713 1100 
L 3047 1100 
L 3047 0 
L 2419 0 
L 2419 1100 
L 313 1100 
L 313 1709 
L 2253 4666 
z
" transform="scale(0.015625)"/>
       </defs>
       <use xlink:href="#DejaVuSans-34"/>
       <use xlink:href="#DejaVuSans-30" transform="translate(63.623047 0)"/>
      </g>
     </g>
    </g>
    <g id="xtick_6">
     <g id="line2d_11">
      <path d="M 228.547898 170.918125 
L 228.547898 22.318125 
" clip-path="url(#pc9fc95b636)" style="fill: none; stroke: #b0b0b0; stroke-opacity: 0.3; stroke-width: 0.8; stroke-linecap: square"/>
     </g>
     <g id="line2d_12">
      <g>
       <use xlink:href="#mc8d3a1f174" x="228.547898" y="170.918125" style="stroke: #000000; stroke-width: 0.8"/>
      </g>
     </g>
     <g id="text_6">
      <!-- 50 -->
      <g transform="translate(222.185398 185.516562) scale(0.1 -0.1)">
       <defs>
        <path id="DejaVuSans-35" d="M 691 4666 
L 3169 4666 
L 3169 4134 
L 1269 4134 
L 1269 2991 
Q 1406 3038 1543 3061 
Q 1681 3084 1819 3084 
Q 2600 3084 3056 2656 
Q 3513 2228 3513 1497 
Q 3513 744 3044 326 
Q 2575 -91 1722 -91 
Q 1428 -91 1123 -41 
Q 819 9 494 109 
L 494 744 
Q 775 591 1075 516 
Q 1375 441 1709 441 
Q 2250 441 2565 725 
Q 2881 1009 2881 1497 
Q 2881 1984 2565 2268 
Q 2250 2553 1709 2553 
Q 1456 2553 1204 2497 
Q 953 2441 691 2322 
L 691 4666 
z
" transform="scale(0.015625)"/>
       </defs>
       <use xlink:href="#DejaVuSans-35"/>
       <use xlink:href="#DejaVuSans-30" transform="translate(63.623047 0)"/>
      </g>
     </g>
    </g>
    <g id="text_7">
     <!-- SVGD Iteration -->
     <g transform="translate(98.904219 199.194687) scale(0.1 -0.1)">
      <defs>
       <path id="DejaVuSans-53" d="M 3425 4513 
L 3425 3897 
Q 3066 4069 2747 4153 
Q 2428 4238 2131 4238 
Q 1616 4238 1336 4038 
Q 1056 3838 1056 3469 
Q 1056 3159 1242 3001 
Q 1428 2844 1947 2747 
L 2328 2669 
Q 3034 2534 3370 2195 
Q 3706 1856 3706 1288 
Q 3706 609 3251 259 
Q 2797 -91 1919 -91 
Q 1588 -91 1214 -16 
Q 841 59 441 206 
L 441 856 
Q 825 641 1194 531 
Q 1563 422 1919 422 
Q 2459 422 2753 634 
Q 3047 847 3047 1241 
Q 3047 1584 2836 1778 
Q 2625 1972 2144 2069 
L 1759 2144 
Q 1053 2284 737 2584 
Q 422 2884 422 3419 
Q 422 4038 858 4394 
Q 1294 4750 2059 4750 
Q 2388 4750 2728 4690 
Q 3069 4631 3425 4513 
z
" transform="scale(0.015625)"/>
       <path id="DejaVuSans-56" d="M 1831 0 
L 50 4666 
L 709 4666 
L 2188 738 
L 3669 4666 
L 4325 4666 
L 2547 0 
L 1831 0 
z
" transform="scale(0.015625)"/>
       <path id="DejaVuSans-47" d="M 3809 666 
L 3809 1919 
L 2778 1919 
L 2778 2438 
L 4434 2438 
L 4434 434 
Q 4069 175 3628 42 
Q 3188 -91 2688 -91 
Q 1594 -91 976 548 
Q 359 1188 359 2328 
Q 359 3472 976 4111 
Q 1594 4750 2688 4750 
Q 3144 4750 3555 4637 
Q 3966 4525 4313 4306 
L 4313 3634 
Q 3963 3931 3569 4081 
Q 3175 4231 2741 4231 
Q 1884 4231 1454 3753 
Q 1025 3275 1025 2328 
Q 1025 1384 1454 906 
Q 1884 428 2741 428 
Q 3075 428 3337 486 
Q 3600 544 3809 666 
z
" transform="scale(0.015625)"/>
       <path id="DejaVuSans-44" d="M 1259 4147 
L 1259 519 
L 2022 519 
Q 2988 519 3436 956 
Q 3884 1394 3884 2338 
Q 3884 3275 3436 3711 
Q 2988 4147 2022 4147 
L 1259 4147 
z
M 628 4666 
L 1925 4666 
Q 3281 4666 3915 4102 
Q 4550 3538 4550 2338 
Q 4550 1131 3912 565 
Q 3275 0 1925 0 
L 628 0 
L 628 4666 
z
" transform="scale(0.015625)"/>
       <path id="DejaVuSans-20" transform="scale(0.015625)"/>
       <path id="DejaVuSans-49" d="M 628 4666 
L 1259 4666 
L 1259 0 
L 628 0 
L 628 4666 
z
" transform="scale(0.015625)"/>
       <path id="DejaVuSans-74" d="M 1172 4494 
L 1172 3500 
L 2356 3500 
L 2356 3053 
L 1172 3053 
L 1172 1153 
Q 1172 725 1289 603 
Q 1406 481 1766 481 
L 2356 481 
L 2356 0 
L 1766 0 
Q 1100 0 847 248 
Q 594 497 594 1153 
L 594 3053 
L 172 3053 
L 172 3500 
L 594 3500 
L 594 4494 
L 1172 4494 
z
" transform="scale(0.015625)"/>
       <path id="DejaVuSans-65" d="M 3597 1894 
L 3597 1613 
L 953 1613 
Q 991 1019 1311 708 
Q 1631 397 2203 397 
Q 2534 397 2845 478 
Q 3156 559 3463 722 
L 3463 178 
Q 3153 47 2828 -22 
Q 2503 -91 2169 -91 
Q 1331 -91 842 396 
Q 353 884 353 1716 
Q 353 2575 817 3079 
Q 1281 3584 2069 3584 
Q 2775 3584 3186 3129 
Q 3597 2675 3597 1894 
z
M 3022 2063 
Q 3016 2534 2758 2815 
Q 2500 3097 2075 3097 
Q 1594 3097 1305 2825 
Q 1016 2553 972 2059 
L 3022 2063 
z
" transform="scale(0.015625)"/>
       <path id="DejaVuSans-72" d="M 2631 2963 
Q 2534 3019 2420 3045 
Q 2306 3072 2169 3072 
Q 1681 3072 1420 2755 
Q 1159 2438 1159 1844 
L 1159 0 
L 581 0 
L 581 3500 
L 1159 3500 
L 1159 2956 
Q 1341 3275 1631 3429 
Q 1922 3584 2338 3584 
Q 2397 3584 2469 3576 
Q 2541 3569 2628 3553 
L 2631 2963 
z
" transform="scale(0.015625)"/>
       <path id="DejaVuSans-61" d="M 2194 1759 
Q 1497 1759 1228 1600 
Q 959 1441 959 1056 
Q 959 750 1161 570 
Q 1363 391 1709 391 
Q 2188 391 2477 730 
Q 2766 1069 2766 1631 
L 2766 1759 
L 2194 1759 
z
M 3341 1997 
L 3341 0 
L 2766 0 
L 2766 531 
Q 2569 213 2275 61 
Q 1981 -91 1556 -91 
Q 1019 -91 701 211 
Q 384 513 384 1019 
Q 384 1609 779 1909 
Q 1175 2209 1959 2209 
L 2766 2209 
L 2766 2266 
Q 2766 2663 2505 2880 
Q 2244 3097 1772 3097 
Q 1472 3097 1187 3025 
Q 903 2953 641 2809 
L 641 3341 
Q 956 3463 1253 3523 
Q 1550 3584 1831 3584 
Q 2591 3584 2966 3190 
Q 3341 2797 3341 1997 
z
" transform="scale(0.015625)"/>
       <path id="DejaVuSans-69" d="M 603 3500 
L 1178 3500 
L 1178 0 
L 603 0 
L 603 3500 
z
M 603 4863 
L 1178 4863 
L 1178 4134 
L 603 4134 
L 603 4863 
z
" transform="scale(0.015625)"/>
       <path id="DejaVuSans-6f" d="M 1959 3097 
Q 1497 3097 1228 2736 
Q 959 2375 959 1747 
Q 959 1119 1226 758 
Q 1494 397 1959 397 
Q 2419 397 2687 759 
Q 2956 1122 2956 1747 
Q 2956 2369 2687 2733 
Q 2419 3097 1959 3097 
z
M 1959 3584 
Q 2709 3584 3137 3096 
Q 3566 2609 3566 1747 
Q 3566 888 3137 398 
Q 2709 -91 1959 -91 
Q 1206 -91 779 398 
Q 353 888 353 1747 
Q 353 2609 779 3096 
Q 1206 3584 1959 3584 
z
" transform="scale(0.015625)"/>
       <path id="DejaVuSans-6e" d="M 3513 2113 
L 3513 0 
L 2938 0 
L 2938 2094 
Q 2938 2591 2744 2837 
Q 2550 3084 2163 3084 
Q 1697 3084 1428 2787 
Q 1159 2491 1159 1978 
L 1159 0 
L 581 0 
L 581 3500 
L 1159 3500 
L 1159 2956 
Q 1366 3272 1645 3428 
Q 1925 3584 2291 3584 
Q 2894 3584 3203 3211 
Q 3513 2838 3513 2113 
z
" transform="scale(0.015625)"/>
      </defs>
      <use xlink:href="#DejaVuSans-53"/>
      <use xlink:href="#DejaVuSans-56" transform="translate(63.476562 0)"/>
      <use xlink:href="#DejaVuSans-47" transform="translate(131.884766 0)"/>
      <use xlink:href="#DejaVuSans-44" transform="translate(209.375 0)"/>
      <use xlink:href="#DejaVuSans-20" transform="translate(286.376953 0)"/>
      <use xlink:href="#DejaVuSans-49" transform="translate(318.164062 0)"/>
      <use xlink:href="#DejaVuSans-74" transform="translate(347.65625 0)"/>
      <use xlink:href="#DejaVuSans-65" transform="translate(386.865234 0)"/>
      <use xlink:href="#DejaVuSans-72" transform="translate(448.388672 0)"/>
      <use xlink:href="#DejaVuSans-61" transform="translate(489.501953 0)"/>
      <use xlink:href="#DejaVuSans-74" transform="translate(550.78125 0)"/>
      <use xlink:href="#DejaVuSans-69" transform="translate(589.990234 0)"/>
      <use xlink:href="#DejaVuSans-6f" transform="translate(617.773438 0)"/>
      <use xlink:href="#DejaVuSans-6e" transform="translate(678.955078 0)"/>
     </g>
    </g>
   </g>
   <g id="matplotlib.axis_2">
    <g id="ytick_1">
     <g id="line2d_13">
      <path d="M 34.240625 164.167533 
L 237.800625 164.167533 
" clip-path="url(#pc9fc95b636)" style="fill: none; stroke: #b0b0b0; stroke-opacity: 0.3; stroke-width: 0.8; stroke-linecap: square"/>
     </g>
     <g id="line2d_14">
      <defs>
       <path id="md9f9a5cb44" d="M 0 0 
L -3.5 0 
" style="stroke: #000000; stroke-width: 0.8"/>
      </defs>
      <g>
       <use xlink:href="#md9f9a5cb44" x="34.240625" y="164.167533" style="stroke: #000000; stroke-width: 0.8"/>
      </g>
     </g>
     <g id="text_8">
      <!-- 0 -->
      <g transform="translate(20.878125 167.966752) scale(0.1 -0.1)">
       <use xlink:href="#DejaVuSans-30"/>
      </g>
     </g>
    </g>
    <g id="ytick_2">
     <g id="line2d_15">
      <path d="M 34.240625 129.525828 
L 237.800625 129.525828 
" clip-path="url(#pc9fc95b636)" style="fill: none; stroke: #b0b0b0; stroke-opacity: 0.3; stroke-width: 0.8; stroke-linecap: square"/>
     </g>
     <g id="line2d_16">
      <g>
       <use xlink:href="#md9f9a5cb44" x="34.240625" y="129.525828" style="stroke: #000000; stroke-width: 0.8"/>
      </g>
     </g>
     <g id="text_9">
      <!-- 1 -->
      <g transform="translate(20.878125 133.325047) scale(0.1 -0.1)">
       <use xlink:href="#DejaVuSans-31"/>
      </g>
     </g>
    </g>
    <g id="ytick_3">
     <g id="line2d_17">
      <path d="M 34.240625 94.884123 
L 237.800625 94.884123 
" clip-path="url(#pc9fc95b636)" style="fill: none; stroke: #b0b0b0; stroke-opacity: 0.3; stroke-width: 0.8; stroke-linecap: square"/>
     </g>
     <g id="line2d_18">
      <g>
       <use xlink:href="#md9f9a5cb44" x="34.240625" y="94.884123" style="stroke: #000000; stroke-width: 0.8"/>
      </g>
     </g>
     <g id="text_10">
      <!-- 2 -->
      <g transform="translate(20.878125 98.683342) scale(0.1 -0.1)">
       <use xlink:href="#DejaVuSans-32"/>
      </g>
     </g>
    </g>
    <g id="ytick_4">
     <g id="line2d_19">
      <path d="M 34.240625 60.242418 
L 237.800625 60.242418 
" clip-path="url(#pc9fc95b636)" style="fill: none; stroke: #b0b0b0; stroke-opacity: 0.3; stroke-width: 0.8; stroke-linecap: square"/>
     </g>
     <g id="line2d_20">
      <g>
       <use xlink:href="#md9f9a5cb44" x="34.240625" y="60.242418" style="stroke: #000000; stroke-width: 0.8"/>
      </g>
     </g>
     <g id="text_11">
      <!-- 3 -->
      <g transform="translate(20.878125 64.041636) scale(0.1 -0.1)">
       <use xlink:href="#DejaVuSans-33"/>
      </g>
     </g>
    </g>
    <g id="ytick_5">
     <g id="line2d_21">
      <path d="M 34.240625 25.600712 
L 237.800625 25.600712 
" clip-path="url(#pc9fc95b636)" style="fill: none; stroke: #b0b0b0; stroke-opacity: 0.3; stroke-width: 0.8; stroke-linecap: square"/>
     </g>
     <g id="line2d_22">
      <g>
       <use xlink:href="#md9f9a5cb44" x="34.240625" y="25.600712" style="stroke: #000000; stroke-width: 0.8"/>
      </g>
     </g>
     <g id="text_12">
      <!-- 4 -->
      <g transform="translate(20.878125 29.399931) scale(0.1 -0.1)">
       <use xlink:href="#DejaVuSans-34"/>
      </g>
     </g>
    </g>
    <g id="text_13">
     <!-- Posterior Mean -->
     <g transform="translate(14.798438 133.924375) rotate(-90) scale(0.1 -0.1)">
      <defs>
       <path id="DejaVuSans-50" d="M 1259 4147 
L 1259 2394 
L 2053 2394 
Q 2494 2394 2734 2622 
Q 2975 2850 2975 3272 
Q 2975 3691 2734 3919 
Q 2494 4147 2053 4147 
L 1259 4147 
z
M 628 4666 
L 2053 4666 
Q 2838 4666 3239 4311 
Q 3641 3956 3641 3272 
Q 3641 2581 3239 2228 
Q 2838 1875 2053 1875 
L 1259 1875 
L 1259 0 
L 628 0 
L 628 4666 
z
" transform="scale(0.015625)"/>
       <path id="DejaVuSans-73" d="M 2834 3397 
L 2834 2853 
Q 2591 2978 2328 3040 
Q 2066 3103 1784 3103 
Q 1356 3103 1142 2972 
Q 928 2841 928 2578 
Q 928 2378 1081 2264 
Q 1234 2150 1697 2047 
L 1894 2003 
Q 2506 1872 2764 1633 
Q 3022 1394 3022 966 
Q 3022 478 2636 193 
Q 2250 -91 1575 -91 
Q 1294 -91 989 -36 
Q 684 19 347 128 
L 347 722 
Q 666 556 975 473 
Q 1284 391 1588 391 
Q 1994 391 2212 530 
Q 2431 669 2431 922 
Q 2431 1156 2273 1281 
Q 2116 1406 1581 1522 
L 1381 1569 
Q 847 1681 609 1914 
Q 372 2147 372 2553 
Q 372 3047 722 3315 
Q 1072 3584 1716 3584 
Q 2034 3584 2315 3537 
Q 2597 3491 2834 3397 
z
" transform="scale(0.015625)"/>
       <path id="DejaVuSans-4d" d="M 628 4666 
L 1569 4666 
L 2759 1491 
L 3956 4666 
L 4897 4666 
L 4897 0 
L 4281 0 
L 4281 4097 
L 3078 897 
L 2444 897 
L 1241 4097 
L 1241 0 
L 628 0 
L 628 4666 
z
" transform="scale(0.015625)"/>
      </defs>
      <use xlink:href="#DejaVuSans-50"/>
      <use xlink:href="#DejaVuSans-6f" transform="translate(56.677734 0)"/>
      <use xlink:href="#DejaVuSans-73" transform="translate(117.859375 0)"/>
      <use xlink:href="#DejaVuSans-74" transform="translate(169.958984 0)"/>
      <use xlink:href="#DejaVuSans-65" transform="translate(209.167969 0)"/>
      <use xlink:href="#DejaVuSans-72" transform="translate(270.691406 0)"/>
      <use xlink:href="#DejaVuSans-69" transform="translate(311.804688 0)"/>
      <use xlink:href="#DejaVuSans-6f" transform="translate(339.587891 0)"/>
      <use xlink:href="#DejaVuSans-72" transform="translate(400.769531 0)"/>
      <use xlink:href="#DejaVuSans-20" transform="translate(441.882812 0)"/>
      <use xlink:href="#DejaVuSans-4d" transform="translate(473.669922 0)"/>
      <use xlink:href="#DejaVuSans-65" transform="translate(559.949219 0)"/>
      <use xlink:href="#DejaVuSans-61" transform="translate(621.472656 0)"/>
      <use xlink:href="#DejaVuSans-6e" transform="translate(682.751953 0)"/>
     </g>
    </g>
   </g>
   <g id="line2d_23">
    <path d="M 43.493352 164.16358 
L 43.493352 164.162333 
L 47.194443 164.162356 
L 50.895534 164.162381 
L 54.596625 164.162404 
L 58.297716 164.162426 
L 61.998807 164.162448 
L 65.699898 164.162469 
L 69.400989 164.162488 
L 73.10208 164.162507 
L 76.80317 164.162525 
L 80.504261 164.162543 
L 84.205352 164.16256 
L 87.906443 164.162576 
L 91.607534 164.162591 
L 95.308625 164.162606 
L 99.009716 164.16262 
L 102.710807 164.162634 
L 106.411898 164.162647 
L 110.112989 164.162659 
L 113.81408 164.162671 
L 117.51517 164.162683 
L 121.216261 164.162694 
L 124.917352 164.162705 
L 128.618443 164.162715 
L 132.319534 164.162725 
L 136.020625 164.162735 
L 139.721716 164.162745 
L 143.422807 164.162754 
L 147.123898 164.162763 
L 150.824989 164.162771 
L 154.52608 164.16278 
L 158.22717 164.162788 
L 161.928261 164.162795 
L 165.629352 164.162803 
L 169.330443 164.16281 
L 173.031534 164.162817 
L 176.732625 164.162824 
L 180.433716 164.162831 
L 184.134807 164.162837 
L 187.835898 164.162843 
L 191.536989 164.162849 
L 195.23808 164.162855 
L 198.93917 164.162861 
L 202.640261 164.162866 
L 206.341352 164.162872 
L 210.042443 164.162877 
L 213.743534 164.162882 
L 217.444625 164.162887 
L 221.145716 164.162892 
L 224.846807 164.162897 
L 228.547898 164.162897 
" clip-path="url(#pc9fc95b636)" style="fill: none; stroke: #1f77b4; stroke-width: 1.5; stroke-linecap: square"/>
   </g>
   <g id="line2d_24">
    <path d="M 43.493352 164.162355 
L 43.493352 75.223807 
L 47.194443 29.07267 
L 50.895534 29.804255 
L 54.596625 30.519335 
L 58.297716 31.21833 
L 61.998807 31.901645 
L 65.699898 32.568845 
L 69.400989 33.220358 
L 73.10208 33.85641 
L 76.80317 34.476604 
L 80.504261 35.081389 
L 84.205352 35.671575 
L 87.906443 36.24847 
L 91.607534 36.810056 
L 95.308625 37.356486 
L 99.009716 37.88823 
L 102.710807 38.405742 
L 106.411898 38.908845 
L 110.112989 39.397342 
L 113.81408 39.872345 
L 117.51517 40.335057 
L 121.216261 40.786123 
L 124.917352 41.226386 
L 128.618443 41.657274 
L 132.319534 42.079039 
L 136.020625 42.492357 
L 139.721716 42.896795 
L 143.422807 43.292221 
L 147.123898 43.678311 
L 150.824989 44.05476 
L 154.52608 44.421194 
L 158.22717 44.778111 
L 161.928261 45.12615 
L 165.629352 45.465592 
L 169.330443 45.796709 
L 173.031534 46.120331 
L 176.732625 46.436857 
L 180.433716 46.74649 
L 184.134807 47.049428 
L 187.835898 47.346101 
L 191.536989 47.636865 
L 195.23808 47.921879 
L 198.93917 48.20122 
L 202.640261 48.474763 
L 206.341352 48.742971 
L 210.042443 49.006149 
L 213.743534 49.264435 
L 217.444625 49.517962 
L 221.145716 49.766862 
L 224.846807 50.0112 
L 228.547898 50.0112 
" clip-path="url(#pc9fc95b636)" style="fill: none; stroke: #ff7f0e; stroke-width: 1.5; stroke-linecap: square"/>
   </g>
   <g id="patch_3">
    <path d="M 34.240625 170.918125 
L 34.240625 22.318125 
" style="fill: none; stroke: #000000; stroke-width: 0.8; stroke-linejoin: miter; stroke-linecap: square"/>
   </g>
   <g id="patch_4">
    <path d="M 237.800625 170.918125 
L 237.800625 22.318125 
" style="fill: none; stroke: #000000; stroke-width: 0.8; stroke-linejoin: miter; stroke-linecap: square"/>
   </g>
   <g id="patch_5">
    <path d="M 34.240625 170.918125 
L 237.800625 170.918125 
" style="fill: none; stroke: #000000; stroke-width: 0.8; stroke-linejoin: miter; stroke-linecap: square"/>
   </g>
   <g id="patch_6">
    <path d="M 34.240625 22.318125 
L 237.800625 22.318125 
" style="fill: none; stroke: #000000; stroke-width: 0.8; stroke-linejoin: miter; stroke-linecap: square"/>
   </g>
   <g id="text_14">
    <!-- Mean -->
    <g transform="translate(119.6725 16.318125) scale(0.12 -0.12)">
     <use xlink:href="#DejaVuSans-4d"/>
     <use xlink:href="#DejaVuSans-65" transform="translate(86.279297 0)"/>
     <use xlink:href="#DejaVuSans-61" transform="translate(147.802734 0)"/>
     <use xlink:href="#DejaVuSans-6e" transform="translate(209.082031 0)"/>
    </g>
   </g>
   <g id="legend_1">
    <g id="patch_7">
     <path d="M 187.900625 112.79625 
L 230.800625 112.79625 
Q 232.800625 112.79625 232.800625 110.79625 
L 232.800625 82.44 
Q 232.800625 80.44 230.800625 80.44 
L 187.900625 80.44 
Q 185.900625 80.44 185.900625 82.44 
L 185.900625 110.79625 
Q 185.900625 112.79625 187.900625 112.79625 
z
" style="fill: #ffffff; opacity: 0.8; stroke: #cccccc; stroke-linejoin: miter"/>
    </g>
    <g id="line2d_25">
     <path d="M 189.900625 88.538437 
L 199.900625 88.538437 
L 209.900625 88.538437 
" style="fill: none; stroke: #1f77b4; stroke-width: 1.5; stroke-linecap: square"/>
    </g>
    <g id="text_15">
     <!-- $\theta_0$ -->
     <g transform="translate(217.900625 92.038437) scale(0.1 -0.1)">
      <defs>
       <path id="DejaVuSans-Oblique-3b8" d="M 2913 2219 
L 925 2219 
Q 791 1284 928 888 
Q 1100 400 1566 400 
Q 2034 400 2391 891 
Q 2703 1322 2913 2219 
z
M 3009 2750 
Q 3094 3638 2984 3950 
Q 2813 4444 2353 4444 
Q 1875 4444 1525 3956 
Q 1250 3563 1034 2750 
L 3009 2750 
z
M 2444 4913 
Q 3194 4913 3494 4250 
Q 3794 3591 3566 2422 
Q 3341 1256 2781 594 
Q 2225 -72 1475 -72 
Q 722 -72 425 594 
Q 128 1256 353 2422 
Q 581 3591 1134 4250 
Q 1691 4913 2444 4913 
z
" transform="scale(0.015625)"/>
      </defs>
      <use xlink:href="#DejaVuSans-Oblique-3b8" transform="translate(0 0.234375)"/>
      <use xlink:href="#DejaVuSans-30" transform="translate(61.181641 -16.171875) scale(0.7)"/>
     </g>
    </g>
    <g id="line2d_26">
     <path d="M 189.900625 103.216562 
L 199.900625 103.216562 
L 209.900625 103.216562 
" style="fill: none; stroke: #ff7f0e; stroke-width: 1.5; stroke-linecap: square"/>
    </g>
    <g id="text_16">
     <!-- $\theta_2$ -->
     <g transform="translate(217.900625 106.716562) scale(0.1 -0.1)">
      <use xlink:href="#DejaVuSans-Oblique-3b8" transform="translate(0 0.234375)"/>
      <use xlink:href="#DejaVuSans-32" transform="translate(61.181641 -16.171875) scale(0.7)"/>
     </g>
    </g>
   </g>
  </g>
  <g id="axes_2">
   <g id="patch_8">
    <path d="M 285.610625 170.918125 
L 489.170625 170.918125 
L 489.170625 22.318125 
L 285.610625 22.318125 
z
" style="fill: #ffffff"/>
   </g>
   <g id="matplotlib.axis_3">
    <g id="xtick_7">
     <g id="line2d_27">
      <path d="M 294.863352 170.918125 
L 294.863352 22.318125 
" clip-path="url(#p5bb9c315b8)" style="fill: none; stroke: #b0b0b0; stroke-opacity: 0.3; stroke-width: 0.8; stroke-linecap: square"/>
     </g>
     <g id="line2d_28">
      <g>
       <use xlink:href="#mc8d3a1f174" x="294.863352" y="170.918125" style="stroke: #000000; stroke-width: 0.8"/>
      </g>
     </g>
     <g id="text_17">
      <!-- 0 -->
      <g transform="translate(291.682102 185.516562) scale(0.1 -0.1)">
       <use xlink:href="#DejaVuSans-30"/>
      </g>
     </g>
    </g>
    <g id="xtick_8">
     <g id="line2d_29">
      <path d="M 331.874261 170.918125 
L 331.874261 22.318125 
" clip-path="url(#p5bb9c315b8)" style="fill: none; stroke: #b0b0b0; stroke-opacity: 0.3; stroke-width: 0.8; stroke-linecap: square"/>
     </g>
     <g id="line2d_30">
      <g>
       <use xlink:href="#mc8d3a1f174" x="331.874261" y="170.918125" style="stroke: #000000; stroke-width: 0.8"/>
      </g>
     </g>
     <g id="text_18">
      <!-- 10 -->
      <g transform="translate(325.511761 185.516562) scale(0.1 -0.1)">
       <use xlink:href="#DejaVuSans-31"/>
       <use xlink:href="#DejaVuSans-30" transform="translate(63.623047 0)"/>
      </g>
     </g>
    </g>
    <g id="xtick_9">
     <g id="line2d_31">
      <path d="M 368.88517 170.918125 
L 368.88517 22.318125 
" clip-path="url(#p5bb9c315b8)" style="fill: none; stroke: #b0b0b0; stroke-opacity: 0.3; stroke-width: 0.8; stroke-linecap: square"/>
     </g>
     <g id="line2d_32">
      <g>
       <use xlink:href="#mc8d3a1f174" x="368.88517" y="170.918125" style="stroke: #000000; stroke-width: 0.8"/>
      </g>
     </g>
     <g id="text_19">
      <!-- 20 -->
      <g transform="translate(362.52267 185.516562) scale(0.1 -0.1)">
       <use xlink:href="#DejaVuSans-32"/>
       <use xlink:href="#DejaVuSans-30" transform="translate(63.623047 0)"/>
      </g>
     </g>
    </g>
    <g id="xtick_10">
     <g id="line2d_33">
      <path d="M 405.89608 170.918125 
L 405.89608 22.318125 
" clip-path="url(#p5bb9c315b8)" style="fill: none; stroke: #b0b0b0; stroke-opacity: 0.3; stroke-width: 0.8; stroke-linecap: square"/>
     </g>
     <g id="line2d_34">
      <g>
       <use xlink:href="#mc8d3a1f174" x="405.89608" y="170.918125" style="stroke: #000000; stroke-width: 0.8"/>
      </g>
     </g>
     <g id="text_20">
      <!-- 30 -->
      <g transform="translate(399.53358 185.516562) scale(0.1 -0.1)">
       <use xlink:href="#DejaVuSans-33"/>
       <use xlink:href="#DejaVuSans-30" transform="translate(63.623047 0)"/>
      </g>
     </g>
    </g>
    <g id="xtick_11">
     <g id="line2d_35">
      <path d="M 442.906989 170.918125 
L 442.906989 22.318125 
" clip-path="url(#p5bb9c315b8)" style="fill: none; stroke: #b0b0b0; stroke-opacity: 0.3; stroke-width: 0.8; stroke-linecap: square"/>
     </g>
     <g id="line2d_36">
      <g>
       <use xlink:href="#mc8d3a1f174" x="442.906989" y="170.918125" style="stroke: #000000; stroke-width: 0.8"/>
      </g>
     </g>
     <g id="text_21">
      <!-- 40 -->
      <g transform="translate(436.544489 185.516562) scale(0.1 -0.1)">
       <use xlink:href="#DejaVuSans-34"/>
       <use xlink:href="#DejaVuSans-30" transform="translate(63.623047 0)"/>
      </g>
     </g>
    </g>
    <g id="xtick_12">
     <g id="line2d_37">
      <path d="M 479.917898 170.918125 
L 479.917898 22.318125 
" clip-path="url(#p5bb9c315b8)" style="fill: none; stroke: #b0b0b0; stroke-opacity: 0.3; stroke-width: 0.8; stroke-linecap: square"/>
     </g>
     <g id="line2d_38">
      <g>
       <use xlink:href="#mc8d3a1f174" x="479.917898" y="170.918125" style="stroke: #000000; stroke-width: 0.8"/>
      </g>
     </g>
     <g id="text_22">
      <!-- 50 -->
      <g transform="translate(473.555398 185.516562) scale(0.1 -0.1)">
       <use xlink:href="#DejaVuSans-35"/>
       <use xlink:href="#DejaVuSans-30" transform="translate(63.623047 0)"/>
      </g>
     </g>
    </g>
    <g id="text_23">
     <!-- SVGD Iteration -->
     <g transform="translate(350.274219 199.194687) scale(0.1 -0.1)">
      <use xlink:href="#DejaVuSans-53"/>
      <use xlink:href="#DejaVuSans-56" transform="translate(63.476562 0)"/>
      <use xlink:href="#DejaVuSans-47" transform="translate(131.884766 0)"/>
      <use xlink:href="#DejaVuSans-44" transform="translate(209.375 0)"/>
      <use xlink:href="#DejaVuSans-20" transform="translate(286.376953 0)"/>
      <use xlink:href="#DejaVuSans-49" transform="translate(318.164062 0)"/>
      <use xlink:href="#DejaVuSans-74" transform="translate(347.65625 0)"/>
      <use xlink:href="#DejaVuSans-65" transform="translate(386.865234 0)"/>
      <use xlink:href="#DejaVuSans-72" transform="translate(448.388672 0)"/>
      <use xlink:href="#DejaVuSans-61" transform="translate(489.501953 0)"/>
      <use xlink:href="#DejaVuSans-74" transform="translate(550.78125 0)"/>
      <use xlink:href="#DejaVuSans-69" transform="translate(589.990234 0)"/>
      <use xlink:href="#DejaVuSans-6f" transform="translate(617.773438 0)"/>
      <use xlink:href="#DejaVuSans-6e" transform="translate(678.955078 0)"/>
     </g>
    </g>
   </g>
   <g id="matplotlib.axis_4">
    <g id="ytick_6">
     <g id="line2d_39">
      <path d="M 285.610625 164.167178 
L 489.170625 164.167178 
" clip-path="url(#p5bb9c315b8)" style="fill: none; stroke: #b0b0b0; stroke-opacity: 0.3; stroke-width: 0.8; stroke-linecap: square"/>
     </g>
     <g id="line2d_40">
      <g>
       <use xlink:href="#md9f9a5cb44" x="285.610625" y="164.167178" style="stroke: #000000; stroke-width: 0.8"/>
      </g>
     </g>
     <g id="text_24">
      <!-- 0.0 -->
      <g transform="translate(262.7075 167.966397) scale(0.1 -0.1)">
       <defs>
        <path id="DejaVuSans-2e" d="M 684 794 
L 1344 794 
L 1344 0 
L 684 0 
L 684 794 
z
" transform="scale(0.015625)"/>
       </defs>
       <use xlink:href="#DejaVuSans-30"/>
       <use xlink:href="#DejaVuSans-2e" transform="translate(63.623047 0)"/>
       <use xlink:href="#DejaVuSans-30" transform="translate(95.410156 0)"/>
      </g>
     </g>
    </g>
    <g id="ytick_7">
     <g id="line2d_41">
      <path d="M 285.610625 141.89054 
L 489.170625 141.89054 
" clip-path="url(#p5bb9c315b8)" style="fill: none; stroke: #b0b0b0; stroke-opacity: 0.3; stroke-width: 0.8; stroke-linecap: square"/>
     </g>
     <g id="line2d_42">
      <g>
       <use xlink:href="#md9f9a5cb44" x="285.610625" y="141.89054" style="stroke: #000000; stroke-width: 0.8"/>
      </g>
     </g>
     <g id="text_25">
      <!-- 0.5 -->
      <g transform="translate(262.7075 145.689759) scale(0.1 -0.1)">
       <use xlink:href="#DejaVuSans-30"/>
       <use xlink:href="#DejaVuSans-2e" transform="translate(63.623047 0)"/>
       <use xlink:href="#DejaVuSans-35" transform="translate(95.410156 0)"/>
      </g>
     </g>
    </g>
    <g id="ytick_8">
     <g id="line2d_43">
      <path d="M 285.610625 119.613902 
L 489.170625 119.613902 
" clip-path="url(#p5bb9c315b8)" style="fill: none; stroke: #b0b0b0; stroke-opacity: 0.3; stroke-width: 0.8; stroke-linecap: square"/>
     </g>
     <g id="line2d_44">
      <g>
       <use xlink:href="#md9f9a5cb44" x="285.610625" y="119.613902" style="stroke: #000000; stroke-width: 0.8"/>
      </g>
     </g>
     <g id="text_26">
      <!-- 1.0 -->
      <g transform="translate(262.7075 123.413121) scale(0.1 -0.1)">
       <use xlink:href="#DejaVuSans-31"/>
       <use xlink:href="#DejaVuSans-2e" transform="translate(63.623047 0)"/>
       <use xlink:href="#DejaVuSans-30" transform="translate(95.410156 0)"/>
      </g>
     </g>
    </g>
    <g id="ytick_9">
     <g id="line2d_45">
      <path d="M 285.610625 97.337264 
L 489.170625 97.337264 
" clip-path="url(#p5bb9c315b8)" style="fill: none; stroke: #b0b0b0; stroke-opacity: 0.3; stroke-width: 0.8; stroke-linecap: square"/>
     </g>
     <g id="line2d_46">
      <g>
       <use xlink:href="#md9f9a5cb44" x="285.610625" y="97.337264" style="stroke: #000000; stroke-width: 0.8"/>
      </g>
     </g>
     <g id="text_27">
      <!-- 1.5 -->
      <g transform="translate(262.7075 101.136483) scale(0.1 -0.1)">
       <use xlink:href="#DejaVuSans-31"/>
       <use xlink:href="#DejaVuSans-2e" transform="translate(63.623047 0)"/>
       <use xlink:href="#DejaVuSans-35" transform="translate(95.410156 0)"/>
      </g>
     </g>
    </g>
    <g id="ytick_10">
     <g id="line2d_47">
      <path d="M 285.610625 75.060626 
L 489.170625 75.060626 
" clip-path="url(#p5bb9c315b8)" style="fill: none; stroke: #b0b0b0; stroke-opacity: 0.3; stroke-width: 0.8; stroke-linecap: square"/>
     </g>
     <g id="line2d_48">
      <g>
       <use xlink:href="#md9f9a5cb44" x="285.610625" y="75.060626" style="stroke: #000000; stroke-width: 0.8"/>
      </g>
     </g>
     <g id="text_28">
      <!-- 2.0 -->
      <g transform="translate(262.7075 78.859845) scale(0.1 -0.1)">
       <use xlink:href="#DejaVuSans-32"/>
       <use xlink:href="#DejaVuSans-2e" transform="translate(63.623047 0)"/>
       <use xlink:href="#DejaVuSans-30" transform="translate(95.410156 0)"/>
      </g>
     </g>
    </g>
    <g id="ytick_11">
     <g id="line2d_49">
      <path d="M 285.610625 52.783988 
L 489.170625 52.783988 
" clip-path="url(#p5bb9c315b8)" style="fill: none; stroke: #b0b0b0; stroke-opacity: 0.3; stroke-width: 0.8; stroke-linecap: square"/>
     </g>
     <g id="line2d_50">
      <g>
       <use xlink:href="#md9f9a5cb44" x="285.610625" y="52.783988" style="stroke: #000000; stroke-width: 0.8"/>
      </g>
     </g>
     <g id="text_29">
      <!-- 2.5 -->
      <g transform="translate(262.7075 56.583207) scale(0.1 -0.1)">
       <use xlink:href="#DejaVuSans-32"/>
       <use xlink:href="#DejaVuSans-2e" transform="translate(63.623047 0)"/>
       <use xlink:href="#DejaVuSans-35" transform="translate(95.410156 0)"/>
      </g>
     </g>
    </g>
    <g id="ytick_12">
     <g id="line2d_51">
      <path d="M 285.610625 30.50735 
L 489.170625 30.50735 
" clip-path="url(#p5bb9c315b8)" style="fill: none; stroke: #b0b0b0; stroke-opacity: 0.3; stroke-width: 0.8; stroke-linecap: square"/>
     </g>
     <g id="line2d_52">
      <g>
       <use xlink:href="#md9f9a5cb44" x="285.610625" y="30.50735" style="stroke: #000000; stroke-width: 0.8"/>
      </g>
     </g>
     <g id="text_30">
      <!-- 3.0 -->
      <g transform="translate(262.7075 34.306569) scale(0.1 -0.1)">
       <use xlink:href="#DejaVuSans-33"/>
       <use xlink:href="#DejaVuSans-2e" transform="translate(63.623047 0)"/>
       <use xlink:href="#DejaVuSans-30" transform="translate(95.410156 0)"/>
      </g>
     </g>
    </g>
    <g id="text_31">
     <!-- Posterior Std -->
     <g transform="translate(256.627813 128.609531) rotate(-90) scale(0.1 -0.1)">
      <defs>
       <path id="DejaVuSans-64" d="M 2906 2969 
L 2906 4863 
L 3481 4863 
L 3481 0 
L 2906 0 
L 2906 525 
Q 2725 213 2448 61 
Q 2172 -91 1784 -91 
Q 1150 -91 751 415 
Q 353 922 353 1747 
Q 353 2572 751 3078 
Q 1150 3584 1784 3584 
Q 2172 3584 2448 3432 
Q 2725 3281 2906 2969 
z
M 947 1747 
Q 947 1113 1208 752 
Q 1469 391 1925 391 
Q 2381 391 2643 752 
Q 2906 1113 2906 1747 
Q 2906 2381 2643 2742 
Q 2381 3103 1925 3103 
Q 1469 3103 1208 2742 
Q 947 2381 947 1747 
z
" transform="scale(0.015625)"/>
      </defs>
      <use xlink:href="#DejaVuSans-50"/>
      <use xlink:href="#DejaVuSans-6f" transform="translate(56.677734 0)"/>
      <use xlink:href="#DejaVuSans-73" transform="translate(117.859375 0)"/>
      <use xlink:href="#DejaVuSans-74" transform="translate(169.958984 0)"/>
      <use xlink:href="#DejaVuSans-65" transform="translate(209.167969 0)"/>
      <use xlink:href="#DejaVuSans-72" transform="translate(270.691406 0)"/>
      <use xlink:href="#DejaVuSans-69" transform="translate(311.804688 0)"/>
      <use xlink:href="#DejaVuSans-6f" transform="translate(339.587891 0)"/>
      <use xlink:href="#DejaVuSans-72" transform="translate(400.769531 0)"/>
      <use xlink:href="#DejaVuSans-20" transform="translate(441.882812 0)"/>
      <use xlink:href="#DejaVuSans-53" transform="translate(473.669922 0)"/>
      <use xlink:href="#DejaVuSans-74" transform="translate(537.146484 0)"/>
      <use xlink:href="#DejaVuSans-64" transform="translate(576.355469 0)"/>
     </g>
    </g>
   </g>
   <g id="line2d_53">
    <path d="M 294.863352 164.16358 
L 294.863352 164.161952 
L 298.564443 164.162014 
L 302.265534 164.162079 
L 305.966625 164.16214 
L 309.667716 164.1622 
L 313.368807 164.162256 
L 317.069898 164.162311 
L 320.770989 164.162363 
L 324.47208 164.162414 
L 328.17317 164.162462 
L 331.874261 164.162508 
L 335.575352 164.162552 
L 339.276443 164.162595 
L 342.977534 164.162636 
L 346.678625 164.162676 
L 350.379716 164.162714 
L 354.080807 164.16275 
L 357.781898 164.162785 
L 361.482989 164.162819 
L 365.18408 164.162851 
L 368.88517 164.162883 
L 372.586261 164.162913 
L 376.287352 164.162942 
L 379.988443 164.16297 
L 383.689534 164.162997 
L 387.390625 164.163024 
L 391.091716 164.163049 
L 394.792807 164.163074 
L 398.493898 164.163098 
L 402.194989 164.163122 
L 405.89608 164.163144 
L 409.59717 164.163166 
L 413.298261 164.163187 
L 416.999352 164.163207 
L 420.700443 164.163227 
L 424.401534 164.163246 
L 428.102625 164.163265 
L 431.803716 164.163283 
L 435.504807 164.1633 
L 439.205898 164.163317 
L 442.906989 164.163334 
L 446.60808 164.16335 
L 450.30917 164.163366 
L 454.010261 164.163381 
L 457.711352 164.163396 
L 461.412443 164.16341 
L 465.113534 164.163425 
L 468.814625 164.163438 
L 472.515716 164.163452 
L 476.216807 164.163465 
L 479.917898 164.163465 
" clip-path="url(#p5bb9c315b8)" style="fill: none; stroke: #1f77b4; stroke-width: 1.5; stroke-linecap: square"/>
   </g>
   <g id="line2d_54">
    <path d="M 294.863352 164.16176 
L 294.863352 29.07267 
L 298.564443 64.729906 
L 302.265534 64.584069 
L 305.966625 64.440214 
L 309.667716 64.298284 
L 313.368807 64.158228 
L 317.069898 64.020435 
L 320.770989 63.88485 
L 324.47208 63.751452 
L 328.17317 63.620505 
L 331.874261 63.491936 
L 335.575352 63.36553 
L 339.276443 63.240874 
L 342.977534 63.119017 
L 346.678625 63.000045 
L 350.379716 62.883868 
L 354.080807 62.770403 
L 357.781898 62.659812 
L 361.482989 62.55226 
L 365.18408 62.447393 
L 368.88517 62.344826 
L 372.586261 62.244395 
L 376.287352 62.145858 
L 379.988443 62.048748 
L 383.689534 61.953056 
L 387.390625 61.858522 
L 391.091716 61.765509 
L 394.792807 61.674175 
L 398.493898 61.584714 
L 402.194989 61.497304 
L 405.89608 61.412144 
L 409.59717 61.329021 
L 413.298261 61.247679 
L 416.999352 61.168066 
L 420.700443 61.090131 
L 424.401534 61.013613 
L 428.102625 60.938414 
L 431.803716 60.864509 
L 435.504807 60.791871 
L 439.205898 60.720387 
L 442.906989 60.64997 
L 446.60808 60.580606 
L 450.30917 60.512328 
L 454.010261 60.445285 
L 457.711352 60.379274 
L 461.412443 60.314185 
L 465.113534 60.250003 
L 468.814625 60.186715 
L 472.515716 60.124304 
L 476.216807 60.062795 
L 479.917898 60.062795 
" clip-path="url(#p5bb9c315b8)" style="fill: none; stroke: #ff7f0e; stroke-width: 1.5; stroke-linecap: square"/>
   </g>
   <g id="patch_9">
    <path d="M 285.610625 170.918125 
L 285.610625 22.318125 
" style="fill: none; stroke: #000000; stroke-width: 0.8; stroke-linejoin: miter; stroke-linecap: square"/>
   </g>
   <g id="patch_10">
    <path d="M 489.170625 170.918125 
L 489.170625 22.318125 
" style="fill: none; stroke: #000000; stroke-width: 0.8; stroke-linejoin: miter; stroke-linecap: square"/>
   </g>
   <g id="patch_11">
    <path d="M 285.610625 170.918125 
L 489.170625 170.918125 
" style="fill: none; stroke: #000000; stroke-width: 0.8; stroke-linejoin: miter; stroke-linecap: square"/>
   </g>
   <g id="patch_12">
    <path d="M 285.610625 22.318125 
L 489.170625 22.318125 
" style="fill: none; stroke: #000000; stroke-width: 0.8; stroke-linejoin: miter; stroke-linecap: square"/>
   </g>
   <g id="text_32">
    <!-- Std -->
    <g transform="translate(377.420313 16.318125) scale(0.12 -0.12)">
     <use xlink:href="#DejaVuSans-53"/>
     <use xlink:href="#DejaVuSans-74" transform="translate(63.476562 0)"/>
     <use xlink:href="#DejaVuSans-64" transform="translate(102.685547 0)"/>
    </g>
   </g>
   <g id="legend_2">
    <g id="patch_13">
     <path d="M 439.270625 59.674375 
L 482.170625 59.674375 
Q 484.170625 59.674375 484.170625 57.674375 
L 484.170625 29.318125 
Q 484.170625 27.318125 482.170625 27.318125 
L 439.270625 27.318125 
Q 437.270625 27.318125 437.270625 29.318125 
L 437.270625 57.674375 
Q 437.270625 59.674375 439.270625 59.674375 
z
" style="fill: #ffffff; opacity: 0.8; stroke: #cccccc; stroke-linejoin: miter"/>
    </g>
    <g id="line2d_55">
     <path d="M 441.270625 35.416562 
L 451.270625 35.416562 
L 461.270625 35.416562 
" style="fill: none; stroke: #1f77b4; stroke-width: 1.5; stroke-linecap: square"/>
    </g>
    <g id="text_33">
     <!-- $\theta_0$ -->
     <g transform="translate(469.270625 38.916562) scale(0.1 -0.1)">
      <use xlink:href="#DejaVuSans-Oblique-3b8" transform="translate(0 0.234375)"/>
      <use xlink:href="#DejaVuSans-30" transform="translate(61.181641 -16.171875) scale(0.7)"/>
     </g>
    </g>
    <g id="line2d_56">
     <path d="M 441.270625 50.094687 
L 451.270625 50.094687 
L 461.270625 50.094687 
" style="fill: none; stroke: #ff7f0e; stroke-width: 1.5; stroke-linecap: square"/>
    </g>
    <g id="text_34">
     <!-- $\theta_2$ -->
     <g transform="translate(469.270625 53.594687) scale(0.1 -0.1)">
      <use xlink:href="#DejaVuSans-Oblique-3b8" transform="translate(0 0.234375)"/>
      <use xlink:href="#DejaVuSans-32" transform="translate(61.181641 -16.171875) scale(0.7)"/>
     </g>
    </g>
   </g>
  </g>
 </g>
 <defs>
  <clipPath id="pc9fc95b636">
   <rect x="34.240625" y="22.318125" width="203.56" height="148.6"/>
  </clipPath>
  <clipPath id="p5bb9c315b8">
   <rect x="285.610625" y="22.318125" width="203.56" height="148.6"/>
  </clipPath>
 </defs>
</svg>
