<?xml version="1.0" encoding="UTF-8" standalone="no"?>
<!DOCTYPE svg PUBLIC "-//W3C//DTD SVG 1.1//EN"
 "http://www.w3.org/Graphics/SVG/1.1/DTD/svg11.dtd">
<!-- Generated by graphviz version 14.1.2 (20260126.1125)
 -->
<!-- Pages: 1 -->
<svg width="504pt" height="159pt"
 viewBox="0.00 0.00 504.00 159.00" xmlns="http://www.w3.org/2000/svg" xmlns:xlink="http://www.w3.org/1999/xlink">
<g id="graph0" class="graph" transform="scale(0.932575 0.932575) rotate(0) translate(36 135)">
<!-- 0 -->
<g id="node1" class="node">
<title>0</title>
<ellipse fill="#bbbbbb" stroke="black" cx="27" cy="-81" rx="27" ry="18"/>
<text xml:space="preserve" text-anchor="middle" x="27" y="-76.72" font-family="Helvetica,Arial,sans-serif" font-size="12.00">S</text>
</g>
<!-- 1 -->
<g id="node2" class="node">
<title>1</title>
<ellipse fill="#eeeeee" stroke="black" cx="159.07" cy="-81" rx="33.07" ry="18"/>
<text xml:space="preserve" text-anchor="middle" x="159.07" y="-76.72" font-family="Helvetica,Arial,sans-serif" font-size="12.00">2,1,0,0</text>
</g>
<!-- 0&#45;&gt;1 -->
<g id="edge1" class="edge">
<title>0&#45;&gt;1</title>
<path fill="none" stroke="#b41c46" d="M54.32,-81C71.57,-81 94.54,-81 114.48,-81"/>
<polygon fill="#b41c46" stroke="#b41c46" points="114.29,-84.5 124.29,-81 114.29,-77.5 114.29,-84.5"/>
<text xml:space="preserve" text-anchor="middle" x="78.62" y="-69.6" font-family="Helvetica,Arial,sans-serif" font-size="12.00" fill="#b41c46">1.00</text>
</g>
<!-- 3 -->
<g id="node3" class="node">
<title>3</title>
<ellipse fill="#bbbbbb" stroke="black" cx="435.37" cy="-81" rx="33.07" ry="18"/>
<text xml:space="preserve" text-anchor="middle" x="435.37" y="-76.72" font-family="Helvetica,Arial,sans-serif" font-size="12.00">0,0,0,1</text>
</g>
<!-- 1&#45;&gt;3 -->
<g id="edge2" class="edge">
<title>1&#45;&gt;3</title>
<path fill="none" stroke="#85511a" d="M192.62,-81C241.8,-81 335.16,-81 390.36,-81"/>
<polygon fill="#85511a" stroke="#85511a" points="390.35,-84.5 400.35,-81 390.35,-77.5 390.35,-84.5"/>
<text xml:space="preserve" text-anchor="middle" x="285.72" y="-69.6" font-family="Helvetica,Arial,sans-serif" font-size="12.00" fill="#85511a">2.00</text>
</g>
<!-- 2 -->
<g id="node4" class="node">
<title>2</title>
<ellipse fill="#eeeeee" stroke="black" cx="297.22" cy="-18" rx="33.07" ry="18"/>
<text xml:space="preserve" text-anchor="middle" x="297.22" y="-13.72" font-family="Helvetica,Arial,sans-serif" font-size="12.00">0,2,0,0</text>
</g>
<!-- 1&#45;&gt;2 -->
<g id="edge3" class="edge">
<title>1&#45;&gt;2</title>
<path fill="none" stroke="#685e1a" d="M185.04,-69.44C206.35,-59.59 237.22,-45.3 261.02,-34.29"/>
<polygon fill="#685e1a" stroke="#685e1a" points="262.43,-37.49 270.03,-30.12 259.49,-31.14 262.43,-37.49"/>
<text xml:space="preserve" text-anchor="middle" x="216.75" y="-38" font-family="Helvetica,Arial,sans-serif" font-size="12.00" fill="#685e1a">1.00</text>
</g>
<!-- 2&#45;&gt;3 -->
<g id="edge4" class="edge">
<title>2&#45;&gt;3</title>
<path fill="none" stroke="#46671a" d="M323.19,-29.56C344.49,-39.41 375.36,-53.7 399.17,-64.71"/>
<polygon fill="#46671a" stroke="#46671a" points="397.63,-67.86 408.18,-68.88 400.57,-61.51 397.63,-67.86"/>
<text xml:space="preserve" text-anchor="middle" x="390.14" y="-38.2" font-family="Helvetica,Arial,sans-serif" font-size="12.00" fill="#46671a">5.00e&#45;01</text>
</g>
</g>
</svg>
