<?xml version="1.0" encoding="UTF-8" standalone="no"?>
<!DOCTYPE svg PUBLIC "-//W3C//DTD SVG 1.1//EN"
 "http://www.w3.org/Graphics/SVG/1.1/DTD/svg11.dtd">
<!-- Generated by graphviz version 14.1.2 (20260126.1125)
 -->
<!-- Pages: 1 -->
<svg width="504pt" height="220pt"
 viewBox="0.00 0.00 504.00 220.00" xmlns="http://www.w3.org/2000/svg" xmlns:xlink="http://www.w3.org/1999/xlink">
<g id="graph0" class="graph" transform="scale(0.470668 0.470668) rotate(0) translate(36 432.1)">
<!-- 0 -->
<g id="node1" class="node">
<title>0</title>
<ellipse fill="#bbbbbb" stroke="black" cx="27" cy="-198.05" rx="27" ry="30.05"/>
<text xml:space="preserve" text-anchor="middle" x="27" y="-186.8" font-family="Helvetica,Arial,sans-serif" font-size="30.00">S</text>
</g>
<!-- 1 -->
<g id="node2" class="node">
<title>1</title>
<ellipse fill="#eeeeee" stroke="black" cx="202.48" cy="-198.05" rx="40.48" ry="30.05"/>
<text xml:space="preserve" text-anchor="middle" x="202.48" y="-186.8" font-family="Helvetica,Arial,sans-serif" font-size="30.00">1,1</text>
</g>
<!-- 0&#45;&gt;1 -->
<g id="edge1" class="edge">
<title>0&#45;&gt;1</title>
<path fill="none" stroke="#b41c46" stroke-width="5" d="M54.35,-198.05C78.53,-198.05 115.15,-198.05 145.81,-198.05"/>
<polygon fill="#b41c46" stroke="#b41c46" stroke-width="5" points="145.41,-202.43 155.41,-198.05 145.41,-193.68 145.41,-202.43"/>
<text xml:space="preserve" text-anchor="middle" x="78.99" y="-169.55" font-family="Helvetica,Arial,sans-serif" font-size="30.00" fill="#b41c46">1.00</text>
</g>
<!-- 2 -->
<g id="node3" class="node">
<title>2</title>
<ellipse fill="#eeeeee" stroke="black" cx="391.45" cy="-282.05" rx="40.48" ry="30.05"/>
<text xml:space="preserve" text-anchor="middle" x="391.45" y="-270.8" font-family="Helvetica,Arial,sans-serif" font-size="30.00">2,1</text>
</g>
<!-- 1&#45;&gt;2 -->
<g id="edge2" class="edge">
<title>1&#45;&gt;2</title>
<path fill="none" stroke="#85511a" stroke-width="5" d="M237.77,-213.46C266.9,-226.54 309.04,-245.48 341.67,-260.14"/>
<polygon fill="#85511a" stroke="#85511a" stroke-width="5" points="339.77,-264.08 350.68,-264.19 343.35,-256.1 339.77,-264.08"/>
<text xml:space="preserve" text-anchor="middle" x="325.86" y="-211.56" font-family="Helvetica,Arial,sans-serif" font-size="30.00" fill="#85511a">2.00</text>
</g>
<!-- 3 -->
<g id="node4" class="node">
<title>3</title>
<ellipse fill="#eeeeee" stroke="black" cx="391.45" cy="-114.05" rx="40.48" ry="30.05"/>
<text xml:space="preserve" text-anchor="middle" x="391.45" y="-102.8" font-family="Helvetica,Arial,sans-serif" font-size="30.00">1,2</text>
</g>
<!-- 1&#45;&gt;3 -->
<g id="edge3" class="edge">
<title>1&#45;&gt;3</title>
<path fill="none" stroke="#685e1a" stroke-width="5" d="M237.77,-182.65C266.9,-169.56 309.04,-150.63 341.67,-135.97"/>
<polygon fill="#685e1a" stroke="#685e1a" stroke-width="5" points="343.35,-140.01 350.68,-131.92 339.77,-132.02 343.35,-140.01"/>
<text xml:space="preserve" text-anchor="middle" x="268.11" y="-127.54" font-family="Helvetica,Arial,sans-serif" font-size="30.00" fill="#685e1a">2.00</text>
</g>
<!-- 4 -->
<g id="node5" class="node">
<title>4</title>
<ellipse fill="#eeeeee" stroke="black" cx="580.41" cy="-366.05" rx="40.48" ry="30.05"/>
<text xml:space="preserve" text-anchor="middle" x="580.41" y="-354.8" font-family="Helvetica,Arial,sans-serif" font-size="30.00">3,1</text>
</g>
<!-- 2&#45;&gt;4 -->
<g id="edge4" class="edge">
<title>2&#45;&gt;4</title>
<path fill="none" stroke="#46671a" stroke-width="5" d="M426.74,-297.46C455.86,-310.54 498,-329.48 530.63,-344.14"/>
<polygon fill="#46671a" stroke="#46671a" stroke-width="5" points="528.73,-348.08 539.65,-348.19 532.32,-340.1 528.73,-348.08"/>
<text xml:space="preserve" text-anchor="middle" x="514.82" y="-295.56" font-family="Helvetica,Arial,sans-serif" font-size="30.00" fill="#46671a">3.00</text>
</g>
<!-- 5 -->
<g id="node6" class="node">
<title>5</title>
<ellipse fill="#eeeeee" stroke="black" cx="580.41" cy="-198.05" rx="40.48" ry="30.05"/>
<text xml:space="preserve" text-anchor="middle" x="580.41" y="-186.8" font-family="Helvetica,Arial,sans-serif" font-size="30.00">2,2</text>
</g>
<!-- 2&#45;&gt;5 -->
<g id="edge5" class="edge">
<title>2&#45;&gt;5</title>
<path fill="none" stroke="#1b6a48" stroke-width="5" d="M426.74,-266.65C455.86,-253.56 498,-234.63 530.63,-219.97"/>
<polygon fill="#1b6a48" stroke="#1b6a48" stroke-width="5" points="532.32,-224.01 539.65,-215.92 528.73,-216.02 532.32,-224.01"/>
<text xml:space="preserve" text-anchor="middle" x="457.07" y="-211.54" font-family="Helvetica,Arial,sans-serif" font-size="30.00" fill="#1b6a48">3.00</text>
</g>
<!-- 3&#45;&gt;5 -->
<g id="edge6" class="edge">
<title>3&#45;&gt;5</title>
<path fill="none" stroke="#1d6862" stroke-width="5" d="M426.74,-129.46C455.86,-142.54 498,-161.48 530.63,-176.14"/>
<polygon fill="#1d6862" stroke="#1d6862" stroke-width="5" points="528.73,-180.08 539.65,-180.19 532.32,-172.1 528.73,-180.08"/>
<text xml:space="preserve" text-anchor="middle" x="514.82" y="-127.56" font-family="Helvetica,Arial,sans-serif" font-size="30.00" fill="#1d6862">3.00</text>
</g>
<!-- 6 -->
<g id="node7" class="node">
<title>6</title>
<ellipse fill="#eeeeee" stroke="black" cx="580.41" cy="-30.05" rx="40.48" ry="30.05"/>
<text xml:space="preserve" text-anchor="middle" x="580.41" y="-18.8" font-family="Helvetica,Arial,sans-serif" font-size="30.00">1,3</text>
</g>
<!-- 3&#45;&gt;6 -->
<g id="edge7" class="edge">
<title>3&#45;&gt;6</title>
<path fill="none" stroke="#1e6577" stroke-width="5" d="M426.74,-98.65C455.86,-85.56 498,-66.63 530.63,-51.97"/>
<polygon fill="#1e6577" stroke="#1e6577" stroke-width="5" points="532.32,-56.01 539.65,-47.92 528.73,-48.02 532.32,-56.01"/>
<text xml:space="preserve" text-anchor="middle" x="457.07" y="-43.54" font-family="Helvetica,Arial,sans-serif" font-size="30.00" fill="#1e6577">3.00</text>
</g>
<!-- 7 -->
<g id="node8" class="node">
<title>7</title>
<ellipse fill="#eeeeee" stroke="black" cx="769.37" cy="-282.05" rx="40.48" ry="30.05"/>
<text xml:space="preserve" text-anchor="middle" x="769.37" y="-270.8" font-family="Helvetica,Arial,sans-serif" font-size="30.00">3,2</text>
</g>
<!-- 4&#45;&gt;7 -->
<g id="edge8" class="edge">
<title>4&#45;&gt;7</title>
<path fill="none" stroke="#235cad" stroke-width="5" d="M615.7,-350.65C644.82,-337.56 686.96,-318.63 719.6,-303.97"/>
<polygon fill="#235cad" stroke="#235cad" stroke-width="5" points="721.28,-308.01 728.61,-299.92 717.69,-300.02 721.28,-308.01"/>
<text xml:space="preserve" text-anchor="middle" x="646.04" y="-295.54" font-family="Helvetica,Arial,sans-serif" font-size="30.00" fill="#235cad">4.00</text>
</g>
<!-- 5&#45;&gt;7 -->
<g id="edge9" class="edge">
<title>5&#45;&gt;7</title>
<path fill="none" stroke="#9225ba" stroke-width="5" d="M615.7,-213.46C644.82,-226.54 686.96,-245.48 719.6,-260.14"/>
<polygon fill="#9225ba" stroke="#9225ba" stroke-width="5" points="717.69,-264.08 728.61,-264.19 721.28,-256.1 717.69,-264.08"/>
<text xml:space="preserve" text-anchor="middle" x="703.79" y="-211.56" font-family="Helvetica,Arial,sans-serif" font-size="30.00" fill="#9225ba">4.00</text>
</g>
<!-- 8 -->
<g id="node9" class="node">
<title>8</title>
<ellipse fill="#eeeeee" stroke="black" cx="769.37" cy="-114.05" rx="40.48" ry="30.05"/>
<text xml:space="preserve" text-anchor="middle" x="769.37" y="-102.8" font-family="Helvetica,Arial,sans-serif" font-size="30.00">2,3</text>
</g>
<!-- 5&#45;&gt;8 -->
<g id="edge10" class="edge">
<title>5&#45;&gt;8</title>
<path fill="none" stroke="#a72086" stroke-width="5" d="M615.7,-182.65C644.82,-169.56 686.96,-150.63 719.6,-135.97"/>
<polygon fill="#a72086" stroke="#a72086" stroke-width="5" points="721.28,-140.01 728.61,-131.92 717.69,-132.02 721.28,-140.01"/>
<text xml:space="preserve" text-anchor="middle" x="646.04" y="-127.54" font-family="Helvetica,Arial,sans-serif" font-size="30.00" fill="#a72086">4.00</text>
</g>
<!-- 6&#45;&gt;8 -->
<g id="edge11" class="edge">
<title>6&#45;&gt;8</title>
<path fill="none" stroke="#b41c46" stroke-width="5" d="M615.7,-45.46C644.82,-58.54 686.96,-77.48 719.6,-92.14"/>
<polygon fill="#b41c46" stroke="#b41c46" stroke-width="5" points="717.69,-96.08 728.61,-96.19 721.28,-88.1 717.69,-96.08"/>
<text xml:space="preserve" text-anchor="middle" x="703.79" y="-43.56" font-family="Helvetica,Arial,sans-serif" font-size="30.00" fill="#b41c46">4.00</text>
</g>
<!-- 9 -->
<g id="node10" class="node">
<title>9</title>
<ellipse fill="#bbbbbb" stroke="black" cx="958.34" cy="-198.05" rx="40.48" ry="30.05"/>
<text xml:space="preserve" text-anchor="middle" x="958.34" y="-186.8" font-family="Helvetica,Arial,sans-serif" font-size="30.00">3,3</text>
</g>
<!-- 7&#45;&gt;9 -->
<g id="edge12" class="edge">
<title>7&#45;&gt;9</title>
<path fill="none" stroke="#85511a" stroke-width="5" d="M804.67,-266.65C833.79,-253.56 875.93,-234.63 908.56,-219.97"/>
<polygon fill="#85511a" stroke="#85511a" stroke-width="5" points="910.24,-224.01 917.57,-215.92 906.66,-216.02 910.24,-224.01"/>
<text xml:space="preserve" text-anchor="middle" x="835" y="-211.54" font-family="Helvetica,Arial,sans-serif" font-size="30.00" fill="#85511a">5.00</text>
</g>
<!-- 8&#45;&gt;9 -->
<g id="edge13" class="edge">
<title>8&#45;&gt;9</title>
<path fill="none" stroke="#685e1a" stroke-width="5" d="M804.67,-129.46C833.79,-142.54 875.93,-161.48 908.56,-176.14"/>
<polygon fill="#685e1a" stroke="#685e1a" stroke-width="5" points="906.66,-180.08 917.57,-180.19 910.24,-172.1 906.66,-180.08"/>
<text xml:space="preserve" text-anchor="middle" x="892.75" y="-127.56" font-family="Helvetica,Arial,sans-serif" font-size="30.00" fill="#685e1a">5.00</text>
</g>
</g>
</svg>
