<?xml version="1.0" encoding="UTF-8" standalone="no"?>
<!DOCTYPE svg PUBLIC "-//W3C//DTD SVG 1.1//EN"
 "http://www.w3.org/Graphics/SVG/1.1/DTD/svg11.dtd">
<!-- Generated by graphviz version 14.1.2 (20260126.1125)
 -->
<!-- Pages: 1 -->
<svg width="504pt" height="128pt"
 viewBox="0.00 0.00 504.00 128.00" xmlns="http://www.w3.org/2000/svg" xmlns:xlink="http://www.w3.org/1999/xlink">
<g id="graph0" class="graph" transform="scale(0.742721 0.742721) rotate(0) translate(36 136)">
<!-- 0 -->
<g id="node1" class="node">
<title>0</title>
<ellipse fill="#bbbbbb" stroke="black" cx="27" cy="-18" rx="27" ry="18"/>
<text xml:space="preserve" text-anchor="middle" x="27" y="-13.72" font-family="Helvetica,Arial,sans-serif" font-size="12.00">S</text>
</g>
<!-- 1 -->
<g id="node2" class="node">
<title>1</title>
<ellipse fill="#eeeeee" stroke="black" cx="159.07" cy="-18" rx="33.07" ry="18"/>
<text xml:space="preserve" text-anchor="middle" x="159.07" y="-13.72" font-family="Helvetica,Arial,sans-serif" font-size="12.00">4,0,0,0</text>
</g>
<!-- 0&#45;&gt;1 -->
<g id="edge1" class="edge">
<title>0&#45;&gt;1</title>
<path fill="none" stroke="#b41c46" d="M54.32,-18C71.57,-18 94.54,-18 114.48,-18"/>
<polygon fill="#b41c46" stroke="#b41c46" points="114.29,-21.5 124.29,-18 114.29,-14.5 114.29,-21.5"/>
<text xml:space="preserve" text-anchor="middle" x="78.62" y="-6.6" font-family="Helvetica,Arial,sans-serif" font-size="12.00" fill="#b41c46">1.00</text>
</g>
<!-- 2 -->
<g id="node3" class="node">
<title>2</title>
<ellipse fill="#eeeeee" stroke="black" cx="297.22" cy="-18" rx="33.07" ry="18"/>
<text xml:space="preserve" text-anchor="middle" x="297.22" y="-13.72" font-family="Helvetica,Arial,sans-serif" font-size="12.00">2,1,0,0</text>
</g>
<!-- 1&#45;&gt;2 -->
<g id="edge2" class="edge">
<title>1&#45;&gt;2</title>
<path fill="none" stroke="#85511a" d="M192.34,-18C210.26,-18 232.82,-18 252.33,-18"/>
<polygon fill="#85511a" stroke="#85511a" points="252.2,-21.5 262.2,-18 252.2,-14.5 252.2,-21.5"/>
<text xml:space="preserve" text-anchor="middle" x="253.17" y="-6.6" font-family="Helvetica,Arial,sans-serif" font-size="12.00" fill="#85511a">1.50e+00</text>
</g>
<!-- 3 -->
<g id="node4" class="node">
<title>3</title>
<ellipse fill="#eeeeee" stroke="black" cx="435.37" cy="-82" rx="33.07" ry="18"/>
<text xml:space="preserve" text-anchor="middle" x="435.37" y="-77.72" font-family="Helvetica,Arial,sans-serif" font-size="12.00">1,0,1,0</text>
</g>
<!-- 2&#45;&gt;3 -->
<g id="edge3" class="edge">
<title>2&#45;&gt;3</title>
<path fill="none" stroke="#685e1a" d="M322.87,-29.59C344.23,-39.63 375.38,-54.27 399.33,-65.53"/>
<polygon fill="#685e1a" stroke="#685e1a" points="397.53,-68.55 408.06,-69.64 400.5,-62.21 397.53,-68.55"/>
<text xml:space="preserve" text-anchor="middle" x="354.51" y="-38.53" font-family="Helvetica,Arial,sans-serif" font-size="12.00" fill="#685e1a">1.00</text>
</g>
<!-- 4 -->
<g id="node5" class="node">
<title>4</title>
<ellipse fill="#bbbbbb" stroke="black" cx="573.51" cy="-18" rx="33.07" ry="18"/>
<text xml:space="preserve" text-anchor="middle" x="573.51" y="-13.72" font-family="Helvetica,Arial,sans-serif" font-size="12.00">0,0,0,1</text>
</g>
<!-- 2&#45;&gt;4 -->
<g id="edge4" class="edge">
<title>2&#45;&gt;4</title>
<path fill="none" stroke="#46671a" d="M330.76,-18C379.94,-18 473.31,-18 528.51,-18"/>
<polygon fill="#46671a" stroke="#46671a" points="528.5,-21.5 538.5,-18 528.5,-14.5 528.5,-21.5"/>
<text xml:space="preserve" text-anchor="middle" x="411.86" y="-6.6" font-family="Helvetica,Arial,sans-serif" font-size="12.00" fill="#46671a">5.00e&#45;01</text>
</g>
<!-- 3&#45;&gt;4 -->
<g id="edge5" class="edge">
<title>3&#45;&gt;4</title>
<path fill="none" stroke="#1b6a48" d="M461.02,-70.41C482.38,-60.37 513.53,-45.73 537.48,-34.47"/>
<polygon fill="#1b6a48" stroke="#1b6a48" points="538.65,-37.79 546.21,-30.36 535.67,-31.45 538.65,-37.79"/>
<text xml:space="preserve" text-anchor="middle" x="492.66" y="-38.67" font-family="Helvetica,Arial,sans-serif" font-size="12.00" fill="#1b6a48">1.00</text>
</g>
</g>
</svg>
