<?xml version="1.0" encoding="UTF-8" standalone="no"?>
<!DOCTYPE svg PUBLIC "-//W3C//DTD SVG 1.1//EN"
 "http://www.w3.org/Graphics/SVG/1.1/DTD/svg11.dtd">
<!-- Generated by graphviz version 14.1.2 (20260126.1125)
 -->
<!-- Pages: 1 -->
<svg width="402pt" height="172pt"
 viewBox="0.00 0.00 402.00 172.00" xmlns="http://www.w3.org/2000/svg" xmlns:xlink="http://www.w3.org/1999/xlink">
<g id="graph0" class="graph" transform="scale(1 1) rotate(0) translate(36 136)">
<!-- 0 -->
<g id="node1" class="node">
<title>0</title>
<ellipse fill="#bbbbbb" stroke="black" cx="27" cy="-18" rx="27" ry="18"/>
<text xml:space="preserve" text-anchor="middle" x="27" y="-13.72" font-family="Helvetica,Arial,sans-serif" font-size="12.00">S</text>
</g>
<!-- 1 -->
<g id="node2" class="node">
<title>1</title>
<ellipse fill="#eeeeee" stroke="black" cx="159.07" cy="-82" rx="33.07" ry="18"/>
<text xml:space="preserve" text-anchor="middle" x="159.07" y="-77.72" font-family="Helvetica,Arial,sans-serif" font-size="12.00">1,0,1,0</text>
</g>
<!-- 0&#45;&gt;1 -->
<g id="edge1" class="edge">
<title>0&#45;&gt;1</title>
<path fill="none" stroke="#b41c46" d="M49.48,-28.57C69.63,-38.48 100.1,-53.47 123.64,-65.06"/>
<polygon fill="#b41c46" stroke="#b41c46" points="122.03,-68.17 132.55,-69.44 125.12,-61.89 122.03,-68.17"/>
<text xml:space="preserve" text-anchor="middle" x="115.37" y="-37.97" font-family="Helvetica,Arial,sans-serif" font-size="12.00" fill="#b41c46">6.67e&#45;01</text>
</g>
<!-- 2 -->
<g id="node3" class="node">
<title>2</title>
<ellipse fill="#bbbbbb" stroke="black" cx="297.22" cy="-18" rx="33.07" ry="18"/>
<text xml:space="preserve" text-anchor="middle" x="297.22" y="-13.72" font-family="Helvetica,Arial,sans-serif" font-size="12.00">0,0,0,1</text>
</g>
<!-- 0&#45;&gt;2 -->
<g id="edge2" class="edge">
<title>0&#45;&gt;2</title>
<path fill="none" stroke="#85511a" d="M54.21,-18C100.23,-18 196.04,-18 252.32,-18"/>
<polygon fill="#85511a" stroke="#85511a" points="252.18,-21.5 262.18,-18 252.18,-14.5 252.18,-21.5"/>
<text xml:space="preserve" text-anchor="middle" x="135.28" y="-6.6" font-family="Helvetica,Arial,sans-serif" font-size="12.00" fill="#85511a">3.33e&#45;01</text>
</g>
<!-- 1&#45;&gt;2 -->
<g id="edge3" class="edge">
<title>1&#45;&gt;2</title>
<path fill="none" stroke="#685e1a" d="M184.73,-70.41C206.09,-60.37 237.24,-45.73 261.18,-34.47"/>
<polygon fill="#685e1a" stroke="#685e1a" points="262.36,-37.79 269.92,-30.36 259.38,-31.45 262.36,-37.79"/>
<text xml:space="preserve" text-anchor="middle" x="216.37" y="-38.67" font-family="Helvetica,Arial,sans-serif" font-size="12.00" fill="#685e1a">1.00</text>
</g>
</g>
</svg>
