<?xml version="1.0" encoding="UTF-8" standalone="no"?>
<!DOCTYPE svg PUBLIC "-//W3C//DTD SVG 1.1//EN"
 "http://www.w3.org/Graphics/SVG/1.1/DTD/svg11.dtd">
<!-- Generated by graphviz version 14.1.2 (20260126.1125)
 -->
<!-- Pages: 1 -->
<svg width="864pt" height="363pt"
 viewBox="0.00 0.00 864.00 363.00" xmlns="http://www.w3.org/2000/svg" xmlns:xlink="http://www.w3.org/1999/xlink">
<g id="graph0" class="graph" transform="scale(0.839411 0.839411) rotate(0) translate(36 396)">
<polygon fill="#ffffff" stroke="none" points="-36,36 -36,-396 993.29,-396 993.29,36 -36,36"/>
<!-- 0 -->
<g id="node1" class="node">
<title>0</title>
<ellipse fill="#bbbbbb" stroke="black" cx="27" cy="-180" rx="27" ry="18"/>
<text xml:space="preserve" text-anchor="middle" x="27" y="-175.72" font-family="Helvetica,Arial,sans-serif" font-size="12.00">S</text>
</g>
<!-- 1 -->
<g id="node2" class="node">
<title>1</title>
<ellipse fill="#eeeeee" stroke="black" cx="165.27" cy="-180" rx="39.27" ry="18"/>
<text xml:space="preserve" text-anchor="middle" x="165.27" y="-175.72" font-family="Helvetica,Arial,sans-serif" font-size="12.00">4,0,0,0,0</text>
</g>
<!-- 0&#45;&gt;1 -->
<g id="edge1" class="edge">
<title>0&#45;&gt;1</title>
<path fill="none" stroke="#b41c46" d="M54.28,-180C71.29,-180 94,-180 114.36,-180"/>
<polygon fill="#b41c46" stroke="#b41c46" points="114.19,-183.5 124.19,-180 114.19,-176.5 114.19,-183.5"/>
<text xml:space="preserve" text-anchor="middle" x="78.28" y="-168.6" font-family="Helvetica,Arial,sans-serif" font-size="12.00" fill="#b41c46">1.00</text>
</g>
<!-- 2 -->
<g id="node3" class="node">
<title>2</title>
<ellipse fill="#eeeeee" stroke="black" cx="315.82" cy="-234" rx="39.27" ry="18"/>
<text xml:space="preserve" text-anchor="middle" x="315.82" y="-229.72" font-family="Helvetica,Arial,sans-serif" font-size="12.00">2,1,0,0,0</text>
</g>
<!-- 1&#45;&gt;2 -->
<g id="edge2" class="edge">
<title>1&#45;&gt;2</title>
<path fill="none" stroke="#85511a" d="M196.69,-191.06C218.85,-199.11 249.12,-210.12 273.47,-218.97"/>
<polygon fill="#85511a" stroke="#85511a" points="272.17,-222.22 282.77,-222.35 274.56,-215.64 272.17,-222.22"/>
<text xml:space="preserve" text-anchor="middle" x="228.92" y="-195.6" font-family="Helvetica,Arial,sans-serif" font-size="12.00" fill="#85511a">6.00</text>
</g>
<!-- 6 -->
<g id="node4" class="node">
<title>6</title>
<ellipse fill="#eeeeee" stroke="black" cx="315.82" cy="-126" rx="39.27" ry="18"/>
<text xml:space="preserve" text-anchor="middle" x="315.82" y="-121.72" font-family="Helvetica,Arial,sans-serif" font-size="12.00">4,0,0,0,1</text>
</g>
<!-- 1&#45;&gt;6 -->
<g id="edge3" class="edge">
<title>1&#45;&gt;6</title>
<path fill="none" stroke="#685e1a" d="M196.69,-168.94C218.85,-160.89 249.12,-149.88 273.47,-141.03"/>
<polygon fill="#685e1a" stroke="#685e1a" points="274.56,-144.36 282.77,-137.65 272.17,-137.78 274.56,-144.36"/>
<text xml:space="preserve" text-anchor="middle" x="215.42" y="-141.6" font-family="Helvetica,Arial,sans-serif" font-size="12.00" fill="#685e1a">3.13e+01</text>
</g>
<!-- 3 -->
<g id="node5" class="node">
<title>3</title>
<ellipse fill="#eeeeee" stroke="black" cx="466.37" cy="-234" rx="39.27" ry="18"/>
<text xml:space="preserve" text-anchor="middle" x="466.37" y="-229.72" font-family="Helvetica,Arial,sans-serif" font-size="12.00">0,2,0,0,0</text>
</g>
<!-- 2&#45;&gt;3 -->
<g id="edge4" class="edge">
<title>2&#45;&gt;3</title>
<path fill="none" stroke="#46671a" d="M355.47,-234C373.7,-234 395.7,-234 415.21,-234"/>
<polygon fill="#46671a" stroke="#46671a" points="415.15,-237.5 425.15,-234 415.15,-230.5 415.15,-237.5"/>
<text xml:space="preserve" text-anchor="middle" x="379.48" y="-222.6" font-family="Helvetica,Arial,sans-serif" font-size="12.00" fill="#46671a">1.00</text>
</g>
<!-- 4 -->
<g id="node6" class="node">
<title>4</title>
<ellipse fill="#eeeeee" stroke="black" cx="466.37" cy="-342" rx="39.27" ry="18"/>
<text xml:space="preserve" text-anchor="middle" x="466.37" y="-337.73" font-family="Helvetica,Arial,sans-serif" font-size="12.00">1,0,1,0,0</text>
</g>
<!-- 2&#45;&gt;4 -->
<g id="edge5" class="edge">
<title>2&#45;&gt;4</title>
<path fill="none" stroke="#1b6a48" d="M337.79,-249.24C363.23,-267.74 406.29,-299.05 435.27,-320.11"/>
<polygon fill="#1b6a48" stroke="#1b6a48" points="433.14,-322.89 443.29,-325.94 437.26,-317.23 433.14,-322.89"/>
<text xml:space="preserve" text-anchor="middle" x="379.35" y="-276.51" font-family="Helvetica,Arial,sans-serif" font-size="12.00" fill="#1b6a48">2.00</text>
</g>
<!-- 7 -->
<g id="node7" class="node">
<title>7</title>
<ellipse fill="#eeeeee" stroke="black" cx="466.37" cy="-126" rx="39.27" ry="18"/>
<text xml:space="preserve" text-anchor="middle" x="466.37" y="-121.72" font-family="Helvetica,Arial,sans-serif" font-size="12.00">2,1,0,0,1</text>
</g>
<!-- 2&#45;&gt;7 -->
<g id="edge6" class="edge">
<title>2&#45;&gt;7</title>
<path fill="none" stroke="#1d6862" d="M337.79,-218.76C363.23,-200.26 406.29,-168.95 435.27,-147.89"/>
<polygon fill="#1d6862" stroke="#1d6862" points="437.26,-150.77 443.29,-142.06 433.14,-145.11 437.26,-150.77"/>
<text xml:space="preserve" text-anchor="middle" x="365.85" y="-168.69" font-family="Helvetica,Arial,sans-serif" font-size="12.00" fill="#1d6862">6.55e+01</text>
</g>
<!-- 6&#45;&gt;7 -->
<g id="edge11" class="edge">
<title>6&#45;&gt;7</title>
<path fill="none" stroke="#b41c46" d="M355.47,-126C373.7,-126 395.7,-126 415.21,-126"/>
<polygon fill="#b41c46" stroke="#b41c46" points="415.15,-129.5 425.15,-126 415.15,-122.5 415.15,-129.5"/>
<text xml:space="preserve" text-anchor="middle" x="379.48" y="-114.6" font-family="Helvetica,Arial,sans-serif" font-size="12.00" fill="#b41c46">6.00</text>
</g>
<!-- 11 -->
<g id="node11" class="node">
<title>11</title>
<ellipse fill="#eeeeee" stroke="black" cx="466.37" cy="-18" rx="39.27" ry="18"/>
<text xml:space="preserve" text-anchor="middle" x="466.37" y="-13.72" font-family="Helvetica,Arial,sans-serif" font-size="12.00">4,0,0,0,2</text>
</g>
<!-- 6&#45;&gt;11 -->
<g id="edge12" class="edge">
<title>6&#45;&gt;11</title>
<path fill="none" stroke="#85511a" d="M337.79,-110.76C363.23,-92.26 406.29,-60.95 435.27,-39.89"/>
<polygon fill="#85511a" stroke="#85511a" points="437.26,-42.77 443.29,-34.06 433.14,-37.11 437.26,-42.77"/>
<text xml:space="preserve" text-anchor="middle" x="365.85" y="-60.69" font-family="Helvetica,Arial,sans-serif" font-size="12.00" fill="#85511a">1.70e+00</text>
</g>
<!-- 5 -->
<g id="node8" class="node">
<title>5</title>
<ellipse fill="#bbbbbb" stroke="black" cx="616.92" cy="-342" rx="39.27" ry="18"/>
<text xml:space="preserve" text-anchor="middle" x="616.92" y="-337.73" font-family="Helvetica,Arial,sans-serif" font-size="12.00">0,0,0,1,0</text>
</g>
<!-- 3&#45;&gt;5 -->
<g id="edge7" class="edge">
<title>3&#45;&gt;5</title>
<path fill="none" stroke="#1e6577" d="M488.34,-249.24C513.78,-267.74 556.84,-299.05 585.82,-320.11"/>
<polygon fill="#1e6577" stroke="#1e6577" points="583.69,-322.89 593.84,-325.94 587.81,-317.23 583.69,-322.89"/>
<text xml:space="preserve" text-anchor="middle" x="529.9" y="-276.51" font-family="Helvetica,Arial,sans-serif" font-size="12.00" fill="#1e6577">1.00</text>
</g>
<!-- 8 -->
<g id="node9" class="node">
<title>8</title>
<ellipse fill="#eeeeee" stroke="black" cx="616.92" cy="-126" rx="39.27" ry="18"/>
<text xml:space="preserve" text-anchor="middle" x="616.92" y="-121.72" font-family="Helvetica,Arial,sans-serif" font-size="12.00">0,2,0,0,1</text>
</g>
<!-- 3&#45;&gt;8 -->
<g id="edge8" class="edge">
<title>3&#45;&gt;8</title>
<path fill="none" stroke="#235cad" d="M488.34,-218.76C513.78,-200.26 556.84,-168.95 585.82,-147.89"/>
<polygon fill="#235cad" stroke="#235cad" points="587.81,-150.77 593.84,-142.06 583.69,-145.11 587.81,-150.77"/>
<text xml:space="preserve" text-anchor="middle" x="516.4" y="-168.69" font-family="Helvetica,Arial,sans-serif" font-size="12.00" fill="#235cad">1.00e+02</text>
</g>
<!-- 4&#45;&gt;5 -->
<g id="edge9" class="edge">
<title>4&#45;&gt;5</title>
<path fill="none" stroke="#9225ba" d="M506.01,-342C524.25,-342 546.25,-342 565.76,-342"/>
<polygon fill="#9225ba" stroke="#9225ba" points="565.7,-345.5 575.7,-342 565.7,-338.5 565.7,-345.5"/>
<text xml:space="preserve" text-anchor="middle" x="530.02" y="-330.6" font-family="Helvetica,Arial,sans-serif" font-size="12.00" fill="#9225ba">1.00</text>
</g>
<!-- 9 -->
<g id="node10" class="node">
<title>9</title>
<ellipse fill="#eeeeee" stroke="black" cx="616.92" cy="-234" rx="39.27" ry="18"/>
<text xml:space="preserve" text-anchor="middle" x="616.92" y="-229.72" font-family="Helvetica,Arial,sans-serif" font-size="12.00">1,0,1,0,1</text>
</g>
<!-- 4&#45;&gt;9 -->
<g id="edge10" class="edge">
<title>4&#45;&gt;9</title>
<path fill="none" stroke="#a72086" d="M488.34,-326.76C513.78,-308.26 556.84,-276.95 585.82,-255.89"/>
<polygon fill="#a72086" stroke="#a72086" points="587.81,-258.77 593.84,-250.06 583.69,-253.11 587.81,-258.77"/>
<text xml:space="preserve" text-anchor="middle" x="566.65" y="-276.69" font-family="Helvetica,Arial,sans-serif" font-size="12.00" fill="#a72086">1.00e+02</text>
</g>
<!-- 7&#45;&gt;8 -->
<g id="edge13" class="edge">
<title>7&#45;&gt;8</title>
<path fill="none" stroke="#685e1a" d="M506.01,-126C524.25,-126 546.25,-126 565.76,-126"/>
<polygon fill="#685e1a" stroke="#685e1a" points="565.7,-129.5 575.7,-126 565.7,-122.5 565.7,-129.5"/>
<text xml:space="preserve" text-anchor="middle" x="530.02" y="-114.6" font-family="Helvetica,Arial,sans-serif" font-size="12.00" fill="#685e1a">1.00</text>
</g>
<!-- 7&#45;&gt;9 -->
<g id="edge14" class="edge">
<title>7&#45;&gt;9</title>
<path fill="none" stroke="#46671a" d="M488.34,-141.24C513.78,-159.74 556.84,-191.05 585.82,-212.11"/>
<polygon fill="#46671a" stroke="#46671a" points="583.69,-214.89 593.84,-217.94 587.81,-209.23 583.69,-214.89"/>
<text xml:space="preserve" text-anchor="middle" x="553.15" y="-168.51" font-family="Helvetica,Arial,sans-serif" font-size="12.00" fill="#46671a">2.00</text>
</g>
<!-- 12 -->
<g id="node12" class="node">
<title>12</title>
<ellipse fill="#eeeeee" stroke="black" cx="616.92" cy="-18" rx="39.27" ry="18"/>
<text xml:space="preserve" text-anchor="middle" x="616.92" y="-13.72" font-family="Helvetica,Arial,sans-serif" font-size="12.00">2,1,0,0,2</text>
</g>
<!-- 7&#45;&gt;12 -->
<g id="edge15" class="edge">
<title>7&#45;&gt;12</title>
<path fill="none" stroke="#1b6a48" d="M488.34,-110.76C513.78,-92.26 556.84,-60.95 585.82,-39.89"/>
<polygon fill="#1b6a48" stroke="#1b6a48" points="587.81,-42.77 593.84,-34.06 583.69,-37.11 587.81,-42.77"/>
<text xml:space="preserve" text-anchor="middle" x="516.4" y="-60.69" font-family="Helvetica,Arial,sans-serif" font-size="12.00" fill="#1b6a48">4.64e+00</text>
</g>
<!-- 10 -->
<g id="node13" class="node">
<title>10</title>
<ellipse fill="#bbbbbb" stroke="black" cx="767.47" cy="-234" rx="39.27" ry="18"/>
<text xml:space="preserve" text-anchor="middle" x="767.47" y="-229.72" font-family="Helvetica,Arial,sans-serif" font-size="12.00">0,0,0,1,1</text>
</g>
<!-- 8&#45;&gt;10 -->
<g id="edge16" class="edge">
<title>8&#45;&gt;10</title>
<path fill="none" stroke="#1d6862" d="M638.89,-141.24C664.33,-159.74 707.39,-191.05 736.37,-212.11"/>
<polygon fill="#1d6862" stroke="#1d6862" points="734.24,-214.89 744.38,-217.94 738.35,-209.23 734.24,-214.89"/>
<text xml:space="preserve" text-anchor="middle" x="680.45" y="-168.51" font-family="Helvetica,Arial,sans-serif" font-size="12.00" fill="#1d6862">1.00</text>
</g>
<!-- 13 -->
<g id="node14" class="node">
<title>13</title>
<ellipse fill="#eeeeee" stroke="black" cx="767.47" cy="-18" rx="39.27" ry="18"/>
<text xml:space="preserve" text-anchor="middle" x="767.47" y="-13.72" font-family="Helvetica,Arial,sans-serif" font-size="12.00">0,2,0,0,2</text>
</g>
<!-- 8&#45;&gt;13 -->
<g id="edge17" class="edge">
<title>8&#45;&gt;13</title>
<path fill="none" stroke="#1e6577" d="M638.89,-110.76C664.33,-92.26 707.39,-60.95 736.37,-39.89"/>
<polygon fill="#1e6577" stroke="#1e6577" points="738.35,-42.77 744.38,-34.06 734.24,-37.11 738.35,-42.77"/>
<text xml:space="preserve" text-anchor="middle" x="666.95" y="-60.69" font-family="Helvetica,Arial,sans-serif" font-size="12.00" fill="#1e6577">8.48e+00</text>
</g>
<!-- 9&#45;&gt;10 -->
<g id="edge18" class="edge">
<title>9&#45;&gt;10</title>
<path fill="none" stroke="#235cad" d="M656.56,-234C674.8,-234 696.8,-234 716.31,-234"/>
<polygon fill="#235cad" stroke="#235cad" points="716.25,-237.5 726.25,-234 716.25,-230.5 716.25,-237.5"/>
<text xml:space="preserve" text-anchor="middle" x="680.57" y="-222.6" font-family="Helvetica,Arial,sans-serif" font-size="12.00" fill="#235cad">1.00</text>
</g>
<!-- 14 -->
<g id="node15" class="node">
<title>14</title>
<ellipse fill="#eeeeee" stroke="black" cx="767.47" cy="-126" rx="39.27" ry="18"/>
<text xml:space="preserve" text-anchor="middle" x="767.47" y="-121.72" font-family="Helvetica,Arial,sans-serif" font-size="12.00">1,0,1,0,2</text>
</g>
<!-- 9&#45;&gt;14 -->
<g id="edge19" class="edge">
<title>9&#45;&gt;14</title>
<path fill="none" stroke="#9225ba" d="M638.89,-218.76C664.33,-200.26 707.39,-168.95 736.37,-147.89"/>
<polygon fill="#9225ba" stroke="#9225ba" points="738.35,-150.77 744.38,-142.06 734.24,-145.11 738.35,-150.77"/>
<text xml:space="preserve" text-anchor="middle" x="717.2" y="-168.69" font-family="Helvetica,Arial,sans-serif" font-size="12.00" fill="#9225ba">8.48e+00</text>
</g>
<!-- 11&#45;&gt;12 -->
<g id="edge20" class="edge">
<title>11&#45;&gt;12</title>
<path fill="none" stroke="#a72086" d="M506.01,-18C524.25,-18 546.25,-18 565.76,-18"/>
<polygon fill="#a72086" stroke="#a72086" points="565.7,-21.5 575.7,-18 565.7,-14.5 565.7,-21.5"/>
<text xml:space="preserve" text-anchor="middle" x="530.02" y="-6.6" font-family="Helvetica,Arial,sans-serif" font-size="12.00" fill="#a72086">6.00</text>
</g>
<!-- 12&#45;&gt;13 -->
<g id="edge21" class="edge">
<title>12&#45;&gt;13</title>
<path fill="none" stroke="#b41c46" d="M656.56,-18C674.8,-18 696.8,-18 716.31,-18"/>
<polygon fill="#b41c46" stroke="#b41c46" points="716.25,-21.5 726.25,-18 716.25,-14.5 716.25,-21.5"/>
<text xml:space="preserve" text-anchor="middle" x="680.57" y="-6.6" font-family="Helvetica,Arial,sans-serif" font-size="12.00" fill="#b41c46">1.00</text>
</g>
<!-- 12&#45;&gt;14 -->
<g id="edge22" class="edge">
<title>12&#45;&gt;14</title>
<path fill="none" stroke="#85511a" d="M638.89,-33.24C664.33,-51.74 707.39,-83.05 736.37,-104.11"/>
<polygon fill="#85511a" stroke="#85511a" points="734.24,-106.89 744.38,-109.94 738.35,-101.23 734.24,-106.89"/>
<text xml:space="preserve" text-anchor="middle" x="703.7" y="-60.51" font-family="Helvetica,Arial,sans-serif" font-size="12.00" fill="#85511a">2.00</text>
</g>
<!-- 15 -->
<g id="node16" class="node">
<title>15</title>
<ellipse fill="#bbbbbb" stroke="black" cx="918.02" cy="-72" rx="39.27" ry="18"/>
<text xml:space="preserve" text-anchor="middle" x="918.02" y="-67.72" font-family="Helvetica,Arial,sans-serif" font-size="12.00">0,0,0,1,2</text>
</g>
<!-- 13&#45;&gt;15 -->
<g id="edge23" class="edge">
<title>13&#45;&gt;15</title>
<path fill="none" stroke="#685e1a" d="M798.89,-29.06C821.05,-37.11 851.31,-48.12 875.66,-56.97"/>
<polygon fill="#685e1a" stroke="#685e1a" points="874.37,-60.22 884.96,-60.35 876.76,-53.64 874.37,-60.22"/>
<text xml:space="preserve" text-anchor="middle" x="831.11" y="-33.6" font-family="Helvetica,Arial,sans-serif" font-size="12.00" fill="#685e1a">1.00</text>
</g>
<!-- 14&#45;&gt;15 -->
<g id="edge24" class="edge">
<title>14&#45;&gt;15</title>
<path fill="none" stroke="#46671a" d="M798.89,-114.94C821.05,-106.89 851.31,-95.88 875.66,-87.03"/>
<polygon fill="#46671a" stroke="#46671a" points="876.76,-90.36 884.96,-83.65 874.37,-83.78 876.76,-90.36"/>
<text xml:space="preserve" text-anchor="middle" x="831.11" y="-87.6" font-family="Helvetica,Arial,sans-serif" font-size="12.00" fill="#46671a">1.00</text>
</g>
</g>
</svg>
